<svg width="24" height="24" viewBox="0 0 24 24" fill="none" xmlns="http://www.w3.org/2000/svg">
<path fill-rule="evenodd" clip-rule="evenodd" d="M14.7008 2C18.0928 2 20.0388 3.679 20.0388 6.604V21.14C20.0388 21.75 19.7248 22.299 19.1968 22.606C18.6708 22.914 18.0368 22.92 17.5048 22.62L11.5448 19.253L5.52976 22.627C5.26976 22.773 4.98476 22.847 4.69876 22.847C4.40376 22.847 4.10876 22.768 3.84076 22.61C3.31376 22.303 2.99976 21.754 2.99976 21.145V6.421C2.99976 3.611 4.94676 2 8.34176 2H14.7008ZM14.7008 3.5H8.34176C5.79276 3.5 4.49976 4.482 4.49976 6.421V21.145C4.49976 21.239 4.55376 21.29 4.59876 21.316C4.64376 21.344 4.71476 21.364 4.79676 21.318L11.1788 17.738C11.4068 17.611 11.6858 17.61 11.9148 17.739L18.2418 21.313C18.3248 21.361 18.3958 21.339 18.4408 21.312C18.4858 21.285 18.5388 21.234 18.5388 21.14L18.5384 6.49004C18.5308 5.62937 18.3643 3.5 14.7008 3.5ZM15.1396 8.7285C15.5536 8.7285 15.8896 9.0645 15.8896 9.4785C15.8896 9.8925 15.5536 10.2285 15.1396 10.2285H7.82156C7.40756 10.2285 7.07156 9.8925 7.07156 9.4785C7.07156 9.0645 7.40756 8.7285 7.82156 8.7285H15.1396Z" fill="#949494"/>
</svg>
