<svg width="20" height="20" viewBox="0 0 20 20" fill="none" xmlns="http://www.w3.org/2000/svg">
<path fill-rule="evenodd" clip-rule="evenodd" d="M4.25 11C8.319 11 8.5 12.38 8.5 15.25C8.5 16.688 8.5 17.711 7.896 18.46C7.201 19.323 5.936 19.5 4.25 19.5C2.564 19.5 1.299 19.323 0.604 18.46C0 17.711 0 16.689 0 15.275L0.75 15.25H0C0 12.38 0.181 11 4.25 11ZM15.25 11C19.319 11 19.5 12.38 19.5 15.25C19.5 16.688 19.5 17.711 18.896 18.46C18.201 19.323 16.936 19.5 15.25 19.5C13.564 19.5 12.299 19.323 11.604 18.46C11 17.711 11 16.689 11 15.275L11.75 15.25H11C11 12.38 11.181 11 15.25 11ZM4.45616 12.5004L4.25 12.5C1.64103 12.5 1.50723 12.6872 1.50037 14.8771L1.50079 15.7302C1.50553 16.6011 1.53871 17.2303 1.771 17.52C2.036 17.848 2.823 18 4.25 18C5.677 18 6.464 17.847 6.729 17.519C7 17.182 7 16.382 7 15.274C7 12.7738 7 12.5122 4.45616 12.5004ZM15.4562 12.5004L15.25 12.5C12.641 12.5 12.5072 12.6872 12.5004 14.8771L12.5008 15.7302C12.5055 16.6011 12.5387 17.2303 12.771 17.52C13.036 17.848 13.823 18 15.25 18C16.677 18 17.464 17.847 17.729 17.519C18 17.182 18 16.382 18 15.274C18 12.7738 18 12.5122 15.4562 12.5004ZM4.25 0C8.319 0 8.5 1.38 8.5 4.25C8.5 5.688 8.5 6.711 7.896 7.46C7.201 8.323 5.936 8.5 4.25 8.5C2.564 8.5 1.299 8.323 0.604 7.46C0 6.711 0 5.689 0 4.275L0.75 4.25H0C0 1.38 0.181 0 4.25 0ZM15.25 0C19.319 0 19.5 1.38 19.5 4.25C19.5 5.688 19.5 6.711 18.896 7.46C18.201 8.323 16.936 8.5 15.25 8.5C13.564 8.5 12.299 8.323 11.604 7.46C11 6.711 11 5.689 11 4.275L11.75 4.25H11C11 1.38 11.181 0 15.25 0ZM4.45616 1.50045L4.25 1.5C1.64103 1.5 1.50723 1.68721 1.50037 3.87705L1.50079 4.73018C1.50553 5.60114 1.53871 6.23029 1.771 6.52C2.036 6.848 2.823 7 4.25 7C5.677 7 6.464 6.847 6.729 6.519C7 6.182 7 5.382 7 4.274C7 1.7738 7 1.51222 4.45616 1.50045ZM15.4562 1.50045L15.25 1.5C12.641 1.5 12.5072 1.68721 12.5004 3.87705L12.5008 4.73018C12.5055 5.60114 12.5387 6.23029 12.771 6.52C13.036 6.848 13.823 7 15.25 7C16.677 7 17.464 6.847 17.729 6.519C18 6.182 18 5.382 18 4.274C18 1.7738 18 1.51222 15.4562 1.50045Z" fill="#949494"/>
</svg>
