<svg width="16" height="16" viewBox="0 0 16 16" fill="none" xmlns="http://www.w3.org/2000/svg">
<path d="M15.0276 9.20748C14.8045 10.6353 14.1435 11.9586 13.1358 12.9944C12.1282 14.0303 10.8237 14.7276 9.40257 14.99C7.89412 15.2905 6.32898 15.0958 4.94008 14.435C4.68428 14.3283 4.40389 14.2945 4.13007 14.3375L2.09758 14.8325C1.43008 14.99 1.01007 14.5775 1.17507 13.9025L1.66259 11.8775C1.71294 11.6038 1.67893 11.3214 1.56508 11.0675C1.08089 10.055 0.842471 8.94247 0.869213 7.82046C0.895955 6.69844 1.1871 5.59858 1.71898 4.61028C2.25086 3.62198 3.00846 2.77315 3.93019 2.13279C4.85191 1.49244 5.91175 1.07863 7.02353 0.925027C8.1353 0.771423 9.26761 0.882349 10.3284 1.24879C11.3893 1.61524 12.3487 2.22685 13.1286 3.03391C13.9085 3.84097 14.487 4.82069 14.817 5.89342C15.1469 6.96615 15.2191 8.10161 15.0276 9.20748V9.20748Z" stroke="black" stroke-width="1.5" stroke-linecap="round" stroke-linejoin="round"/>
</svg>
