<svg width="24" height="24" viewBox="0 0 24 24" fill="none" xmlns="http://www.w3.org/2000/svg">
<path fill-rule="evenodd" clip-rule="evenodd" d="M15.9086 2C19.0526 2 21.1646 4.153 21.1646 7.357V16.553C21.1646 19.785 19.1176 21.887 15.9496 21.907L8.25663 21.91C5.11263 21.91 2.99963 19.757 2.99963 16.553V7.357C2.99963 4.124 5.04663 2.023 8.21463 2.004L15.9076 2H15.9086ZM15.9086 3.5L8.21963 3.504C5.89163 3.518 4.49963 4.958 4.49963 7.357V16.553C4.49963 18.968 5.90463 20.41 8.25563 20.41L15.9446 20.407C18.2726 20.393 19.6646 18.951 19.6646 16.553V7.357C19.6646 4.942 18.2606 3.5 15.9086 3.5ZM15.7157 15.4737C16.1297 15.4737 16.4657 15.8097 16.4657 16.2237C16.4657 16.6377 16.1297 16.9737 15.7157 16.9737H8.49573C8.08173 16.9737 7.74573 16.6377 7.74573 16.2237C7.74573 15.8097 8.08173 15.4737 8.49573 15.4737H15.7157ZM15.7157 11.2872C16.1297 11.2872 16.4657 11.6232 16.4657 12.0372C16.4657 12.4512 16.1297 12.7872 15.7157 12.7872H8.49573C8.08173 12.7872 7.74573 12.4512 7.74573 12.0372C7.74573 11.6232 8.08173 11.2872 8.49573 11.2872H15.7157ZM11.2504 7.1104C11.6644 7.1104 12.0004 7.4464 12.0004 7.8604C12.0004 8.2744 11.6644 8.6104 11.2504 8.6104H8.49543C8.08143 8.6104 7.74543 8.2744 7.74543 7.8604C7.74543 7.4464 8.08143 7.1104 8.49543 7.1104H11.2504Z" fill="#949494"/>
</svg>
