<svg width="24" height="25" viewBox="0 0 24 25" fill="none" xmlns="http://www.w3.org/2000/svg">
<g clip-path="url(#clip0)">
<path d="M15.4688 7.04517C14.5641 7.04517 13.8281 6.30918 13.8281 5.40454V0.013916H5.4375C4.01592 0.013916 2.85938 1.17046 2.85938 2.59204V21.4358C2.85938 22.8574 4.01592 24.0139 5.4375 24.0139H18.5625C19.9841 24.0139 21.1406 22.8574 21.1406 21.4358V7.04517H15.4688ZM6.70312 16.8889H10.1119C10.5002 16.8889 10.815 17.2037 10.815 17.592C10.815 17.9804 10.5002 18.2952 10.1119 18.2952H6.70312C6.31481 18.2952 6 17.9804 6 17.592C6 17.2037 6.31481 16.8889 6.70312 16.8889ZM6 13.842C6 13.4537 6.31481 13.1389 6.70312 13.1389H17.0156C17.4039 13.1389 17.7188 13.4537 17.7188 13.842C17.7188 14.2304 17.4039 14.5452 17.0156 14.5452H6.70312C6.31481 14.5452 6 14.2304 6 13.842ZM17.0156 9.38892C17.4039 9.38892 17.7188 9.70373 17.7188 10.092C17.7188 10.4804 17.4039 10.7952 17.0156 10.7952H6.70312C6.31481 10.7952 6 10.4804 6 10.092C6 9.70373 6.31481 9.38892 6.70312 9.38892H17.0156Z" fill="white"/>
<path d="M15.2344 5.40468C15.2344 5.53391 15.3395 5.63905 15.4688 5.63905H20.8272C20.6986 5.40159 20.5331 5.18348 20.3343 4.99537L15.8145 0.719336C15.6391 0.553398 15.4437 0.414977 15.2344 0.305664V5.40468H15.2344Z" fill="white"/>
</g>
<defs>
<clipPath id="clip0">
<rect width="24" height="24" fill="white" transform="translate(0 0.013916)"/>
</clipPath>
</defs>
</svg>
