<svg width="20" height="20" viewBox="0 0 20 20" fill="none" xmlns="http://www.w3.org/2000/svg">
<g clip-path="url(#clip0)">
<path d="M12.8906 5.85934C12.1368 5.85934 11.5234 5.24602 11.5234 4.49216V-3.05176e-05H4.53125C3.3466 -3.05176e-05 2.38281 0.963759 2.38281 2.14841V17.8515C2.38281 19.0362 3.3466 20 4.53125 20H15.4688C16.6534 20 17.6172 19.0362 17.6172 17.8515V5.85934H12.8906ZM5.58594 14.0625H8.42656C8.75016 14.0625 9.0125 14.3248 9.0125 14.6484C9.0125 14.972 8.75016 15.2343 8.42656 15.2343H5.58594C5.26234 15.2343 5 14.972 5 14.6484C5 14.3248 5.26234 14.0625 5.58594 14.0625ZM5 11.5234C5 11.1998 5.26234 10.9375 5.58594 10.9375H14.1797C14.5033 10.9375 14.7656 11.1998 14.7656 11.5234C14.7656 11.847 14.5033 12.1093 14.1797 12.1093H5.58594C5.26234 12.1093 5 11.847 5 11.5234ZM14.1797 7.81247C14.5033 7.81247 14.7656 8.07481 14.7656 8.39841C14.7656 8.722 14.5033 8.98434 14.1797 8.98434H5.58594C5.26234 8.98434 5 8.722 5 8.39841C5 8.07481 5.26234 7.81247 5.58594 7.81247H14.1797Z" fill="#F03861" fill-opacity="0.1"/>
<path d="M12.6953 4.49225C12.6953 4.59995 12.7829 4.68756 12.8906 4.68756H17.356C17.2488 4.48967 17.1109 4.30792 16.9453 4.15116L13.1788 0.587799C13.0326 0.449518 12.8698 0.334166 12.6954 0.243073V4.49225H12.6953Z" fill="#F03861" fill-opacity="0.1"/>
</g>
<defs>
<clipPath id="clip0">
<rect width="20" height="20" fill="white"/>
</clipPath>
</defs>
</svg>
