<svg width="45" height="45" viewBox="0 0 45 45" fill="none" xmlns="http://www.w3.org/2000/svg">
<path d="M45 22.5C45 34.9263 34.9263 45 22.5 45C10.0737 45 0 34.9263 0 22.5C0 10.0737 10.0737 0 22.5 0C34.9263 0 45 10.0737 45 22.5Z" fill="#FFCC4D"/>
<path d="M22.5001 27.3113C18.7926 27.3113 16.3313 26.8788 13.2888 26.2875C12.5926 26.155 11.2413 26.2875 11.2413 28.335C11.2413 32.4288 15.9451 37.5463 22.5001 37.5463C29.0551 37.5463 33.7588 32.4288 33.7588 28.335C33.7588 26.2875 32.4063 26.1538 31.7113 26.2875C28.6688 26.8788 26.2088 27.3113 22.5001 27.3113Z" fill="#664500"/>
<path d="M20.8125 4.10123C19.7387 1.06248 16.4075 -0.532516 13.3675 0.538734C11.5225 1.18873 10.2162 2.67748 9.70749 4.41873C8.21874 3.38248 6.26874 3.04373 4.42624 3.69373C1.38874 4.76623 -0.208762 8.09998 0.864988 11.1387C1.01749 11.5687 1.21999 11.9675 1.45499 12.3362C3.89374 16.8137 10.94 19.9612 15.2062 20C18.5025 17.2912 22.0137 10.4187 21.1037 5.40373C21.0562 4.96873 20.9625 4.53123 20.8125 4.10123ZM24.1875 4.10123C25.2612 1.06248 28.5937 -0.532516 31.6325 0.538734C33.4775 1.18873 34.7837 2.67748 35.2937 4.41873C36.7825 3.38248 38.7325 3.04373 40.575 3.69373C43.6125 4.76623 45.2087 8.09998 44.1375 11.1387C43.9837 11.5687 43.7825 11.9675 43.5462 12.3362C41.1075 16.8137 34.0612 19.9612 29.7937 20C26.4975 17.2912 22.9875 10.4187 23.8975 5.40373C23.9437 4.96873 24.0375 4.53123 24.1875 4.10123Z" fill="#DD2E44"/>
</svg>
