<svg width="79" height="73" viewBox="0 0 79 73" fill="none" xmlns="http://www.w3.org/2000/svg">
<g clip-path="url(#clip0)">
<path d="M55.1158 42.9409C59.489 39.587 61.9932 34.7501 61.9932 29.6313C61.9932 25.5839 60.4014 21.631 57.5107 18.5007C54.6864 15.4423 50.7403 13.2851 46.3994 12.4266C45.891 12.3261 45.3983 12.6565 45.2979 13.1644C45.1975 13.6724 45.5277 14.1656 46.0357 14.266C54.1957 15.8796 60.1183 22.3416 60.1183 29.6312C60.1183 33.3846 58.5826 36.978 55.8338 39.8042C55.9105 39.1771 55.9506 38.5394 55.9506 37.8932V32.6346C55.9506 31.9471 55.8778 31.2727 55.7387 30.6198C56.5576 29.6777 57.165 28.554 57.5046 27.3432C57.6445 26.8448 57.3538 26.3272 56.8553 26.1873C56.3567 26.0472 55.8394 26.338 55.6994 26.8366C55.5389 27.4086 55.3015 27.955 54.9982 28.4604C54.1142 26.6356 52.6525 25.1146 50.7701 24.1571C50.6743 24.1083 50.5776 24.062 50.4812 24.015C51.0821 22.9235 51.3964 21.7034 51.3964 20.4296C51.3964 19.9118 50.9767 19.4921 50.4589 19.4921C49.9412 19.4921 49.5214 19.9118 49.5214 20.4296C49.5214 21.4457 49.2555 22.4162 48.747 23.2725C46.8744 22.5777 44.9153 22.1813 42.9441 22.0863V18.7183C42.9441 18.2005 42.5244 17.7808 42.0066 17.7808C41.4888 17.7808 41.0691 18.2005 41.0691 18.7183V22.0863C39.0979 22.1814 37.1388 22.5777 35.2663 23.2725C34.7578 22.4162 34.4918 21.4457 34.4918 20.4296C34.4918 19.9118 34.0721 19.4921 33.5543 19.4921C33.0365 19.4921 32.6168 19.9118 32.6168 20.4296C32.6168 21.7034 32.9312 22.9235 33.532 24.015C33.4356 24.0621 33.3389 24.1084 33.2432 24.1571C31.3608 25.1145 29.899 26.6356 29.0151 28.4603C28.7117 27.9549 28.4743 27.4085 28.3138 26.8365C28.174 26.338 27.6565 26.0471 27.1579 26.1872C26.6595 26.3271 26.3687 26.8446 26.5086 27.3431C26.8484 28.5539 27.4557 29.6776 28.2746 30.6197C28.1354 31.2726 28.0627 31.947 28.0627 32.6345V37.8931C28.0627 38.5367 28.1024 39.174 28.179 39.8039C25.4304 36.9779 23.8951 33.3849 23.8951 29.6312C23.8951 22.3322 29.8269 15.8684 37.9996 14.2617C38.5076 14.1618 38.8385 13.669 38.7386 13.161C38.6388 12.653 38.1459 12.3216 37.6379 12.422C33.2914 13.2765 29.3395 15.4324 26.5101 18.4926C23.6147 21.6243 22.0201 25.5801 22.0201 29.6312C22.0201 34.7508 24.5244 39.5874 28.8982 42.9414C28.9926 43.2173 29.095 43.4911 29.2053 43.7627L22.6568 50.3112L22.3915 50.046C22.0255 49.6799 21.4318 49.6799 21.0657 50.046C20.6996 50.4121 20.6996 51.0057 21.0657 51.3719L21.8611 52.1674L19.7399 54.2886L19.6073 54.1561C19.2412 53.79 18.6476 53.79 18.2814 54.1561C17.9153 54.5222 17.9153 55.1158 18.2814 55.482L22.524 59.7246C22.7071 59.9076 22.947 59.9991 23.1869 59.9991C23.4268 59.9991 23.6668 59.9076 23.8498 59.7246C24.2159 59.3585 24.2159 58.7649 23.8498 58.3987L23.7172 58.2661L25.8385 56.1449L26.634 56.9403C26.8171 57.1234 27.057 57.2149 27.2969 57.2149C27.5368 57.2149 27.7768 57.1234 27.9598 56.9403C28.3258 56.5742 28.3258 55.9806 27.9598 55.6144L27.6946 55.3493L33.393 49.651C34.1207 50.2907 34.8977 50.856 35.7166 51.3434V51.9117C35.7166 54.7996 33.8631 57.3132 31.1043 58.1667C30.6097 58.3197 30.3327 58.8448 30.4857 59.3394C30.6102 59.7418 30.9808 60.0001 31.381 60.0001C31.4728 60.0001 31.5662 59.9865 31.6584 59.958C33.3893 59.4225 34.8726 58.3686 35.9479 56.9104C36.9483 55.5538 37.5092 53.963 37.5827 52.2891C38.9431 52.8652 40.391 53.2474 41.8988 53.4217C41.9346 53.4259 41.9705 53.4279 42.0065 53.4279C42.0425 53.4279 42.0784 53.4259 42.1142 53.4217C43.6448 53.2447 45.1018 52.8499 46.4571 52.2717C46.5274 53.9521 47.089 55.549 48.0928 56.9104C49.1681 58.3687 50.6514 59.4225 52.3823 59.958C52.4745 59.9866 52.5678 60.0001 52.6597 60.0001C53.0599 60.0001 53.4305 59.7418 53.555 59.3394C53.708 58.8448 53.4311 58.3198 52.9364 58.1667C50.1776 57.3132 48.3241 54.7996 48.3241 51.9117V51.3218C51.4931 49.4309 53.9156 46.4595 55.1158 42.9409ZM35.105 45.2873L26.3689 54.0234L23.9825 51.637L32.7185 42.9009L35.105 45.2873ZM21.0657 55.6144L23.187 53.4932L24.5128 54.819L22.3915 56.9402L21.0657 55.6144ZM42.0065 51.5463C39.2812 51.2101 36.7815 50.1013 34.7216 48.3224L37.0937 45.9503C37.4598 45.5842 37.4598 44.9906 37.0937 44.6244L35.9005 43.4312L38.4195 40.9122C38.7856 40.5461 38.7856 39.9524 38.4195 39.5863C38.0534 39.2202 37.4598 39.2202 37.0936 39.5863L34.5746 42.1053L33.3815 40.9122C33.0154 40.5462 32.4218 40.5462 32.0556 40.9122L30.6622 42.3056C30.1815 40.89 29.9376 39.4113 29.9376 37.8932V32.6346C29.9376 29.7402 31.5299 27.1323 34.0931 25.8283C39.0483 23.3078 44.9648 23.3079 49.92 25.8283C52.4832 27.1322 54.0755 29.7402 54.0755 32.6346V37.8932C54.0756 44.8449 48.8947 50.6953 42.0065 51.5463Z" fill="white"/>
<path d="M44.6804 44.0733L43.9953 43.5579C43.4186 43.1241 42.6858 43.006 42.0206 43.2143C41.3552 43.0057 40.6225 43.1241 40.0457 43.5579L39.3607 44.0733C39.1491 44.2324 39.0147 44.4738 38.9907 44.7375C38.9667 45.0012 39.0554 45.2629 39.2348 45.4576L39.4948 45.7398C40.1431 46.4436 41.0637 46.8473 42.0206 46.8473C42.9775 46.8473 43.8981 46.4436 44.5463 45.7399L44.8064 45.4576C44.9858 45.2628 45.0745 45.0012 45.0505 44.7375C45.0265 44.4738 44.892 44.2324 44.6804 44.0733Z" fill="white"/>
<path d="M50.4425 34.6132C50.0764 34.2471 49.4827 34.2471 49.1166 34.6132C48.136 35.5938 46.5405 35.5937 45.5599 34.6132C45.1938 34.2471 44.6001 34.2471 44.234 34.6132C43.8679 34.9793 43.8679 35.5729 44.234 35.939C45.0898 36.7947 46.214 37.2227 47.3382 37.2227C48.4624 37.2227 49.5865 36.7948 50.4424 35.939C50.8086 35.5729 50.8086 34.9793 50.4425 34.6132Z" fill="white"/>
<path d="M39.8072 34.6131C39.4411 34.247 38.8475 34.247 38.4813 34.6131C37.5008 35.5937 35.9051 35.5937 34.9246 34.6131C34.5585 34.247 33.9649 34.247 33.5988 34.6131C33.2327 34.9792 33.2327 35.5728 33.5988 35.9389C34.4546 36.7946 35.5788 37.2226 36.7029 37.2226C37.8271 37.2226 38.9513 36.7947 39.8071 35.9389C40.1733 35.5729 40.1733 34.9793 39.8072 34.6131Z" fill="white"/>
<path d="M42.0186 13.875C42.2651 13.875 42.507 13.7747 42.6814 13.6003C42.8557 13.4259 42.9561 13.1841 42.9561 12.9375C42.9561 12.69 42.8557 12.4491 42.6814 12.2738C42.507 12.0994 42.2651 12 42.0186 12C41.772 12 41.5301 12.0994 41.3557 12.2738C41.1814 12.4491 41.0811 12.69 41.0811 12.9375C41.0811 13.1841 41.1814 13.4259 41.3557 13.6003C41.5301 13.7747 41.772 13.875 42.0186 13.875Z" fill="white"/>
</g>
<rect x="0.5" y="0.513916" width="78" height="71" rx="10.5" stroke="white" stroke-opacity="0.5"/>
<defs>
<clipPath id="clip0">
<rect width="48" height="48" fill="white" transform="translate(16 12)"/>
</clipPath>
</defs>
</svg>
