<svg width="79" height="73" viewBox="0 0 79 73" fill="none" xmlns="http://www.w3.org/2000/svg">
<g clip-path="url(#clip0)">
<path d="M52.9844 50.6918C52.9031 50.6361 52.8117 50.5969 52.7154 50.5765C52.619 50.5562 52.5196 50.555 52.4228 50.573C52.3259 50.5911 52.2336 50.628 52.1511 50.6818C52.0685 50.7355 51.9974 50.805 51.9417 50.8862C50.5708 52.8844 48.3477 54.9065 45.3334 56.8969C43.7517 57.944 41.8968 58.5023 39.9999 58.5023C38.103 58.5023 36.2481 57.944 34.6664 56.8969C30.9409 54.4365 26.5 50.6351 26.5 46.4944V36.75C26.5 36.5511 26.421 36.3603 26.2803 36.2197C26.1397 36.079 25.9489 36 25.75 36C25.5511 36 25.3603 36.079 25.2197 36.2197C25.079 36.3603 25 36.5511 25 36.75V46.4944C25 51.3022 29.8071 55.485 33.8398 58.148C35.6666 59.3573 37.8091 60.0022 40 60.0022C42.1908 60.0022 44.3333 59.3573 46.1601 58.148C49.3365 56.051 51.6978 53.8931 53.1783 51.7343C53.2908 51.5704 53.3335 51.3684 53.2972 51.1729C53.2608 50.9774 53.1483 50.8043 52.9844 50.6918Z" fill="white"/>
<path d="M28.2197 41.7803C28.2893 41.8499 28.372 41.9051 28.463 41.9428C28.554 41.9805 28.6515 41.9999 28.75 41.9999C28.8485 41.9999 28.9461 41.9805 29.037 41.9428C29.128 41.9051 29.2107 41.8499 29.2804 41.7803L30.3011 40.7595C30.6231 40.9913 30.9645 41.1948 31.3215 41.3678L30.4697 42.2196C30.329 42.3602 30.25 42.551 30.25 42.7499C30.25 42.9488 30.329 43.1396 30.4697 43.2803C30.6103 43.4209 30.8011 43.4999 31 43.4999C31.1989 43.4999 31.3897 43.4209 31.5304 43.2803L32.914 41.8965C33.272 41.9647 33.6356 41.9994 34 41.9999C35.7599 41.9999 36.6813 41.1294 36.7804 41.0303L35.7197 39.9696L35.7283 39.9611C35.7048 39.9832 35.139 40.4999 34 40.4999C32.1053 40.4999 30.7911 39.2302 30.7804 39.2196C30.7107 39.1499 30.628 39.0947 30.537 39.057C30.4461 39.0193 30.3485 38.9999 30.25 38.9999C30.1515 38.9999 30.054 39.0193 29.963 39.057C29.872 39.0947 29.7893 39.1499 29.7197 39.2196L28.2197 40.7196C28.15 40.7892 28.0948 40.8719 28.0571 40.9629C28.0194 41.0539 28 41.1514 28 41.2499C28 41.3484 28.0194 41.4459 28.0571 41.5369C28.0948 41.6279 28.15 41.7106 28.2197 41.7803Z" fill="white"/>
<path d="M35.5 51.75C35.5 53.1998 36.7217 55.5 40 55.5C43.2783 55.5 44.5 53.1998 44.5 51.75C44.5 51.6344 44.4733 51.5203 44.4219 51.4167C44.3705 51.3131 44.2958 51.2228 44.2037 51.1528C43.5497 50.6559 41.9305 49.5 41.0227 49.5C40.6445 49.5113 40.2824 49.6555 40 49.9074C39.7176 49.6555 39.3555 49.5113 38.9773 49.5C38.0695 49.5 36.4503 50.6558 35.7963 51.1528C35.7042 51.2228 35.6295 51.3131 35.5781 51.4167C35.5267 51.5203 35.5 51.6344 35.5 51.75ZM38.9574 51.0024C39.0472 51.0452 39.2012 51.2018 39.4145 51.4688C39.4848 51.5565 39.5739 51.6274 39.6752 51.676C39.7766 51.7247 39.8876 51.75 40 51.75C40.1124 51.75 40.2234 51.7247 40.3248 51.676C40.4261 51.6274 40.5152 51.5565 40.5855 51.4688C40.7978 51.2034 40.9511 51.0469 41.0409 51.0033C41.334 51.0533 42.1548 51.5253 42.9468 52.0901C42.7949 52.7191 42.213 54 40 54C37.787 54 37.2051 52.7191 37.0532 52.0901C37.8509 51.5211 38.677 51.0469 38.9574 51.0024Z" fill="white"/>
<path d="M32.0143 34.5051C31.9853 34.5017 31.9562 34.5 31.927 34.5C30.7078 34.5015 29.5056 34.7853 28.4145 35.3292C28.2382 35.4191 28.1045 35.575 28.0427 35.763C27.9808 35.951 27.9958 36.1558 28.0843 36.3328C28.1728 36.5098 28.3277 36.6447 28.5152 36.708C28.7027 36.7713 28.9076 36.7579 29.0853 36.6708C29.9549 36.2373 30.9119 36.0079 31.8835 36C33.0282 36.14 35.0429 36.6036 35.7196 37.2803C35.8602 37.4209 36.051 37.4999 36.2499 37.4999C36.4488 37.4999 36.6396 37.4209 36.7802 37.2803C36.9209 37.1396 36.9999 36.9488 36.9999 36.7499C36.9999 36.551 36.9209 36.3602 36.7802 36.2196C35.5077 34.9472 32.3681 34.5469 32.0143 34.5051Z" fill="white"/>
<path d="M52.3178 17.1676C52.4001 17.2215 52.4922 17.2588 52.5889 17.2772C52.6856 17.2956 52.785 17.2947 52.8814 17.2747C52.9777 17.2547 53.0692 17.2159 53.1506 17.1605C53.232 17.1051 53.3016 17.0342 53.3556 16.9519C53.4371 16.8279 53.4799 16.6825 53.4787 16.5341C53.4775 16.3858 53.4324 16.2411 53.3489 16.1184C53.2655 15.9957 53.1475 15.9005 53.01 15.8449C52.8724 15.7892 52.7215 15.7757 52.5762 15.8058C52.4309 15.836 52.2979 15.9086 52.1939 16.0144C52.0898 16.1203 52.0196 16.2546 51.9919 16.4003C51.9642 16.5461 51.9804 16.6968 52.0385 16.8334C52.0965 16.97 52.1937 17.0862 52.3178 17.1676Z" fill="white"/>
<path d="M16.75 38.2078C16.5511 38.2078 16.3603 38.2868 16.2197 38.4274C16.079 38.5681 16 38.7589 16 38.9578V59.25C16 59.4489 16.079 59.6396 16.2197 59.7803C16.3603 59.9209 16.5511 60 16.75 60C16.9489 60 17.1397 59.9209 17.2803 59.7803C17.421 59.6396 17.5 59.4489 17.5 59.25V38.9578C17.5 38.7589 17.421 38.5681 17.2803 38.4274C17.1397 38.2868 16.9489 38.2078 16.75 38.2078Z" fill="white"/>
<path d="M40 13.5C43.3932 13.4906 46.7437 14.2563 49.7959 15.7388C49.8976 15.7882 50.0092 15.8138 50.1222 15.8138C50.2632 15.8133 50.4013 15.7734 50.5207 15.6985C50.6402 15.6236 50.7363 15.5167 50.7981 15.39C50.8846 15.211 50.8964 15.0049 50.831 14.8172C50.7656 14.6294 50.6283 14.4753 50.4494 14.3888C48.852 13.6147 47.1732 13.0217 45.4441 12.6206C39.9383 11.3437 34.1586 12.0483 29.1208 14.6104C24.083 17.1725 20.1095 21.4282 17.8984 26.6297C17.2836 28.0789 16.8135 29.5852 16.495 31.1269C16.1684 32.7159 16.0026 34.3337 16 35.9559C15.9997 36.0545 16.0189 36.1521 16.0565 36.2432C16.094 36.3343 16.1491 36.4171 16.2187 36.4869C16.2883 36.5566 16.371 36.612 16.462 36.6497C16.553 36.6875 16.6505 36.7069 16.7491 36.7069H16.75C16.9485 36.7066 17.1388 36.6277 17.2793 36.4875C17.4198 36.3473 17.4992 36.1572 17.5 35.9588C17.5216 23.5744 27.6147 13.4991 40 13.5Z" fill="white"/>
<path d="M63.4113 30.6946C62.6528 27.3378 61.1782 24.1843 59.0885 21.4499C58.0619 20.1052 56.8967 18.8722 55.6122 17.7712C55.461 17.642 55.2648 17.5781 55.0666 17.5934C54.8684 17.6087 54.6843 17.702 54.5547 17.8527C54.4253 18.0038 54.3612 18.2001 54.3765 18.3984C54.3918 18.5967 54.4852 18.7808 54.6363 18.9102C57.1031 21.0222 59.0833 23.6434 60.4407 26.5934C61.7982 29.5435 62.5007 32.7525 62.5 35.9999V59.25C62.5 59.4489 62.5791 59.6396 62.7197 59.7803C62.8604 59.9209 63.0511 60 63.25 60C63.449 60 63.6397 59.9209 63.7804 59.7803C63.921 59.6396 64 59.4489 64 59.25V35.9999C64.0007 34.2152 63.8033 32.4358 63.4113 30.6946Z" fill="white"/>
<path d="M42.25 33C42.4489 33 42.6397 32.921 42.7803 32.7803C42.921 32.6397 43 32.4489 43 32.25V26.25C43 26.0511 42.921 25.8603 42.7803 25.7197C42.6397 25.579 42.4489 25.5 42.25 25.5C42.0511 25.5 41.8603 25.579 41.7197 25.7197C41.579 25.8603 41.5 26.0511 41.5 26.25V32.25C41.5 32.4489 41.579 32.6397 41.7197 32.7803C41.8603 32.921 42.0511 33 42.25 33Z" fill="white"/>
<path d="M60.035 54.75C60.0777 54.75 60.1203 54.7464 60.1624 54.7393C60.2595 54.7227 60.3524 54.6871 60.4357 54.6346C60.5191 54.5821 60.5912 54.5137 60.6482 54.4333C60.7051 54.3529 60.7456 54.2621 60.7674 54.166C60.7892 54.07 60.7919 53.9706 60.7753 53.8735C60.5416 52.5076 60.127 51.179 59.5423 49.9228C59.5022 49.8311 59.4443 49.7484 59.3718 49.6795C59.2993 49.6106 59.2138 49.5569 59.1203 49.5215C59.0267 49.4861 58.927 49.4698 58.8271 49.4735C58.7272 49.4773 58.629 49.5009 58.5383 49.5431C58.4477 49.5854 58.3664 49.6453 58.2992 49.7194C58.2321 49.7935 58.1804 49.8803 58.1473 49.9746C58.1142 50.069 58.1003 50.169 58.1064 50.2688C58.1125 50.3687 58.1385 50.4662 58.1829 50.5559C58.7114 51.6912 59.0861 52.892 59.2972 54.1264C59.327 54.3006 59.4173 54.4587 59.5523 54.5728C59.6873 54.6869 59.8583 54.7497 60.035 54.75Z" fill="white"/>
<path d="M49.1593 41.362C47.6708 40.9865 46.3184 40.1988 45.2573 39.0894C44.1962 37.98 43.4695 36.5938 43.1606 35.0901C43.1418 34.993 43.1039 34.9005 43.0491 34.8181C42.9944 34.7356 42.9239 34.6648 42.8417 34.6098C42.7595 34.5547 42.6672 34.5164 42.5701 34.4972C42.473 34.478 42.3731 34.4781 42.2761 34.4977C42.1791 34.5173 42.0869 34.5558 42.0049 34.6112C41.9228 34.6665 41.8526 34.7375 41.7981 34.8202C41.7437 34.9028 41.7061 34.9954 41.6876 35.0926C41.669 35.1898 41.67 35.2897 41.6902 35.3865C42.056 37.1679 42.9167 38.8099 44.1735 40.1242C45.4303 41.4385 47.0323 42.3717 48.7954 42.8168C51.9723 43.612 54.7756 45.4831 56.7286 48.1119C56.7869 48.1917 56.8605 48.2592 56.945 48.3105C57.0296 48.3618 57.1234 48.3959 57.2212 48.4107C57.319 48.4256 57.4187 48.421 57.5147 48.3972C57.6106 48.3734 57.701 48.3308 57.7804 48.272C57.8599 48.2131 57.9269 48.1391 57.9777 48.0542C58.0284 47.9694 58.0619 47.8753 58.0762 47.7775C58.0905 47.6796 58.0852 47.5799 58.0608 47.4841C58.0364 47.3882 57.9933 47.2982 57.9339 47.2191C55.7738 44.3114 52.6731 42.2417 49.1593 41.362Z" fill="white"/>
<path d="M32.5 26.25C32.5 26.4489 32.579 26.6397 32.7197 26.7803C32.8603 26.921 33.0511 27 33.25 27C33.4489 27 33.6397 26.921 33.7803 26.7803C33.921 26.6397 34 26.4489 34 26.25C34.0011 25.2558 34.3966 24.3026 35.0996 23.5996C35.8026 22.8966 36.7558 22.5011 37.75 22.5C37.9489 22.5 38.1397 22.421 38.2803 22.2803C38.421 22.1397 38.5 21.9489 38.5 21.75C38.5 21.5511 38.421 21.3603 38.2803 21.2197C38.1397 21.079 37.9489 21 37.75 21C36.3581 21.0016 35.0237 21.5552 34.0394 22.5394C33.0552 23.5237 32.5016 24.8581 32.5 26.25Z" fill="white"/>
<path d="M48.4318 44.2724C46.0221 43.6728 43.8824 42.2836 42.3542 40.3263C40.826 38.3689 39.9972 35.9562 40 33.473V26.25C40 25.6533 39.7629 25.081 39.341 24.659C38.919 24.2371 38.3467 24 37.75 24C37.1532 24 36.5809 24.2371 36.159 24.659C35.737 25.081 35.5 25.6533 35.5 26.25V27.75C35.5 28.5803 34.5494 28.8053 32.2152 29.1547C30.1768 29.4598 27.6402 29.8396 25.5918 31.3845C23.1748 33.2076 22 36.1893 22 40.5V46.4531C21.9983 50.2849 20.9984 54.0502 19.0988 57.3779C19.0004 57.5506 18.9746 57.7553 19.0271 57.9469C19.0795 58.1386 19.2058 58.3017 19.3784 58.4003C19.5509 58.4989 19.7556 58.525 19.9473 58.4728C20.1391 58.4206 20.3023 58.2945 20.4012 58.1221C22.4302 54.5677 23.4982 50.5459 23.5 46.4531V40.5C23.5 31.9761 28.4555 31.2342 32.4373 30.6382C33.607 30.463 34.6171 30.3118 35.4102 29.9738C36.465 29.5243 37 28.7761 37 27.75V26.25C37 26.0511 37.079 25.8603 37.2196 25.7197C37.3603 25.579 37.5511 25.5 37.75 25.5C37.9489 25.5 38.1397 25.579 38.2803 25.7197C38.421 25.8603 38.5 26.0511 38.5 26.25V33.473C38.4968 36.2909 39.4373 39.0287 41.1714 41.2497C42.9056 43.4708 45.3336 45.0472 48.0681 45.7276C50.4779 46.3272 52.6175 47.7164 54.1458 49.6737C55.674 51.6311 56.5028 54.0438 56.5 56.527V59.25C56.5 59.4489 56.579 59.6397 56.7196 59.7803C56.8603 59.921 57.0511 60 57.25 60C57.4489 60 57.6397 59.921 57.7803 59.7803C57.921 59.6397 58 59.4489 58 59.25V56.527C58.0032 53.7091 57.0627 50.9713 55.3285 48.7503C53.5943 46.5292 51.1664 44.9528 48.4318 44.2724Z" fill="white"/>
<path d="M60.25 58.5C60.6642 58.5 61 58.1642 61 57.75C61 57.3358 60.6642 57 60.25 57C59.8358 57 59.5 57.3358 59.5 57.75C59.5 58.1642 59.8358 58.5 60.25 58.5Z" fill="white"/>
<path d="M40.75 22.5C41.1642 22.5 41.5 22.1642 41.5 21.75C41.5 21.3358 41.1642 21 40.75 21C40.3358 21 40 21.3358 40 21.75C40 22.1642 40.3358 22.5 40.75 22.5Z" fill="white"/>
</g>
<rect x="0.5" y="0.513916" width="78" height="71" rx="10.5" stroke="white" stroke-opacity="0.5"/>
<defs>
<clipPath id="clip0">
<rect width="48" height="48" fill="white" transform="translate(16 12)"/>
</clipPath>
</defs>
</svg>
