<svg width="79" height="73" viewBox="0 0 79 73" fill="none" xmlns="http://www.w3.org/2000/svg">
<path d="M42.9717 22.0604C42.4743 22.2041 42.1876 22.7239 42.3312 23.2213C42.4203 23.5296 42.5161 23.8412 42.616 24.1477C42.745 24.5436 43.1122 24.795 43.5071 24.795C43.6033 24.795 43.7013 24.78 43.7978 24.7486C44.2901 24.5882 44.5591 24.0592 44.3987 23.5669C44.3054 23.2803 44.2159 22.989 44.1326 22.701C43.9888 22.2035 43.4691 21.917 42.9717 22.0604Z" fill="white"/>
<path d="M42.1906 17.0628C41.6754 17.113 41.2982 17.5715 41.3485 18.0868C41.3797 18.4074 41.4168 18.7315 41.459 19.0501C41.5214 19.5218 41.9241 19.8649 42.3872 19.8649C42.4282 19.8649 42.4695 19.8623 42.5112 19.8567C43.0245 19.7889 43.3857 19.3178 43.3178 18.8045C43.2784 18.5069 43.2437 18.2043 43.2146 17.905C43.1645 17.3897 42.7067 17.0128 42.1906 17.0628Z" fill="white"/>
<path d="M44.2275 28.0781L44.6357 28.9221C44.7976 29.2567 45.1321 29.4516 45.4804 29.4516C45.6173 29.4516 45.7564 29.4215 45.8879 29.358C46.354 29.1326 46.5492 28.5719 46.3237 28.1058L45.9156 27.2618C45.69 26.7955 45.1292 26.6008 44.6634 26.826C44.1973 27.0513 44.0021 27.612 44.2275 28.0781Z" fill="white"/>
<path d="M55.1522 46.5096C55.0642 46.1925 54.9395 45.8674 54.7595 45.4866C54.5383 45.0186 53.9796 44.8184 53.5114 45.0394C53.0433 45.2606 52.843 45.8194 53.0642 46.2876C53.1974 46.5693 53.2867 46.7991 53.3454 47.0107C53.4605 47.4258 53.8375 47.6979 54.2482 47.6979C54.3312 47.6979 54.4156 47.6867 54.4994 47.6635C54.9983 47.5253 55.2905 47.0086 55.1522 46.5096Z" fill="white"/>
<path d="M48.6349 37.1934L49.043 38.0374C49.2049 38.3721 49.5394 38.567 49.8877 38.567C50.0246 38.567 50.1636 38.5369 50.2952 38.4734C50.7614 38.2481 50.9566 37.6875 50.7311 37.2213L50.323 36.3773C50.0977 35.911 49.537 35.716 49.071 35.9414C48.6048 36.1667 48.4096 36.7273 48.6349 37.1934Z" fill="white"/>
<path d="M46.4311 32.6356L46.8392 33.4796C47.001 33.8143 47.3355 34.0092 47.6839 34.0092C47.8207 34.0092 47.9598 33.9791 48.0913 33.9155C48.5575 33.6902 48.7527 33.1296 48.5273 32.6635L48.1192 31.8195C47.8939 31.3531 47.3331 31.1581 46.8671 31.3835C46.4009 31.6088 46.2057 32.1694 46.4311 32.6356Z" fill="white"/>
<path d="M42.1519 14.8125C42.6695 14.8125 43.0894 14.3927 43.0894 13.875V12.9375C43.0894 12.4198 42.6695 12 42.1519 12C41.6342 12 41.2144 12.4198 41.2144 12.9375V13.875C41.2144 14.3927 41.6341 14.8125 42.1519 14.8125Z" fill="white"/>
<path d="M52.4985 43.0312C52.9647 42.8059 53.1599 42.2453 52.9344 41.7792L52.5263 40.9352C52.3011 40.4689 51.7403 40.2738 51.2743 40.4992C50.8081 40.7245 50.6129 41.2851 50.8384 41.7513L51.2465 42.5953C51.4083 42.93 51.7428 43.1249 52.0911 43.1249C52.2279 43.1249 52.3671 43.0948 52.4985 43.0312Z" fill="white"/>
<path d="M53.9621 49.9091C53.5544 49.5899 52.9651 49.6614 52.6459 50.0689C52.4915 50.2662 52.3169 50.4486 52.1269 50.6113C51.7337 50.9482 51.688 51.54 52.0249 51.9332C52.2104 52.1497 52.4729 52.2608 52.7373 52.2608C52.9531 52.2608 53.17 52.1867 53.3468 52.0352C53.6306 51.7922 53.8914 51.5196 54.122 51.2252C54.4413 50.8176 54.3697 50.2284 53.9621 49.9091Z" fill="white"/>
<path d="M47.6009 52.4555C47.5771 52.4612 47.6242 52.4532 47.6009 52.4555V52.4555Z" fill="white"/>
<path d="M39.3926 52.9896C39.2814 52.9896 39.5046 52.9969 39.3926 52.9896V52.9896Z" fill="white"/>
<path d="M50.5714 45.957L43.3182 33.5988C40.3268 28.5018 38.7456 22.6838 38.7456 16.7739V12.9375C38.7456 12.4198 38.3259 12 37.8081 12C37.2904 12 36.8706 12.4198 36.8706 12.9375V16.7739C36.8706 23.0172 38.541 29.1633 41.7012 34.5478L48.9544 46.906C49.3612 47.5992 49.3986 48.4287 49.0572 49.1821C48.7167 49.9332 48.0719 50.4522 47.2859 50.6087C46.6919 50.6932 46.0529 50.6083 45.5712 50.381C44.1825 49.7254 42.5502 49.8284 41.205 50.656C40.6491 50.9978 40.0063 51.156 39.347 51.1132C37.8714 51.0173 36.5014 49.6378 36.4151 48.1612C36.3896 47.7255 36.4507 47.3003 36.5968 46.8974C36.7731 46.4106 36.5215 45.8729 36.0348 45.6966C35.548 45.5199 35.0104 45.7718 34.8339 46.2585C34.6007 46.9023 34.5029 47.5793 34.5433 48.2706C34.6859 50.7111 36.9537 52.8311 39.3927 52.9896C40.3242 52.9896 41.3936 52.7412 42.1874 52.2531C42.8866 51.8228 43.7082 51.7175 44.4457 51.9498C42.479 53.7663 41.4019 56.3844 41.5714 59.1204C41.6021 59.6175 42.0148 60 42.5061 60C42.5256 60 42.5453 59.9994 42.565 59.9981C43.0819 59.9662 43.4748 59.5213 43.4427 59.0045C43.2806 56.3868 44.559 53.9048 46.7809 52.5148C47.031 52.5171 47.3537 52.4897 47.6011 52.4556C48.9584 52.1781 50.1832 51.2395 50.7649 49.9562C51.3526 48.6597 51.2804 47.1647 50.5714 45.957Z" fill="white"/>
<path d="M30.6064 39.0676H28.1571C27.6393 39.0676 27.2196 39.4874 27.2196 40.0051C27.2196 40.5228 27.6393 40.9426 28.1571 40.9426H28.343L25.0885 44.1972C24.7224 44.5633 24.7224 45.1569 25.0885 45.5231C25.2716 45.7061 25.5115 45.7977 25.7514 45.7977C25.9913 45.7977 26.2313 45.7061 26.4143 45.5231L29.6689 42.2685V42.4545C29.6689 42.9722 30.0886 43.392 30.6064 43.392C31.1242 43.392 31.5439 42.9722 31.5439 42.4545V40.0051C31.5439 39.4873 31.1242 39.0676 30.6064 39.0676Z" fill="white"/>
<path d="M31.831 28.6798H29.3817C28.8639 28.6798 28.4442 29.0996 28.4442 29.6173C28.4442 30.135 28.8639 30.5548 29.3817 30.5548H29.5676L26.3131 33.8093C25.9471 34.1754 25.9471 34.7691 26.3131 35.1352C26.4962 35.3182 26.7361 35.4098 26.976 35.4098C27.216 35.4098 27.456 35.3182 27.639 35.1352L30.8935 31.8807V32.0667C30.8935 32.5844 31.3132 33.0042 31.831 33.0042C32.3488 33.0042 32.7685 32.5844 32.7685 32.0667V29.6174C32.7685 29.0996 32.3488 28.6798 31.831 28.6798Z" fill="white"/>
<rect x="0.5" y="0.513916" width="78" height="71" rx="10.5" stroke="white" stroke-opacity="0.5"/>
</svg>
