<svg width="79" height="73" viewBox="0 0 79 73" fill="none" xmlns="http://www.w3.org/2000/svg">
<g clip-path="url(#clip0)">
<path d="M63.3525 31.2921L62.3931 30.98C59.0235 29.8839 55.8995 27.9988 53.3591 25.5287C51.6897 23.9055 49.4879 23.0116 47.1595 23.0116C45.0231 23.0116 42.9569 23.7813 41.3413 25.179L40 26.3391L38.6588 25.179C37.0433 23.7813 34.9769 23.0116 32.8405 23.0116C30.5121 23.0116 28.3105 23.9055 26.6411 25.5287C24.1005 27.9989 20.9765 29.8839 17.607 30.98L16.6475 31.2921C16.2091 31.4347 15.9395 31.8751 16.0116 32.3305C16.0839 32.7858 16.4766 33.1212 16.9376 33.1212C18.3126 33.1212 19.9935 35.0218 21.9396 37.2226C23.6164 39.1185 25.4954 41.2405 27.8843 43.0778L20.6499 50.3122L20.3848 50.047C20.0186 49.6809 19.4252 49.6809 19.0589 50.047C18.6928 50.4131 18.6928 51.0068 19.0589 51.3729L19.8543 52.1683L17.7331 54.2896L17.6005 54.157C17.2343 53.7909 16.6409 53.7909 16.2746 54.157C15.9085 54.5231 15.9085 55.1167 16.2746 55.4829L20.5173 59.7256C20.7003 59.9087 20.9403 60.0002 21.1802 60.0002C21.4201 60.0002 21.66 59.9087 21.8431 59.7256C22.2092 59.3595 22.2092 58.7659 21.8431 58.3997L21.7105 58.2671L23.8318 56.1458L24.6272 56.9413C24.8103 57.1244 25.0502 57.2159 25.2901 57.2159C25.53 57.2159 25.77 57.1243 25.953 56.9413C26.3191 56.5752 26.3191 55.9816 25.953 55.6155L25.6879 55.3504L34.5033 46.535C36.2445 47.0498 38.0844 47.3126 39.9817 47.3155H39.9881H40.0116H40.0177C43.9743 47.31 47.5177 46.2224 50.849 43.9911C51.2791 43.7029 51.3943 43.1206 51.1062 42.6904C50.818 42.2602 50.2357 42.1452 49.8055 42.4332C46.7879 44.4545 43.5802 45.4382 39.9998 45.4404C38.1463 45.4392 36.3573 45.1654 34.6797 44.6277L33.689 43.6369L36.4128 40.9131C36.7789 40.547 36.7789 39.9534 36.4128 39.5872C36.0466 39.2211 35.4532 39.2211 35.0869 39.5872L32.3631 42.311L31.1698 41.1178C30.994 40.942 30.7556 40.8432 30.5069 40.8432C30.2583 40.8432 30.0199 40.942 29.844 41.1178L29.2218 41.74C26.8799 39.9767 25.0088 37.863 23.3439 35.9804C22.5242 35.0535 21.7651 34.1957 21.0289 33.4713C23.3903 33.57 25.606 33.9856 27.4946 34.6901C34.7909 37.4116 39.6951 37.4556 39.9891 37.4556H40.0047C40.3051 37.4556 45.209 37.4114 52.505 34.6901C54.3938 33.9856 56.6092 33.57 58.9706 33.4713C58.2345 34.1957 57.4754 35.0534 56.6558 35.9803C56.3904 36.2804 56.1184 36.588 55.8386 36.9004C55.4934 37.2863 55.5263 37.879 55.9121 38.2243C56.2979 38.5694 56.8905 38.5367 57.2359 38.1508C57.518 37.8355 57.7925 37.5252 58.0602 37.2224C60.0065 35.0217 61.6872 33.1211 63.0621 33.1211C63.5232 33.1211 63.9158 32.7858 63.9881 32.3304C64.0606 31.8751 63.791 31.4347 63.3525 31.2921ZM20.3848 56.9412L19.059 55.6154L21.1802 53.4941L22.506 54.8199L20.3848 56.9412ZM32.8937 45.493L24.3622 54.0244L21.9757 51.6379L30.5072 43.1064L32.8937 45.493ZM51.8499 32.9332C44.8299 35.5517 40.0538 35.5805 39.9983 35.5805H39.9982C39.9508 35.5805 35.1735 35.553 28.1501 32.9332C26.081 32.1615 23.6707 31.7063 21.1158 31.5984C23.6319 30.4116 25.9564 28.8095 27.9481 26.8729C29.2656 25.592 31.0032 24.8865 32.8406 24.8865C34.5265 24.8865 36.1572 25.4939 37.4322 26.597L39.3867 28.2878C39.739 28.5924 40.2613 28.5924 40.6134 28.2878L42.5681 26.597C43.8431 25.494 45.4736 24.8865 47.1596 24.8865C48.9972 24.8865 50.7346 25.592 52.0521 26.8729C54.0438 28.8095 56.3683 30.4116 58.8845 31.5984C56.3293 31.7063 53.9188 32.1616 51.8499 32.9332Z" fill="white"/>
<path d="M46.9936 15.3324L47.1251 15.201V19.8036C47.1251 20.3213 47.5449 20.7411 48.0626 20.7411C48.5803 20.7411 49.0001 20.3213 49.0001 19.8036V15.201L49.1315 15.3324C49.3146 15.5155 49.5545 15.607 49.7944 15.607C50.0343 15.607 50.2742 15.5155 50.4573 15.3324C50.8234 14.9663 50.8234 14.3727 50.4573 14.0065L48.7255 12.2747C48.3593 11.9086 47.7659 11.9086 47.3996 12.2747L45.6676 14.0066C45.3015 14.3727 45.3015 14.9663 45.6676 15.3325C46.0339 15.6985 46.6274 15.6985 46.9936 15.3324Z" fill="white"/>
<path d="M31.4992 15.3324L31.6306 15.201V19.8036C31.6306 20.3213 32.0504 20.7411 32.5681 20.7411C33.0858 20.7411 33.5056 20.3213 33.5056 19.8036V15.201L33.637 15.3324C33.8201 15.5155 34.06 15.607 34.2999 15.607C34.5398 15.607 34.7798 15.5155 34.9628 15.3324C35.3289 14.9663 35.3289 14.3727 34.9628 14.0065L33.2311 12.2747C32.8649 11.9086 32.2715 11.9086 31.9052 12.2747L30.1733 14.0066C29.8072 14.3727 29.8072 14.9663 30.1733 15.3325C30.5395 15.6985 31.133 15.6985 31.4992 15.3324Z" fill="white"/>
<path d="M41.0809 55.0381L40.9494 55.1696V50.5669C40.9494 50.0491 40.5296 49.6294 40.0119 49.6294C39.4943 49.6294 39.0744 50.0491 39.0744 50.5669V55.1696L38.943 55.0381C38.5769 54.672 37.9835 54.672 37.6171 55.0381C37.251 55.4042 37.251 55.9978 37.6171 56.3639L39.349 58.0959C39.5249 58.2716 39.7633 58.3705 40.0119 58.3705C40.2606 58.3705 40.499 58.2716 40.6749 58.0959L42.4068 56.3639C42.7729 55.9978 42.7729 55.4042 42.4068 55.0381C42.0406 54.6719 41.4472 54.672 41.0809 55.0381Z" fill="white"/>
<path d="M53.6133 39.629C53.3667 39.629 53.1248 39.7284 52.9505 39.9028C52.7752 40.0781 52.6758 40.32 52.6758 40.5665C52.6758 40.8131 52.7752 41.054 52.9505 41.2293C53.1248 41.4037 53.3667 41.504 53.6133 41.504C53.8598 41.504 54.1017 41.4037 54.2761 41.2293C54.4504 41.055 54.5508 40.8131 54.5508 40.5665C54.5508 40.319 54.4505 40.0781 54.2761 39.9028C54.1017 39.7284 53.8598 39.629 53.6133 39.629Z" fill="white"/>
</g>
<rect x="0.5" y="0.513916" width="78" height="71" rx="10.5" stroke="white" stroke-opacity="0.5"/>
<defs>
<clipPath id="clip0">
<rect width="48" height="48" fill="white" transform="translate(16 12)"/>
</clipPath>
</defs>
</svg>
