<svg width="79" height="73" viewBox="0 0 79 73" fill="none" xmlns="http://www.w3.org/2000/svg">
<g clip-path="url(#clip0)">
<path d="M63.7256 58.3989L56.9098 51.5831L58.31 50.183C58.6761 49.8169 58.6761 49.2232 58.31 48.8571L54.2573 44.8043L56.2469 42.8147C56.4227 42.6389 56.5215 42.4004 56.5215 42.1518C56.5215 41.9032 56.4227 41.6646 56.2469 41.4889L44.9396 30.1816C44.5735 29.8155 43.9799 29.8155 43.6137 30.1816C43.2475 30.5477 43.2476 31.1413 43.6137 31.5075L47.4338 35.3275H31.314L32.4844 34.1572C32.8505 33.7911 32.8505 33.1974 32.4844 32.8312C32.1183 32.4652 31.5247 32.4652 31.1585 32.8312L29.9424 34.0473L28.0263 32.1311L31.0475 29.1099C31.4136 28.7438 31.4137 28.1502 31.0475 27.7841C30.6813 27.418 30.0878 27.418 29.7217 27.7841L26.7004 30.8053L24.7842 28.8892L32.8897 20.7837L37.6424 25.5365C38.0085 25.9026 38.6022 25.9026 38.9682 25.5365C39.3343 25.1704 39.3343 24.5767 38.9682 24.2106L34.2155 19.4579L34.6628 19.0105C35.0289 18.6444 35.0289 18.0508 34.6628 17.6846C34.2968 17.3184 33.7031 17.3185 33.3369 17.6846L30.3674 20.6543L24.325 14.612L25.3373 13.5997C25.7033 13.2337 25.7033 12.64 25.3373 12.2738C24.9712 11.9077 24.3775 11.9077 24.0113 12.2738L16.2748 20.0106C15.9087 20.3767 15.9087 20.9703 16.2748 21.3365C16.4579 21.5196 16.6978 21.6111 16.9377 21.6111C17.1776 21.6111 17.4176 21.5196 17.6006 21.3365L18.6128 20.3242L24.6552 26.3665L21.6853 29.3364C21.3192 29.7025 21.3192 30.2962 21.6853 30.6623C21.8684 30.8454 22.1083 30.9369 22.3482 30.9369C22.5881 30.9369 22.8281 30.8454 23.0111 30.6623L23.4585 30.215L45.4897 52.2461C45.6654 52.4219 45.9038 52.5207 46.1526 52.5207C46.4013 52.5207 46.6397 52.4219 46.8155 52.2461L48.8051 50.2565L52.8578 54.3092C53.0409 54.4923 53.2808 54.5838 53.5208 54.5838C53.7607 54.5838 54.0007 54.4923 54.1837 54.3092L55.5838 52.909L62.3996 59.7248C62.5827 59.9079 62.8226 59.9994 63.0625 59.9994C63.3024 59.9994 63.5424 59.9079 63.7254 59.7248C64.0918 59.3587 64.0918 58.765 63.7256 58.3989ZM19.9387 18.9983L22.9992 15.9378L29.0416 21.9802L25.981 25.0407L19.9387 18.9983ZM46.1527 50.2573L44.2365 48.3412L45.4525 47.1251C45.8186 46.759 45.8186 46.1654 45.4525 45.7992C45.0864 45.4331 44.4928 45.4331 44.1266 45.7992L42.9106 47.0152L40.9944 45.0991L44.0156 42.0778C44.3817 41.7117 44.3817 41.1181 44.0156 40.752C43.6495 40.3859 43.0559 40.3859 42.6898 40.752L39.6686 43.7732L37.7525 41.857L38.9685 40.641C39.3346 40.2749 39.3346 39.6813 38.9685 39.3151C38.6024 38.949 38.0088 38.949 37.6426 39.3151L36.4266 40.5311L33.0978 37.2023H49.3088L54.2581 42.1516L46.1527 50.2573ZM53.5208 52.3205L50.131 48.9306L52.9314 46.1302L56.3213 49.5201L53.5208 52.3205Z" fill="white"/>
<path d="M41.2937 28.7991C41.5403 28.7991 41.7821 28.6997 41.9565 28.5253C42.1309 28.35 42.2312 28.1091 42.2312 27.8625C42.2312 27.615 42.1309 27.3741 41.9565 27.1988C41.7821 27.0244 41.5403 26.9241 41.2937 26.9241C41.0462 26.9241 40.8043 27.0244 40.63 27.1988C40.4556 27.3741 40.3562 27.615 40.3562 27.8625C40.3562 28.1091 40.4556 28.35 40.63 28.5253C40.8043 28.6997 41.0462 28.7991 41.2937 28.7991Z" fill="white"/>
</g>
<rect x="0.5" y="0.513916" width="78" height="71" rx="10.5" stroke="white" stroke-opacity="0.5"/>
<defs>
<clipPath id="clip0">
<rect width="48" height="48" fill="white" transform="translate(16 12)"/>
</clipPath>
</defs>
</svg>
