<svg width="79" height="73" viewBox="0 0 79 73" fill="none" xmlns="http://www.w3.org/2000/svg">
<g clip-path="url(#clip0)">
<path d="M54.0678 54.6992H51.3462C49.6995 54.6992 48.2538 53.5305 47.9087 51.9204L45.2309 39.426H27.6777C25.7391 39.426 24.162 37.849 24.162 35.9104V35.676H20.2528C19.8312 35.676 19.4327 35.5742 19.081 35.3939V37.0505C19.081 37.4389 18.7662 37.7536 18.3778 37.7536C17.9895 37.7536 17.6747 37.4389 17.6747 37.0505V32.4714C17.1947 31.9981 16.2328 30.8478 16.0237 29.0665H14.7031C14.3148 29.0665 14 28.7518 14 28.3633C14 27.9749 14.3148 27.6602 14.7031 27.6602H16.0237C16.2328 25.879 17.1947 24.7286 17.6747 24.2553V19.6761C17.6747 19.2877 17.9895 18.973 18.3778 18.973C18.7662 18.973 19.081 19.2877 19.081 19.6761V24.2553C19.561 24.7287 20.5229 25.879 20.7321 27.6602H22.0527C22.441 27.6602 22.7558 27.9749 22.7558 28.3633C22.7558 28.7518 22.441 29.0665 22.0527 29.0665H20.7321C20.5229 30.8478 19.561 31.9981 19.081 32.4714V33.0979C19.081 33.7441 19.6066 34.2698 20.2528 34.2698H24.162V22.4569H21.1903C20.802 22.4569 20.4872 22.1422 20.4872 21.7538C20.4872 21.3654 20.802 21.0507 21.1903 21.0507H24.162V20.8163C24.162 18.8777 25.7391 17.3007 27.6777 17.3007H39.9091C40.2975 17.3007 40.6123 17.6154 40.6123 18.0038C40.6123 18.3922 40.2975 18.7069 39.9091 18.7069H27.6777C26.5145 18.7069 25.5683 19.6532 25.5683 20.8163V27.6602H60.5855C60.49 23.5968 59.5877 20.3548 58.9265 19.5118C58.5252 19.0003 57.9208 18.7069 57.2684 18.7069H42.7216C42.3332 18.7069 42.0185 18.3922 42.0185 18.0038C42.0185 17.6154 42.3332 17.3007 42.7216 17.3007H57.2684C58.3558 17.3007 59.3633 17.7902 60.0328 18.6438C61.1359 20.0499 62 24.3193 62 28.3633C62 32.4074 61.1359 36.6767 60.0329 38.0828C59.3632 38.9364 58.3557 39.4259 57.2685 39.4259H55.1432L57.5052 50.4468C57.7289 51.4901 57.4724 52.5642 56.8018 53.3939C56.1311 54.2234 55.1346 54.6992 54.0678 54.6992ZM46.669 39.426L49.2837 51.6257C49.4907 52.5918 50.3582 53.293 51.3462 53.293H54.0678C54.7078 53.293 55.3058 53.0075 55.7082 52.5098C56.1105 52.0119 56.2645 51.3674 56.1303 50.7417L53.5859 38.8702C53.5414 38.6626 53.5931 38.4461 53.7266 38.2809C53.8602 38.1157 54.0611 38.0198 54.2734 38.0198H57.2684C57.9208 38.0198 58.5251 37.7264 58.9265 37.2149C59.5878 36.3719 60.4901 33.13 60.5855 29.0666H25.5683V35.9105C25.5683 37.0736 26.5145 38.0199 27.6777 38.0199H45.7858C45.7951 38.0197 45.8043 38.0196 45.8141 38.0199H51.6117C52.0002 38.0199 52.3149 38.3346 52.3149 38.723C52.3149 39.1114 52.0002 39.4261 51.6117 39.4261H46.669V39.426ZM18.3777 25.5651C17.9593 26.0745 17.3892 27.0162 17.3892 28.3633C17.3892 29.71 17.9589 30.6513 18.378 31.1617C18.7963 30.6522 19.3666 29.7105 19.3666 28.3633C19.3666 27.0172 18.7956 26.0746 18.3777 25.5651Z" fill="white"/>
</g>
<rect x="0.5" y="0.513916" width="78" height="71" rx="10.5" stroke="white" stroke-opacity="0.5"/>
<defs>
<clipPath id="clip0">
<rect width="48" height="48" fill="white" transform="translate(14 12)"/>
</clipPath>
</defs>
</svg>
