<svg width="79" height="73" viewBox="0 0 79 73" fill="none" xmlns="http://www.w3.org/2000/svg">
<path d="M55.8693 19.1737C51.625 15.515 45.9893 13.5 40 13.5C34.0107 13.5 28.375 15.515 24.1307 19.1737C19.8548 22.8598 17.5 27.7701 17.5 33C17.5 38.7514 20.398 44.1632 25.4561 47.8792C25.7322 48.4525 26.0357 49.0168 26.3665 49.572L24.6646 50.423C24.54 50.4853 24.4353 50.581 24.362 50.6995C24.2888 50.818 24.2501 50.9545 24.2501 51.0938C24.2501 51.233 24.2888 51.3695 24.362 51.488C24.4353 51.6065 24.54 51.7022 24.6646 51.7645L26.7701 52.8173C27.205 53.0359 27.5578 53.3887 27.7764 53.8236L28.8292 55.9292C28.8915 56.0537 28.9873 56.1585 29.1057 56.2317C29.2242 56.3049 29.3607 56.3437 29.5 56.3437C29.6393 56.3437 29.7758 56.3049 29.8943 56.2317C30.0127 56.1585 30.1085 56.0537 30.1708 55.9292L30.7439 54.783C33.5781 57.1867 36.8312 58.5 40 58.5H50.5C50.6123 58.5 50.7231 58.4748 50.8244 58.4262C50.9256 58.3777 51.0146 58.307 51.0849 58.2194L57.6819 49.9997C58.369 49.3006 58.7527 48.3589 58.75 47.3787V43.7842C61.2036 40.5858 62.5 36.8625 62.5 33C62.5 27.7701 60.1452 22.8598 55.8693 19.1737ZM19 33C19 23.0748 28.4206 15 40 15C42.5362 14.9955 45.057 15.3929 47.4688 16.1775C47.275 17.6039 46.1931 19.783 44.6542 21.7969C42.9609 24.0116 41.0906 25.5 40 25.5C35.4506 25.5 31.3286 26.7974 28.3937 29.1532C25.1922 31.7227 23.5 35.3871 23.5 39.75C23.5115 41.5179 23.785 43.2742 24.3117 44.9618C20.9075 41.6854 19 37.4482 19 33ZM53.6734 36.8585C53.3823 37.1448 53.1509 37.4859 52.9924 37.8622C52.8339 38.2385 52.7515 38.6424 52.75 39.0507V46.2427L51.4227 47.9489C51.2337 47.4933 50.9354 47.0913 50.554 46.7785C50.1727 46.4657 49.7201 46.2518 49.2363 46.1556C48.7525 46.0595 48.2525 46.0841 47.7805 46.2273C47.3085 46.3705 46.8791 46.6279 46.5303 46.9766C46.4981 47.0088 46.4689 47.0438 46.4432 47.0813L39.6119 56.9916C36.8331 56.8846 33.9775 55.6349 31.4751 53.433C31.679 53.1754 31.9366 52.9653 32.2299 52.8173L34.3354 51.7645C34.46 51.7022 34.5647 51.6065 34.638 51.488C34.7112 51.3695 34.7499 51.233 34.7499 51.0938C34.7499 50.9545 34.7112 50.818 34.638 50.6995C34.5647 50.581 34.46 50.4853 34.3354 50.423L32.2299 49.3702C31.795 49.1516 31.4422 48.7988 31.2236 48.3639L30.1708 46.2583C30.1085 46.1338 30.0127 46.029 29.8943 45.9558C29.7758 45.8826 29.6393 45.8438 29.5 45.8438C29.3607 45.8438 29.2242 45.8826 29.1057 45.9558C28.9873 46.029 28.8915 46.1338 28.8292 46.2583L27.7764 48.3638C27.7207 48.4749 27.6558 48.5811 27.5824 48.6813C25.9126 45.8388 25 42.6988 25 39.75C25 35.8578 26.4981 32.5979 29.3326 30.323C32.0022 28.1801 35.7906 27 40 27C43.7143 27 47.0479 27.8922 49.6404 29.5801C52.1214 31.1955 53.8098 33.4936 54.5558 36.2551C54.2281 36.4021 53.9293 36.6064 53.6734 36.8585ZM29.5 53.9167L29.1181 53.1527C28.7538 52.428 28.1657 51.8399 27.441 51.4757L26.6771 51.0938L27.441 50.7118C28.1657 50.3476 28.7538 49.7595 29.1181 49.0347L29.5 48.2708L29.8819 49.0348C30.2462 49.7595 30.8343 50.3476 31.559 50.7118L32.3229 51.0938L31.559 51.4757C30.8343 51.8399 30.2462 52.428 29.8819 53.1528L29.5 53.9167ZM57.25 47.3787C57.2508 47.6743 57.193 47.9671 57.0799 48.2402C56.9668 48.5133 56.8006 48.7612 56.591 48.9697C56.5717 48.9889 56.5534 49.0093 56.5364 49.0306L50.1403 57H41.4279L47.6354 47.995C47.9239 47.7279 48.3057 47.5848 48.6986 47.5964C49.0916 47.608 49.4643 47.7734 49.7366 48.057C50.0088 48.3406 50.1588 48.7198 50.1543 49.1129C50.1498 49.506 49.9912 49.8817 49.7125 50.159C49.6847 50.1868 49.6592 50.2167 49.6361 50.2485L47.6434 52.9912C47.5311 53.1523 47.4864 53.3511 47.519 53.5448C47.5516 53.7385 47.6589 53.9117 47.8179 54.0271C47.9768 54.1425 48.1747 54.191 48.369 54.162C48.5633 54.1331 48.7385 54.0291 48.8569 53.8724L50.8173 51.1742C50.9644 51.0207 51.0947 50.852 51.2059 50.6709L54.0921 46.96V46.9591C54.1945 46.828 54.2501 46.6664 54.25 46.5V39.0507C54.251 38.8417 54.2934 38.635 54.3748 38.4425C54.4561 38.25 54.5748 38.0756 54.7239 37.9292C54.8622 37.7907 55.0268 37.6814 55.2081 37.6077C55.3894 37.534 55.5836 37.4973 55.7793 37.5C56.1714 37.5095 56.5444 37.6715 56.819 37.9516C57.0936 38.2316 57.2482 38.6077 57.25 39V47.3787ZM56.0442 36.0154C55.2235 32.8252 53.3022 30.1748 50.4589 28.3231C48.3488 26.9493 45.807 26.0576 42.9947 25.6908C44.2282 24.7182 45.287 23.4384 45.8458 22.7073C47.7107 20.2677 48.6122 18.1478 48.8966 16.6979C56.0406 19.5735 61 25.7992 61 33C60.9936 35.8569 60.2163 38.6591 58.75 41.1111V39C58.7461 38.2565 58.4678 37.5406 57.9684 36.9897C57.469 36.4389 56.7838 36.0919 56.0442 36.0154Z" fill="white"/>
<path d="M34.75 39.75C34.9489 39.75 35.1397 39.671 35.2803 39.5303C35.421 39.3897 35.5 39.1989 35.5 39C35.5 38.4033 35.2629 37.831 34.841 37.409C34.419 36.9871 33.8467 36.75 33.25 36.75C32.6533 36.75 32.081 36.9871 31.659 37.409C31.2371 37.831 31 38.4033 31 39C31 39.1989 31.079 39.3897 31.2197 39.5303C31.3603 39.671 31.5511 39.75 31.75 39.75C31.9489 39.75 32.1397 39.671 32.2803 39.5303C32.421 39.3897 32.5 39.1989 32.5 39C32.5 38.8011 32.579 38.6103 32.7197 38.4697C32.8603 38.329 33.0511 38.25 33.25 38.25C33.4489 38.25 33.6397 38.329 33.7803 38.4697C33.921 38.6103 34 38.8011 34 39C34 39.1989 34.079 39.3897 34.2197 39.5303C34.3603 39.671 34.5511 39.75 34.75 39.75Z" fill="white"/>
<path d="M46.75 36.75C46.1535 36.7507 45.5816 36.9879 45.1597 37.4097C44.7379 37.8316 44.5007 38.4035 44.5 39C44.5 39.1989 44.579 39.3897 44.7197 39.5303C44.8603 39.671 45.0511 39.75 45.25 39.75C45.4489 39.75 45.6397 39.671 45.7803 39.5303C45.921 39.3897 46 39.1989 46 39C46 38.8011 46.079 38.6103 46.2197 38.4697C46.3603 38.329 46.5511 38.25 46.75 38.25C46.9489 38.25 47.1397 38.329 47.2803 38.4697C47.421 38.6103 47.5 38.8011 47.5 39C47.5 39.1989 47.579 39.3897 47.7197 39.5303C47.8603 39.671 48.0511 39.75 48.25 39.75C48.4489 39.75 48.6397 39.671 48.7803 39.5303C48.921 39.3897 49 39.1989 49 39C48.9993 38.4035 48.7621 37.8316 48.3403 37.4097C47.9184 36.9879 47.3465 36.7507 46.75 36.75Z" fill="white"/>
<path d="M45.5506 44.3129C45.3683 44.2332 45.1619 44.2291 44.9767 44.3016C44.7914 44.374 44.6426 44.5171 44.5628 44.6993C44.5517 44.7248 43.4075 47.25 39.9999 47.25C36.6374 47.25 35.4877 44.8109 35.4355 44.696C35.3545 44.5151 35.2053 44.3737 35.0204 44.3025C34.8355 44.2313 34.6299 44.2362 34.4486 44.3161C34.2673 44.396 34.125 44.5443 34.0527 44.7288C33.9804 44.9133 33.984 45.1189 34.0628 45.3006C34.1244 45.4415 35.6222 48.75 39.9999 48.75C44.3776 48.75 45.8754 45.4415 45.937 45.3006C46.0167 45.1184 46.0208 44.912 45.9483 44.7267C45.8759 44.5415 45.7328 44.3926 45.5506 44.3129Z" fill="white"/>
<path d="M38.5 42.75H41.5C41.6989 42.75 41.8897 42.671 42.0303 42.5303C42.171 42.3897 42.25 42.1989 42.25 42C42.25 41.8011 42.171 41.6103 42.0303 41.4697C41.8897 41.329 41.6989 41.25 41.5 41.25H39.25V39C39.25 38.8011 39.171 38.6103 39.0303 38.4697C38.8897 38.329 38.6989 38.25 38.5 38.25C38.3011 38.25 38.1103 38.329 37.9697 38.4697C37.829 38.6103 37.75 38.8011 37.75 39V42C37.75 42.1989 37.829 42.3897 37.9697 42.5303C38.1103 42.671 38.3011 42.75 38.5 42.75Z" fill="white"/>
<rect x="0.5" y="0.513916" width="78" height="71" rx="10.5" stroke="white" stroke-opacity="0.5"/>
</svg>
