<svg width="79" height="73" viewBox="0 0 79 73" fill="none" xmlns="http://www.w3.org/2000/svg">
<g clip-path="url(#clip0)">
<path d="M38.1468 42.5449C38.6646 42.5449 39.0843 42.1251 39.0843 41.6074V39.3329C39.0843 38.8152 38.6646 38.3954 38.1468 38.3954H35.8764C35.3587 38.3954 34.9389 38.8152 34.9389 39.3329C34.9389 39.7207 35.1745 40.0536 35.5104 40.1961C34.2569 40.9002 32.8403 41.2762 31.365 41.2762C31.3383 41.2762 31.3116 41.2761 31.2849 41.2759C30.765 41.2711 30.3436 41.687 30.3389 42.2047C30.3342 42.7224 30.75 43.1461 31.2678 43.1509C31.3006 43.1511 31.3328 43.1512 31.3657 43.1512C33.4811 43.1512 35.4991 42.5211 37.2095 41.3482V41.6074C37.2093 42.1252 37.629 42.5449 38.1468 42.5449Z" fill="white"/>
<path d="M36.4666 49.3807C36.9843 49.3807 37.4041 48.9609 37.4041 48.4432V46.1686C37.4041 45.6509 36.9843 45.2311 36.4666 45.2311H34.1962C33.6784 45.2311 33.2587 45.6509 33.2587 46.1686C33.2587 46.5564 33.4943 46.8893 33.8302 47.0318C32.5766 47.736 31.1599 48.112 29.6844 48.112C29.6579 48.112 29.6311 48.1119 29.6045 48.1116C29.6016 48.1116 29.5987 48.1116 29.5958 48.1116C29.082 48.1116 28.6633 48.5257 28.6585 49.0406C28.6538 49.5583 29.0697 49.9819 29.5874 49.9866C29.62 49.9869 29.6522 49.987 29.6849 49.987C31.8004 49.987 33.8185 49.3568 35.529 48.1839V48.4431C35.5291 48.961 35.9488 49.3807 36.4666 49.3807Z" fill="white"/>
<path d="M35.9543 27.4532C35.9717 27.467 35.9631 27.4602 35.9543 27.4532V27.4532Z" fill="white"/>
<path d="M57.6464 22.0451C57.3549 21.6171 56.7718 21.5065 56.3439 21.7978C55.9159 22.089 55.8052 22.6723 56.0965 23.1003C58.4457 26.5509 59.686 30.5822 59.6832 34.7585C59.6806 38.8157 58.5127 42.7482 56.306 46.1309C54.4783 48.9323 51.3658 50.6048 47.9799 50.6048C46.2173 50.6048 44.7365 49.3413 44.4593 47.6031L42.9452 37.9671C42.3722 35.9361 41.4889 33.9776 40.351 32.2473L42.9429 31.4543C43.438 31.3029 43.7166 30.7787 43.5651 30.2836C43.4137 29.7885 42.8893 29.51 42.3944 29.6614L39.1807 30.6445C38.2633 29.5096 37.1148 28.3853 35.9543 27.4532C35.9369 27.4393 35.9457 27.4462 35.9544 27.4532L38.709 25.3885C39.1233 25.078 39.2074 24.4904 38.8969 24.0761C38.5863 23.662 37.9989 23.5778 37.5844 23.8882L34.3578 26.3065C33.0033 25.429 31.5605 24.7224 30.0527 24.1954L32.6098 21.6383C32.9759 21.2722 32.9759 20.6786 32.6098 20.3124C32.2437 19.9464 31.6501 19.9464 31.284 20.3124L27.9979 23.5985C26.7718 23.3119 25.5124 23.1376 24.2304 23.0819C24.103 23.0763 23.9851 23.0234 23.8986 22.9329C23.7997 22.8294 23.7512 22.6894 23.7657 22.5492C24.2762 17.6058 28.4146 13.8782 33.3926 13.8782L38.6407 13.875C42.8425 13.875 46.904 15.1072 50.3861 17.4383C50.8163 17.7265 51.3987 17.611 51.6867 17.1809C51.9748 16.7506 51.8594 16.1683 51.4291 15.8803C47.6374 13.3418 43.2153 12 38.64 12L33.3922 12.0033C30.5158 12.0033 27.7595 13.0671 25.631 14.9985C23.5176 16.9162 22.1929 19.5294 21.9009 22.3568C21.8325 23.0187 22.0476 23.6752 22.4911 24.1707C21.4098 27.2349 21.1744 30.3684 21.8451 32.8545C21.7671 34.3369 19.8076 38.4126 18.5569 40.6932C18.419 40.9448 18.4037 41.2455 18.5157 41.5096C18.6276 41.7737 18.8541 41.9722 19.1308 42.0481L22.5161 42.9774L22.7377 44.9599C22.3153 45.7606 22.3177 46.7119 22.7321 47.5078C22.6103 47.9029 22.5948 48.3285 22.6942 48.7381C22.7986 49.1687 23.0241 49.5565 23.3368 49.8578V50.5815C23.3368 52.9994 25.304 54.9665 27.722 54.9665H32.9724L34.1872 59.3144C34.303 59.7288 34.6795 60 35.0896 60C35.1732 60 35.2581 59.9888 35.3424 59.9651C35.841 59.8258 36.1323 59.3086 35.993 58.81L34.8733 54.8022C36.6792 54.4589 38.3404 53.5848 39.6687 52.2566C40.0348 51.8905 40.0348 51.2969 39.6687 50.9307C39.3026 50.5647 38.709 50.5647 38.3428 50.9307C36.9493 52.3242 35.0967 53.0916 33.126 53.0916H27.722C26.3378 53.0916 25.2118 51.9656 25.2118 50.5816V49.394C25.2118 49.0516 25.0251 48.7363 24.7246 48.5718C24.5827 48.494 24.5332 48.3657 24.5163 48.2961C24.4991 48.2254 24.4842 48.0863 24.5769 47.9489C24.8129 47.5993 24.7864 47.1352 24.5123 46.8148C24.2494 46.5077 24.2291 46.0496 24.4641 45.7256C24.6011 45.5365 24.6627 45.3032 24.6368 45.0712L24.3088 42.1375C24.2662 41.7561 23.9954 41.4392 23.6253 41.3376L20.757 40.5503C21.7741 38.5933 23.7474 34.5544 23.7223 32.7218C23.7212 32.6388 23.709 32.5564 23.6862 32.4768C23.0855 30.3775 23.2756 27.6642 24.2018 24.9582C32.1422 25.326 38.9275 30.7065 41.1136 38.3684L42.6074 47.8962C42.9038 49.7555 44.1006 51.2568 45.7143 51.9909L48.3339 59.3758C48.4703 59.7603 48.8317 60.0002 49.2175 60.0002C49.3215 60.0002 49.4273 59.9827 49.5309 59.946C50.0189 59.7728 50.2741 59.237 50.1011 58.749L47.8764 52.4776C47.9109 52.4783 47.9452 52.48 47.9799 52.48C52.0017 52.48 55.7013 50.4896 57.8764 47.1556C60.2822 43.4678 61.5553 39.1814 61.5582 34.76C61.5612 30.205 60.2085 25.8084 57.6464 22.0451Z" fill="white"/>
<path d="M42.9452 37.967C42.9553 38.0029 42.9393 37.9302 42.9452 37.967V37.967Z" fill="white"/>
<path d="M54.1738 20.2677C54.4204 20.2677 54.6613 20.1675 54.8357 19.993C55.011 19.8177 55.1104 19.5758 55.1104 19.3293C55.1104 19.0827 55.011 18.8418 54.8357 18.6665C54.6622 18.4922 54.4204 18.3927 54.1738 18.3927C53.9263 18.3927 53.6844 18.4922 53.51 18.6665C53.3357 18.8408 53.2354 19.0827 53.2354 19.3293C53.2354 19.5768 53.3357 19.8186 53.51 19.993C53.6854 20.1675 53.9263 20.2677 54.1738 20.2677Z" fill="white"/>
</g>
<rect x="0.5" y="0.513916" width="78" height="71" rx="10.5" stroke="white" stroke-opacity="0.5"/>
<defs>
<clipPath id="clip0">
<rect width="48" height="48" fill="white" transform="translate(16 12)"/>
</clipPath>
</defs>
</svg>
