<svg width="128" height="142" viewBox="0 0 128 142" fill="none" xmlns="http://www.w3.org/2000/svg">
<path d="M41.2218 44.258C47.8407 47.246 53.5903 51.4 58.3355 56.625C60.3119 58.8014 62.0445 61.1384 63.5117 63.6032C64.9643 61.0302 66.6796 58.5897 68.6364 56.3154C73.1019 51.1241 78.7692 47.0088 85.5035 44.0647C79.3602 31.1496 67.3607 19.8783 63.3514 16.3314C59.3494 19.809 47.4223 30.8788 41.2218 44.258ZM63.8907 96.4236C64.7265 93.0909 66.3585 84.3417 63.5892 74.6554C60.8581 84.3462 62.1835 93.0457 62.9046 96.4236H63.8907ZM65.9395 68.3528C72.0631 82.5167 68.5652 96.0522 67.7387 98.8075L69.8948 97.1865C70.0948 97.0338 90.2125 81.47 89.157 57.3518C89.0301 54.4323 88.3676 51.3161 87.1863 48.0643C81.0795 50.7457 75.9526 54.468 71.9279 59.1471C69.5056 61.9627 67.4934 65.0564 65.9395 68.3528ZM39.5707 48.2739C37.7476 53.3707 37.0729 58.2367 37.5658 62.7613C38.8682 74.7312 42.2358 83.3659 57.0246 97.3434L59.171 99.3729L59.1283 99.2329C59.0831 99.0878 54.594 84.2281 61.1753 68.3916C59.6109 65.2203 57.5769 62.2478 55.1212 59.5434C50.8108 54.7973 45.5861 51.0123 39.5707 48.2739ZM18.1615 43.39C16.5677 48.595 11.9089 66.8893 19.4799 82.5827C24.0821 92.1214 34.2388 98.6564 37.1029 100.359C39.2617 99.777 44.3804 98.407 45.5582 98.1768C47.4014 97.8163 49.2176 97.5291 50.769 97.3104C37.7406 84.1941 34.5663 75.3274 33.249 63.2306C32.6801 58.0001 33.4541 52.4273 35.5509 46.6419C27.8832 43.8866 21.2125 43.4327 18.1615 43.39ZM76.172 97.4013C79.3857 97.9251 84.0299 98.8348 89.7033 100.375C93.0657 98.6112 106.476 90.7215 110.017 75.4782C113.399 60.9145 109.914 47.6077 108.591 43.4009C105.764 43.4558 98.8663 43.8811 91.2277 46.4919C92.5852 50.1958 93.3474 53.7776 93.4953 57.1625C94.362 76.9666 82.3776 91.3344 76.172 97.4013ZM35.7696 104.601C35.6272 104.524 21.5227 96.8075 15.5701 84.4683C5.87626 64.376 14.4595 40.718 14.5473 40.4817L15.0372 39.1542L16.452 39.0697C16.4647 39.0684 16.8815 39.0448 17.6223 39.0448C20.6402 39.0448 28.3385 39.4084 37.2032 42.6254C45.1335 25.3693 61.8397 11.9183 62.0127 11.7802L63.3853 10.6886L64.7414 11.7987C64.9137 11.9398 81.7105 25.7838 89.5494 42.4818C98.6824 39.3111 106.894 39.0524 109.297 39.0524C109.897 39.0524 110.234 39.0669 110.263 39.0684L111.661 39.1357L112.173 40.4481C112.241 40.6241 118.634 57.5672 114.246 76.461C109.76 95.7714 91.0275 104.575 90.8393 104.662L90.1141 104.993L89.3518 104.781C78.4232 101.75 71.3111 101.11 71.0136 101.084L67.0719 100.761L67.0707 100.766H59.5994L59.5888 100.731L55.731 101.084C55.542 101.101 51.0307 101.53 46.3904 102.437C45.3834 102.635 40.0503 104.058 37.3713 104.784L36.5345 105.013L35.7696 104.601Z" fill="#F03861"/>
<path d="M38.7815 45.2151C44.8687 47.7205 51.3382 51.6656 56.9689 57.8661C59.8317 61.0186 61.9709 64.2983 63.5514 67.568C65.1122 64.1904 67.2192 60.7923 70.0348 57.5195C75.3274 51.3666 81.7899 47.4836 87.9686 45.0373C81.1916 29.2624 65.3482 15.5742 63.3632 13.901C61.3786 15.536 45.6712 28.8319 38.7815 45.2151ZM61.4483 98.2693H65.2933C65.8738 96.4098 69.6616 83.0452 63.5635 69.1504C57.6787 83.107 60.9308 96.3729 61.4483 98.2693ZM16.8158 41.5534C16.0187 43.8661 9.0736 65.2602 17.8177 83.3848C23.1523 94.4416 35.5297 101.605 36.842 102.341C37.8915 102.057 44.6179 100.241 45.9115 99.9886C49.6711 99.253 53.3035 98.8277 54.7943 98.6692C39.8782 84.4433 36.437 75.4654 35.0834 63.0314C34.4363 57.0832 35.6733 51.1548 37.9378 45.5732C27.4951 41.418 18.32 41.5037 16.8158 41.5534ZM72.0197 98.6795C74.2079 98.9289 80.7738 99.8201 89.902 102.343C91.3789 101.626 107.773 93.2928 111.813 75.8962C115.783 58.8049 110.61 43.4759 109.92 41.5552C108.4 41.521 99.0744 41.4846 88.8211 45.4009C90.4252 49.2765 91.4773 53.27 91.6515 57.2435C92.661 80.318 75.5403 95.7582 72.0197 98.6795ZM36.7593 103.038L36.6448 102.977C36.5082 102.903 22.9306 95.4798 17.2318 83.6671C7.89936 64.3244 16.1917 41.3537 16.2769 41.1241L16.3505 40.9245L16.5622 40.9117C16.7155 40.9011 26.6941 40.3994 38.1859 44.9737C45.5758 27.4053 62.9309 13.409 63.1633 13.2239L63.3684 13.0603L63.572 13.2269C63.7904 13.4057 81.3021 27.8879 88.5693 44.8031C99.8418 40.4943 110.009 40.9036 110.166 40.9117L110.377 40.922L110.454 41.119C110.517 41.2826 116.719 57.6537 112.448 76.0437C108.163 94.4913 90.2483 102.903 90.0686 102.985L89.9599 103.035L89.8453 103.003C78.5971 99.8844 71.2454 99.2524 71.1724 99.2461L70.319 99.1761L71.003 98.6617C71.2148 98.5029 92.1047 82.5029 91.0005 57.2714C90.8302 53.3712 89.7972 49.4462 88.2203 45.6341C82.1222 48.048 75.7478 51.8764 70.5283 57.9442C67.6164 61.3288 65.4736 64.8503 63.9146 68.3412C70.9161 83.6638 65.9013 98.5199 65.8371 98.7023L65.7608 98.9204H60.962L60.8915 98.6911C60.8348 98.5093 56.4478 83.7604 63.2005 68.3475C61.6246 64.9666 59.4491 61.5648 56.4872 58.3032C50.9286 52.183 44.5439 48.2889 38.5343 45.8147C36.3091 51.3045 35.0955 57.1259 35.7305 62.9614C37.0823 75.3787 40.5508 84.3136 55.7567 98.6853L56.2806 99.1806L55.5629 99.2461C55.5162 99.2506 50.8829 99.6796 46.036 100.627C44.6851 100.891 36.962 102.983 36.8844 103.004L36.7593 103.038Z" fill="white"/>
<path d="M63.5384 4.77554C63.0801 4.77554 62.7074 5.14817 62.7074 5.60593C62.7074 6.06429 63.0801 6.43662 63.5384 6.43662C63.9962 6.43662 64.3688 6.06429 64.3688 5.60593C64.3688 5.14817 63.9962 4.77554 63.5384 4.77554ZM63.5384 10.7788C60.6858 10.7788 58.3652 8.45851 58.3652 5.60593C58.3652 2.75395 60.6858 0.433353 63.5384 0.433353C66.3904 0.433353 68.7107 2.75395 68.7107 5.60593C68.7107 8.45851 66.3904 10.7788 63.5384 10.7788Z" fill="#F03861"/>
<path d="M63.5385 2.92984C62.0629 2.92984 60.862 4.13013 60.862 5.6058C60.862 7.08117 62.0629 8.28206 63.5385 8.28206C65.0142 8.28206 66.2145 7.08117 66.2145 5.6058C66.2145 4.13013 65.0142 2.92984 63.5385 2.92984ZM63.5385 8.93311C61.7036 8.93311 60.2109 7.44047 60.2109 5.6058C60.2109 3.77144 61.7036 2.2788 63.5385 2.2788C65.3726 2.2788 66.8652 3.77144 66.8652 5.6058C66.8652 7.44047 65.3726 8.93311 63.5385 8.93311Z" fill="white"/>
<path d="M112.647 41.4878C110.28 41.4878 108.354 39.5613 108.354 37.1941C108.354 34.8265 110.28 32.9001 112.647 32.9001C115.014 32.9001 116.94 34.8265 116.94 37.1941C116.94 39.5613 115.014 41.4878 112.647 41.4878Z" fill="#F03861"/>
<path d="M112.647 35.3965C111.656 35.3965 110.85 36.2027 110.85 37.1939C110.85 38.1849 111.656 38.991 112.647 38.991C113.638 38.991 114.444 38.1849 114.444 37.1939C114.444 36.2027 113.638 35.3965 112.647 35.3965ZM112.647 39.6421C111.297 39.6421 110.199 38.5436 110.199 37.1939C110.199 35.844 111.297 34.7455 112.647 34.7455C113.996 34.7455 115.095 35.844 115.095 37.1939C115.095 38.5436 113.996 39.6421 112.647 39.6421Z" fill="white"/>
<path d="M13.9413 41.4878C11.5744 41.4878 9.64819 39.5613 9.64819 37.1941C9.64819 34.8265 11.5744 32.9001 13.9413 32.9001C16.3089 32.9001 18.235 34.8265 18.235 37.1941C18.235 39.5613 16.3089 41.4878 13.9413 41.4878Z" fill="#F03861"/>
<path d="M13.9412 35.3965C12.9505 35.3965 12.1444 36.2027 12.1444 37.1939C12.1444 38.1849 12.9505 38.991 13.9412 38.991C14.9321 38.991 15.7386 38.1849 15.7386 37.1939C15.7386 36.2027 14.9321 35.3965 13.9412 35.3965ZM13.9412 39.6421C12.5915 39.6421 11.4937 38.5436 11.4937 37.1939C11.4937 35.844 12.5915 34.7455 13.9412 34.7455C15.2908 34.7455 16.3896 35.844 16.3896 37.1939C16.3896 38.5436 15.2908 39.6421 13.9412 39.6421Z" fill="white"/>
<path d="M7.03936 136.071V126.935H7.82188V138.495L0.781915 128.742V137.885H0V126.325L7.03936 136.071Z" fill="#F35B70"/>
<path d="M9.91741 137.885H9.1355V130.064H9.91741V137.885ZM9.1355 126.935H9.91741V127.717H9.1355V126.935Z" fill="#F35B70"/>
<path d="M12.006 137.885H11.2241V126.935L12.006 127.717V137.885Z" fill="#F35B70"/>
<path d="M16.4408 137.103C17.3063 137.103 18.0443 136.798 18.6542 136.188C19.2643 135.578 19.5694 134.84 19.5694 133.974C19.5694 133.109 19.2643 132.371 18.6542 131.761C18.0443 131.151 17.3063 130.846 16.4408 130.846C15.575 130.846 14.8376 131.151 14.2275 131.761C13.617 132.371 13.3119 133.109 13.3119 133.974C13.3119 134.84 13.617 135.578 14.2275 136.188C14.8376 136.798 15.575 137.103 16.4408 137.103ZM16.4408 137.885C15.3614 137.885 14.4395 137.504 13.6761 136.739C12.9117 135.976 12.53 135.054 12.53 133.974C12.53 132.895 12.9117 131.973 13.6761 131.209C14.4395 130.446 15.3614 130.064 16.4408 130.064C17.5202 130.064 18.4415 130.446 19.2058 131.209C19.9693 131.973 20.3516 132.895 20.3516 133.974C20.3516 135.054 19.9693 135.976 19.2058 136.739C18.4415 137.504 17.5202 137.885 16.4408 137.885Z" fill="#F35B70"/>
<path d="M24.6925 137.103C25.5581 137.103 26.296 136.798 26.9059 136.188C27.516 135.578 27.8211 134.84 27.8211 133.974C27.8211 133.109 27.516 132.371 26.9059 131.761C26.296 131.151 25.5581 130.846 24.6925 130.846C23.8267 130.846 23.0893 131.151 22.4792 131.761C21.8687 132.371 21.5637 133.109 21.5637 133.974C21.5637 134.84 21.8687 135.578 22.4792 136.188C23.0893 136.798 23.8267 137.103 24.6925 137.103ZM24.6925 137.885C23.6131 137.885 22.6912 137.504 21.9278 136.739C21.1635 135.976 20.7817 135.054 20.7817 133.974C20.7817 132.895 21.1635 131.973 21.9278 131.209C22.6912 130.446 23.6131 130.064 24.6925 130.064C25.7719 130.064 26.6932 130.446 27.4576 131.209C28.221 131.973 28.6033 132.895 28.6033 133.974C28.6033 135.054 28.221 135.976 27.4576 136.739C26.6932 137.504 25.7719 137.885 24.6925 137.885Z" fill="#F35B70"/>
<path d="M33.0224 126.935H34.5865L33.8046 127.717H33.0224C32.1565 127.717 31.4191 128.022 30.809 128.633C30.1986 129.243 29.8935 129.98 29.8935 130.846V131.628H33.8046V132.41H29.8935V137.885H29.1116V130.846C29.1116 129.766 29.4933 128.845 30.2576 128.081C31.0211 127.317 31.9429 126.935 33.0224 126.935Z" fill="#F35B70"/>
<path d="M43.5898 133.974V137.885H42.8079V133.974C42.8079 132.895 43.1896 131.974 43.9536 131.21C44.7174 130.446 45.6389 130.064 46.7186 130.064H48.2828L47.5006 130.846H46.7186C45.8528 130.846 45.1151 131.151 44.5053 131.761C43.8948 132.371 43.5898 133.109 43.5898 133.974Z" fill="#F35B70"/>
<path d="M54.5404 137.103C55.406 137.103 56.1439 136.798 56.7538 136.188C57.3639 135.578 57.669 134.84 57.669 133.974C57.669 133.109 57.3639 132.371 56.7538 131.761C56.1439 131.151 55.406 130.846 54.5404 130.846C53.6746 130.846 52.9372 131.151 52.3271 131.761C51.7166 132.371 51.4116 133.109 51.4116 133.974C51.4116 134.84 51.7166 135.578 52.3271 136.188C52.9372 136.798 53.6746 137.103 54.5404 137.103ZM51.4116 131.62C51.5212 131.479 51.6436 131.341 51.7793 131.205C52.5407 130.445 53.461 130.064 54.5404 130.064C55.6198 130.064 56.5411 130.446 57.3055 131.209C58.0689 131.973 58.4512 132.895 58.4512 133.974C58.4512 135.054 58.0689 135.976 57.3055 136.739C56.5411 137.504 55.6198 137.885 54.5404 137.885C53.461 137.885 52.5391 137.504 51.7757 136.739C51.0114 135.976 50.6296 135.054 50.6296 133.974V126.935L51.4116 127.717V131.62Z" fill="#F35B70"/>
<path d="M65.8969 133.584C65.8184 132.885 65.5212 132.277 65.0053 131.761C64.3952 131.151 63.6572 130.846 62.7916 130.846C61.9261 130.846 61.1884 131.151 60.5783 131.761C60.0621 132.277 59.7649 132.885 59.6867 133.584H65.8969ZM59.6867 134.366C59.7649 135.065 60.0621 135.672 60.5783 136.188C61.1884 136.798 61.9261 137.103 62.7916 137.103C63.6572 137.103 64.3952 136.798 65.0053 136.188C65.318 135.875 65.55 135.528 65.7015 135.148H66.5304C66.3531 135.737 66.0299 136.266 65.5606 136.736C64.7938 137.502 63.8711 137.885 62.7916 137.885C61.7122 137.885 60.7907 137.504 60.0269 136.739C59.2629 135.976 58.8809 135.054 58.8809 133.974C58.8809 132.895 59.2629 131.974 60.0269 131.21C60.7907 130.446 61.7122 130.064 62.7916 130.064C63.8711 130.064 64.7926 130.446 65.5567 131.21C66.3204 131.974 66.7027 132.895 66.7027 133.974C66.7027 134.105 66.6973 134.235 66.6867 134.366H59.6867Z" fill="#F35B70"/>
<path d="M75.4707 133.974V130.064H76.2529V133.974C76.2529 134.84 76.5577 135.578 77.1681 136.188C77.7783 136.798 78.5157 137.103 79.3818 137.103C80.247 137.103 80.985 136.798 81.5951 136.188C82.205 135.578 82.5101 134.84 82.5101 133.974V130.846L83.2926 130.064V133.974C83.2926 135.054 82.9103 135.976 82.1465 136.739C81.3825 137.504 80.4609 137.885 79.3818 137.885C78.3021 137.885 77.3805 137.504 76.6168 136.739C75.8527 135.976 75.4707 135.054 75.4707 133.974Z" fill="#F35B70"/>
<path d="M88.0636 137.103H88.8455L89.6278 137.885H88.0636C86.9839 137.885 86.0623 137.504 85.2986 136.739C84.5345 135.976 84.1528 135.054 84.1528 133.974V126.935H84.9347V130.064H88.8455V130.846H84.9347V133.974C84.9347 134.84 85.2398 135.578 85.8503 136.188C86.4601 136.798 87.1978 137.103 88.0636 137.103Z" fill="#F35B70"/>
<path d="M97.4437 137.103C97.4437 138.182 97.0614 139.104 96.2976 139.868C95.5336 140.632 94.612 141.014 93.5326 141.014C92.4532 141.014 91.5331 140.631 90.7718 139.864L91.3193 139.317C91.9294 139.927 92.6668 140.232 93.5326 140.232C94.3981 140.232 95.1361 139.927 95.7463 139.317C96.3561 138.706 96.6612 137.969 96.6612 137.103V136.329C96.5515 136.469 96.4318 136.605 96.3016 136.735C95.5348 137.502 94.612 137.885 93.5326 137.885C92.4532 137.885 91.5313 137.503 90.7679 136.739C90.0035 135.976 89.6218 135.054 89.6218 133.974V130.064H90.404V133.974C90.404 134.84 90.7091 135.578 91.3193 136.188C91.9294 136.798 92.6668 137.103 93.5326 137.103C94.3981 137.103 95.1361 136.798 95.7463 136.188C96.3561 135.578 96.6612 134.84 96.6612 133.974V130.846L97.4437 130.064V137.103Z" fill="#F35B70"/>
<path d="M105.772 135.211L106.491 135.523C106.298 135.966 106.019 136.371 105.654 136.736C104.888 137.502 103.965 137.885 102.885 137.885C101.806 137.885 100.884 137.504 100.12 136.739C99.3564 135.976 98.9744 135.054 98.9744 133.974C98.9744 132.895 99.3564 131.973 100.12 131.209C100.884 130.446 101.806 130.064 102.885 130.064C103.965 130.064 104.888 130.445 105.654 131.205C106.019 131.576 106.298 131.983 106.491 132.426L105.772 132.739C105.62 132.384 105.396 132.058 105.099 131.761C104.489 131.151 103.751 130.846 102.885 130.846C102.02 130.846 101.282 131.151 100.672 131.761C100.062 132.371 99.7566 133.109 99.7566 133.974C99.7566 134.84 100.062 135.578 100.672 136.188C101.282 136.798 102.02 137.103 102.885 137.103C103.751 137.103 104.489 136.798 105.099 136.188C105.396 135.891 105.62 135.565 105.772 135.211Z" fill="#F35B70"/>
<path d="M107.586 137.885H106.803V126.935L107.586 127.717V137.885Z" fill="#F35B70"/>
<path d="M109.627 137.885H108.845V130.064H109.627V137.885ZM108.845 126.935H109.627V127.717H108.845V126.935Z" fill="#F35B70"/>
<path d="M118.317 133.974V137.885H117.535V133.974C117.535 133.109 117.23 132.371 116.62 131.761C116.01 131.151 115.272 130.846 114.406 130.846C113.54 130.846 112.803 131.151 112.193 131.761C111.583 132.371 111.278 133.109 111.278 133.974V137.103L110.495 137.885V133.974C110.495 132.895 110.877 131.974 111.641 131.21C112.405 130.446 113.327 130.064 114.406 130.064C115.486 130.064 116.407 130.446 117.171 131.21C117.935 131.974 118.317 132.895 118.317 133.974Z" fill="#F35B70"/>
<path d="M119.959 137.885H119.177V130.064H119.959V137.885ZM119.178 126.935H119.96V127.717H119.178V126.935Z" fill="#F35B70"/>
<path d="M127.281 135.211L128 135.523C127.807 135.966 127.528 136.371 127.164 136.736C126.397 137.502 125.474 137.885 124.395 137.885C123.315 137.885 122.393 137.504 121.63 136.739C120.866 135.976 120.484 135.054 120.484 133.974C120.484 132.895 120.866 131.973 121.63 131.209C122.393 130.446 123.315 130.064 124.395 130.064C125.474 130.064 126.397 130.445 127.164 131.205C127.528 131.576 127.807 131.983 128 132.426L127.281 132.739C127.129 132.384 126.905 132.058 126.608 131.761C125.998 131.151 125.26 130.846 124.395 130.846C123.529 130.846 122.791 131.151 122.181 131.761C121.571 132.371 121.266 133.109 121.266 133.974C121.266 134.84 121.571 135.578 122.181 136.188C122.791 136.798 123.529 137.103 124.395 137.103C125.26 137.103 125.998 136.798 126.608 136.188C126.905 135.891 127.129 135.565 127.281 135.211Z" fill="#F35B70"/>
<path d="M38.0292 130.967C36.3708 130.967 35.0218 132.316 35.0218 133.974C35.0218 135.632 36.3708 136.982 38.0292 136.982H41.0363V133.974C41.0363 132.316 39.6872 130.967 38.0292 130.967ZM41.8351 137.78H38.0292C35.9303 137.78 34.2229 136.073 34.2229 133.974C34.2229 131.875 35.9303 130.168 38.0292 130.168C40.128 130.168 41.8351 131.875 41.8351 133.974V137.78Z" fill="#F35B70"/>
<path d="M71.0438 130.967C69.3855 130.967 68.0361 132.316 68.0361 133.974C68.0361 135.632 69.3855 136.982 71.0438 136.982H74.0509V133.974C74.0509 132.316 72.7019 130.967 71.0438 130.967ZM74.8498 137.78H71.0438C68.945 137.78 67.2375 136.073 67.2375 133.974C67.2375 131.875 68.945 130.168 71.0438 130.168C73.1427 130.168 74.8498 131.875 74.8498 133.974V137.78Z" fill="#F35B70"/>
<path d="M115.155 115.444C115.155 114.579 114.849 113.841 114.239 113.231C113.629 112.621 112.892 112.316 112.026 112.316C111.16 112.316 110.422 112.621 109.812 113.231C109.202 113.841 108.897 114.579 108.897 115.444C108.897 116.31 109.202 117.048 109.812 117.658C110.422 118.268 111.16 118.573 112.026 118.573C112.892 118.573 113.629 118.268 114.239 117.658C114.849 117.048 115.155 116.31 115.155 115.444ZM109.671 118.573C109.531 118.463 109.392 118.341 109.257 118.205C108.496 117.444 108.115 116.524 108.115 115.444C108.115 114.365 108.497 113.444 109.261 112.679C110.025 111.916 110.946 111.533 112.026 111.533C113.105 111.533 114.027 111.916 114.791 112.679C115.555 113.444 115.936 114.365 115.936 115.444C115.936 116.524 115.555 117.445 114.791 118.209C114.027 118.973 113.105 119.355 112.026 119.355H99.3948L100.177 118.573H109.671Z" fill="#F35B70"/>
<path d="M82.1117 118.59V113.88H82.8936V118.59C82.8936 119.669 82.5119 120.59 81.7479 121.355C80.9841 122.118 80.0622 122.5 78.9828 122.5H77.4187L78.2006 121.718H78.9828C79.8487 121.718 80.586 121.413 81.1962 120.803C81.8066 120.193 82.1117 119.455 82.1117 118.59Z" fill="#F35B70"/>
<path d="M106.103 115.549C106.103 113.891 104.754 112.542 103.096 112.542C101.437 112.542 100.088 113.891 100.088 115.549V118.556H103.096C104.754 118.556 106.103 117.207 106.103 115.549ZM99.2891 119.355V115.549C99.2891 113.45 100.997 111.743 103.096 111.743C105.194 111.743 106.902 113.45 106.902 115.549C106.902 117.648 105.194 119.355 103.096 119.355H99.2891Z" fill="#F35B70"/>
<path d="M100.071 119.355H99.2888V108.405L100.071 109.187V119.355Z" fill="#F35B70"/>
<path d="M106.867 118.573V119.355H95.9165L96.6987 118.573H106.867Z" fill="#F35B70"/>
<path d="M85.9919 115.372V113.858H86.7739V115.372C86.7739 116.238 87.0789 116.976 87.6894 117.586C88.2707 118.168 88.9684 118.472 89.7825 118.499C89.8224 118.501 93.4569 118.501 93.4972 118.501C94.3628 118.501 95.1008 118.196 95.7109 117.586C96.3207 116.976 96.6258 116.238 96.6258 115.372V114.64L97.4083 113.858V115.372C97.4083 116.452 97.026 117.374 96.2623 118.137C95.4982 118.901 94.5766 119.283 93.4972 119.283C93.4488 119.283 89.8055 119.283 89.7576 119.281C88.7403 119.248 87.8669 118.867 87.138 118.137C86.3737 117.374 85.9919 116.452 85.9919 115.372Z" fill="#F35B70"/>
<path d="M91.3091 121.643H92.091V122.425H91.3091V121.643Z" fill="#F35B70"/>
<path d="M82.1116 111.534H82.8935V112.316H82.1116V111.534Z" fill="#F35B70"/>
<path d="M71.0552 121.643H71.8371V122.425H71.0552V121.643Z" fill="#F35B70"/>
<path d="M74.7494 122.425H75.8028L76.5995 121.643H74.7494H73.696V122.425H74.7494Z" fill="#F35B70"/>
<path d="M63.2169 122.425H64.2703L65.0674 121.643H63.2169H62.1636V122.425H63.2169Z" fill="#F35B70"/>
<path d="M61.2482 122.423H57.7897C56.6342 122.423 55.5485 121.972 54.7326 121.153C53.9168 120.335 53.4699 119.248 53.4742 118.092C53.4826 115.72 55.4188 113.792 57.7897 113.792H62.0988V118.963L63.4667 118.956C65.0496 118.956 66.3353 117.67 66.3353 116.089V113.921H67.1342V116.089C67.1342 118.111 65.4898 119.755 63.4688 119.755L61.3 119.765V114.59H57.7897C55.8578 114.59 54.28 116.162 54.273 118.095C54.2694 119.036 54.6338 119.922 55.2982 120.59C55.9632 121.256 56.8478 121.624 57.7897 121.624H61.2482V122.423Z" fill="#F35B70"/>
<path d="M73.6963 119.557L74.4912 118.758L76.2608 118.75C77.8434 118.75 79.1294 117.464 79.1294 115.883V113.921H79.9283V115.883C79.9283 117.904 78.2839 119.549 76.2626 119.549L73.6963 119.557Z" fill="#F35B70"/>
<path d="M71.4652 119.557C70.5603 119.557 69.7081 119.208 69.0622 118.571C68.4084 117.927 68.0458 117.067 68.0407 116.149L67.9998 108.394L68.7986 109.187L68.8395 116.145C68.8435 116.849 69.1216 117.509 69.6227 118.003C70.1243 118.497 70.7939 118.763 71.4913 118.758C72.1932 118.751 72.8506 118.471 73.3423 117.97C73.8337 117.469 74.1006 116.806 74.0936 116.105L74.0669 113.926L74.8658 113.916L74.8925 116.096C74.9013 117.012 74.5535 117.876 73.9127 118.53C73.2714 119.183 72.4144 119.548 71.4991 119.557H71.4652Z" fill="#F35B70"/>
<path d="M24.9859 115.571C24.9859 114.706 24.6808 113.968 24.0707 113.358C23.4605 112.748 22.7228 112.443 21.857 112.443C20.9915 112.443 20.2535 112.748 19.6436 113.358C19.0335 113.968 18.7284 114.706 18.7284 115.571C18.7284 116.437 19.0335 117.175 19.6436 117.785C20.2535 118.395 20.9915 118.7 21.857 118.7C22.7228 118.7 23.4605 118.395 24.0707 117.785C24.6808 117.175 24.9859 116.437 24.9859 115.571ZM19.5028 118.7C19.3619 118.59 19.2237 118.468 19.088 118.332C18.3273 117.571 17.9462 116.651 17.9462 115.571C17.9462 114.492 18.3282 113.57 19.092 112.806C19.856 112.042 20.7779 111.66 21.857 111.66C22.9367 111.66 23.8583 112.042 24.622 112.806C25.3861 113.57 25.7681 114.492 25.7681 115.571C25.7681 116.651 25.3861 117.572 24.622 118.336C23.8583 119.1 22.9367 119.482 21.857 119.482H15.6165L15.5999 118.7H19.5028Z" fill="#F35B70"/>
<path d="M36.4949 119.535C38.2017 119.535 39.5901 118.146 39.5901 116.439V115.358L38.81 115.598L38.7915 116.439C38.7915 117.706 37.7612 118.736 36.4949 118.736V119.535Z" fill="#F35B70"/>
<path d="M15.2172 118.558V113.848H15.9994V118.558C15.9994 119.637 15.6174 120.559 14.8533 121.323C14.0896 122.086 13.168 122.469 12.0883 122.469H10.5242L11.3064 121.686H12.0883C12.9541 121.686 13.6918 121.381 14.302 120.771C14.9121 120.161 15.2172 119.423 15.2172 118.558Z" fill="#F35B70"/>
<path d="M49.9177 111.507H50.6996V112.289H49.9177V111.507Z" fill="#F35B70"/>
<path d="M21.4661 108.422H22.2483V109.204H21.4661V108.422Z" fill="#F35B70"/>
<path d="M41.3058 122.453H42.3592L43.1559 121.67H41.3058H40.2524V122.453H41.3058Z" fill="#F35B70"/>
<path d="M33.7531 118.496V115.784H34.535V118.496C34.535 119.576 34.1533 120.497 33.3889 121.261C32.6255 122.025 31.7036 122.407 30.6242 122.407H29.0601L29.842 121.625H30.6242C31.49 121.625 32.2274 121.32 32.8375 120.71C33.448 120.1 33.7531 119.362 33.7531 118.496Z" fill="#F35B70"/>
<path d="M44.4678 119.43L45.2627 118.631L47.0322 118.623C48.6149 118.623 49.9009 117.337 49.9009 115.756V113.794H50.6998V115.756C50.6998 117.777 49.0554 119.422 47.0341 119.422L44.4678 119.43Z" fill="#F35B70"/>
<path d="M42.2367 119.43C41.3318 119.43 40.4796 119.081 39.8337 118.445C39.1799 117.801 38.8173 116.941 38.8121 116.023L38.7712 108.268L39.5701 109.06L39.611 116.019C39.615 116.722 39.8931 117.382 40.3941 117.876C40.8958 118.37 41.5654 118.636 42.2627 118.631C42.965 118.625 43.6221 118.345 44.1138 117.844C44.6055 117.343 44.8721 116.68 44.8651 115.978L44.8384 113.799L45.6373 113.79L45.664 115.969C45.6728 116.886 45.325 117.749 44.6842 118.403C44.0429 119.057 43.1861 119.422 42.2706 119.43H42.2367Z" fill="#F35B70"/>
<path d="M30.5985 112.441C28.8584 112.441 27.4421 113.857 27.4421 115.598C27.4421 117.338 28.8584 118.754 30.5985 118.754H33.7544V115.598C33.7544 113.857 32.3387 112.441 30.5985 112.441ZM34.5351 119.535H30.5985C28.4276 119.535 26.6614 117.768 26.6614 115.598C26.6614 113.427 28.4276 111.66 30.5985 111.66C32.7698 111.66 34.5351 113.427 34.5351 115.598V119.535Z" fill="#F35B70"/>
<path d="M36.4951 119.535H34.1448V118.754H36.4951V119.535Z" fill="#F35B70"/>
</svg>
