<svg width="20" height="20" viewBox="0 0 20 20" fill="none" xmlns="http://www.w3.org/2000/svg">
<path d="M19.4557 14.678L16.6646 11.8869C15.6678 10.8901 13.9732 11.2889 13.5745 12.5847C13.2754 13.4819 12.2786 13.9803 11.3815 13.7809C9.3879 13.2825 6.69652 10.6908 6.19812 8.59746C5.89907 7.7003 6.49716 6.70349 7.39428 6.40448C8.69013 6.00576 9.08886 4.31119 8.09205 3.31438L5.30099 0.523324C4.50354 -0.174441 3.30738 -0.174441 2.60961 0.523324L0.715678 2.41726C-1.17826 4.41087 0.915039 9.69395 5.60003 14.3789C10.285 19.0639 15.5681 21.2569 17.5617 19.2633L19.4557 17.3694C20.1535 16.5719 20.1535 15.3757 19.4557 14.678Z" fill="#686868"/>
</svg>
