<svg width="532" height="514" viewBox="0 0 532 514" fill="none" xmlns="http://www.w3.org/2000/svg">
<path d="M492.537 242.9C492.728 245.791 492.86 248.698 492.933 251.619C492.657 251.625 492.439 251.854 492.445 252.13C492.482 253.749 492.5 255.372 492.5 257C492.5 258.628 492.482 260.251 492.445 261.87C492.439 262.146 492.657 262.374 492.933 262.381C492.86 265.302 492.728 268.209 492.537 271.1C492.262 271.082 492.024 271.29 492.005 271.565C491.784 274.806 491.489 278.028 491.123 281.229C491.092 281.503 491.289 281.751 491.563 281.782C491.224 284.682 490.827 287.564 490.372 290.428C490.1 290.384 489.844 290.57 489.8 290.842C489.283 294.048 488.694 297.231 488.034 300.389C487.978 300.659 488.151 300.924 488.421 300.98C487.818 303.837 487.156 306.672 486.439 309.487C486.172 309.418 485.899 309.579 485.831 309.846C485.022 312.989 484.142 316.104 483.194 319.191C483.113 319.455 483.261 319.734 483.524 319.815C482.661 322.601 481.742 325.363 480.769 328.101C480.509 328.008 480.223 328.143 480.13 328.403C479.037 331.455 477.875 334.476 476.647 337.465C476.542 337.72 476.664 338.012 476.919 338.117C475.806 340.81 474.638 343.476 473.418 346.115C473.168 345.999 472.871 346.108 472.755 346.358C471.388 349.295 469.957 352.198 468.462 355.065C468.334 355.31 468.429 355.611 468.673 355.739C467.321 358.318 465.917 360.868 464.463 363.387C464.224 363.249 463.918 363.331 463.78 363.569C462.155 366.37 460.468 369.132 458.72 371.855C458.571 372.087 458.638 372.396 458.87 372.546C457.292 374.992 455.666 377.406 453.992 379.787C453.766 379.628 453.455 379.682 453.296 379.907C451.428 382.551 449.502 385.152 447.519 387.711C447.35 387.929 447.389 388.243 447.607 388.412C445.819 390.708 443.986 392.969 442.108 395.194C441.897 395.016 441.582 395.042 441.403 395.252C439.311 397.72 437.164 400.142 434.963 402.518C434.776 402.721 434.788 403.037 434.99 403.225C433.009 405.354 430.985 407.447 428.919 409.5C428.725 409.304 428.409 409.302 428.213 409.497C425.914 411.772 423.565 413.998 421.166 416.175C420.961 416.361 420.946 416.677 421.131 416.881C418.973 418.831 416.776 420.74 414.541 422.608C414.364 422.396 414.049 422.367 413.837 422.544C411.351 424.611 408.819 426.628 406.241 428.591C406.021 428.758 405.978 429.072 406.145 429.291C403.829 431.048 401.476 432.762 399.087 434.432C398.93 434.206 398.618 434.15 398.392 434.308C395.739 436.154 393.043 437.947 390.305 439.684C390.072 439.832 390.003 440.14 390.151 440.374C387.693 441.925 385.202 443.433 382.679 444.894C382.541 444.655 382.236 444.573 381.997 444.711C379.197 446.325 376.357 447.882 373.481 449.38C373.236 449.508 373.141 449.81 373.268 450.054C370.689 451.391 368.079 452.681 365.441 453.924C365.324 453.674 365.026 453.566 364.776 453.683C361.852 455.053 358.892 456.363 355.899 457.613C355.645 457.719 355.524 458.012 355.63 458.267C352.948 459.38 350.24 460.444 347.506 461.459C347.41 461.201 347.123 461.068 346.864 461.164C343.835 462.281 340.776 463.337 337.686 464.33C337.424 464.415 337.279 464.696 337.363 464.959C334.598 465.842 331.809 466.675 328.998 467.456C328.924 467.191 328.649 467.035 328.383 467.108C325.272 467.966 322.134 468.761 318.969 469.493C318.701 469.555 318.533 469.823 318.595 470.092C315.765 470.739 312.915 471.336 310.046 471.88C309.995 471.609 309.734 471.431 309.463 471.481C306.291 472.076 303.095 472.607 299.878 473.072C299.605 473.112 299.415 473.365 299.455 473.638C296.584 474.047 293.695 474.405 290.791 474.709C290.762 474.435 290.517 474.235 290.242 474.263C287.038 474.592 283.813 474.857 280.57 475.055C280.295 475.072 280.085 475.309 280.102 475.584C277.209 475.755 274.302 475.874 271.382 475.94C271.376 475.664 271.148 475.445 270.872 475.45C269.252 475.483 267.628 475.5 266 475.5C264.372 475.5 262.748 475.483 261.128 475.45C260.852 475.445 260.624 475.664 260.618 475.94C257.698 475.874 254.791 475.755 251.898 475.584C251.915 475.309 251.705 475.072 251.43 475.055C248.187 474.857 244.962 474.592 241.758 474.263C241.483 474.235 241.238 474.435 241.209 474.709C238.305 474.405 235.416 474.047 232.545 473.638C232.585 473.365 232.395 473.112 232.122 473.072C228.905 472.607 225.709 472.076 222.538 471.481C222.266 471.431 222.005 471.609 221.954 471.88C219.085 471.336 216.235 470.739 213.405 470.092C213.467 469.823 213.299 469.555 213.031 469.493C209.866 468.761 206.728 467.966 203.617 467.108C203.351 467.035 203.076 467.191 203.002 467.456C200.191 466.675 197.402 465.842 194.637 464.959C194.721 464.696 194.576 464.415 194.314 464.33C191.224 463.337 188.165 462.281 185.136 461.164C184.877 461.068 184.59 461.201 184.494 461.459C181.76 460.444 179.052 459.38 176.37 458.267C176.476 458.012 176.355 457.719 176.101 457.613C173.108 456.363 170.148 455.053 167.224 453.683C166.974 453.566 166.676 453.674 166.559 453.924C163.921 452.681 161.311 451.391 158.732 450.054C158.859 449.81 158.764 449.508 158.519 449.38C155.643 447.882 152.803 446.325 150.003 444.711C149.764 444.573 149.459 444.655 149.321 444.894C146.798 443.433 144.307 441.926 141.849 440.374C141.997 440.14 141.928 439.832 141.695 439.684C138.957 437.947 136.261 436.154 133.608 434.308C133.382 434.15 133.071 434.206 132.913 434.432C130.525 432.762 128.171 431.048 125.855 429.292C126.022 429.072 125.979 428.758 125.76 428.591C123.182 426.628 120.649 424.611 118.163 422.544C117.951 422.367 117.636 422.396 117.459 422.608C115.224 420.74 113.027 418.831 110.869 416.881C111.054 416.677 111.039 416.361 110.834 416.175C108.435 413.998 106.086 411.772 103.787 409.497C103.591 409.302 103.275 409.304 103.081 409.5C101.015 407.447 98.9913 405.354 97.01 403.225C97.2122 403.037 97.2241 402.721 97.0366 402.518C94.8363 400.143 92.6891 397.72 90.5967 395.253C90.4182 395.042 90.103 395.016 89.8924 395.194C88.0144 392.969 86.1808 390.708 84.3929 388.412C84.6108 388.243 84.6504 387.929 84.4814 387.711C82.4984 385.153 80.5721 382.551 78.7045 379.907C78.5452 379.682 78.2335 379.628 78.008 379.787C76.3341 377.406 74.7075 374.992 73.1296 372.546C73.3616 372.396 73.4289 372.087 73.2798 371.855C71.5324 369.132 69.8453 366.37 68.2203 363.569C68.0818 363.331 67.7762 363.249 67.5374 363.388C66.0833 360.868 64.6793 358.318 63.3267 355.739C63.5711 355.611 63.6659 355.31 63.5383 355.065C62.0432 352.198 60.6117 349.295 59.2454 346.358C59.129 346.108 58.832 345.999 58.5817 346.115C57.3618 343.476 56.1944 340.81 55.0807 338.117C55.3358 338.012 55.4575 337.72 55.3527 337.465C54.1248 334.476 52.9634 331.455 51.87 328.403C51.777 328.143 51.4911 328.008 51.2312 328.101C50.2577 325.363 49.3388 322.601 48.4758 319.816C48.7394 319.734 48.8874 319.455 48.8064 319.191C47.858 316.104 46.9785 312.989 46.1694 309.847C46.1006 309.579 45.8284 309.418 45.5611 309.487C44.8436 306.672 44.1824 303.837 43.5789 300.981C43.8489 300.924 44.022 300.659 43.9655 300.389C43.306 297.231 42.717 294.048 42.2003 290.842C42.1564 290.57 41.9001 290.384 41.6277 290.428C41.173 287.564 40.7758 284.682 40.4374 281.782C40.7114 281.751 40.9081 281.503 40.8767 281.229C40.5107 278.028 40.2163 274.806 39.9952 271.565C39.9764 271.29 39.7382 271.082 39.4629 271.1C39.2725 268.209 39.1402 265.302 39.0672 262.381C39.343 262.375 39.5614 262.146 39.5551 261.87C39.5184 260.251 39.5 258.628 39.5 257C39.5 255.372 39.5184 253.749 39.5551 252.13C39.5614 251.854 39.343 251.626 39.0672 251.619C39.1402 248.698 39.2725 245.791 39.4629 242.9C39.7382 242.918 39.9764 242.71 39.9952 242.435C40.2163 239.194 40.5107 235.972 40.8767 232.771C40.9081 232.497 40.7114 232.249 40.4374 232.218C40.7758 229.318 41.173 226.436 41.6277 223.572C41.9001 223.616 42.1563 223.43 42.2003 223.158C42.717 219.952 43.306 216.769 43.9655 213.611C44.0219 213.341 43.8489 213.076 43.5789 213.02C44.1824 210.163 44.8436 207.328 45.5611 204.513C45.8283 204.582 46.1006 204.421 46.1694 204.154C46.9785 201.011 47.858 197.896 48.8064 194.809C48.8874 194.545 48.7394 194.266 48.4758 194.185C49.3388 191.399 50.2577 188.637 51.2312 185.899C51.491 185.992 51.7769 185.857 51.87 185.597C52.9633 182.545 54.1248 179.524 55.3526 176.535C55.4575 176.28 55.3358 175.988 55.0807 175.883C56.1943 173.19 57.3617 170.524 58.5817 167.885C58.832 168.001 59.129 167.892 59.2454 167.642C60.6116 164.705 62.0432 161.802 63.5382 158.935C63.6658 158.69 63.5711 158.389 63.3266 158.261C64.6793 155.682 66.0833 153.132 67.5374 150.613C67.7761 150.751 68.0818 150.669 68.2203 150.431C69.8453 147.63 71.5324 144.868 73.2798 142.145C73.4288 141.913 73.3615 141.604 73.1295 141.454C74.7075 139.008 76.3341 136.594 78.008 134.213C78.2335 134.372 78.5452 134.318 78.7044 134.093C80.5721 131.449 82.4983 128.848 84.4813 126.289C84.6504 126.071 84.6107 125.757 84.3929 125.588C86.1808 123.292 88.0144 121.031 89.8923 118.806C90.103 118.984 90.4182 118.958 90.5966 118.748C92.689 116.28 94.8363 113.858 97.0366 111.482C97.2241 111.279 97.2121 110.963 97.0099 110.775C98.9912 108.646 101.015 106.553 103.08 104.5C103.275 104.696 103.591 104.698 103.787 104.503C106.086 102.228 108.435 100.002 110.834 97.8246C111.039 97.6392 111.054 97.3233 110.869 97.1188C113.027 95.1692 115.224 93.2599 117.459 91.392C117.636 91.6039 117.951 91.6327 118.163 91.4562C120.649 89.3887 123.181 87.3723 125.759 85.4088C125.979 85.2416 126.022 84.9282 125.855 84.7085C128.171 82.9521 130.524 81.2382 132.913 79.568C133.07 79.7943 133.382 79.85 133.608 79.6923C136.261 77.8456 138.957 76.053 141.695 74.3161C141.928 74.1683 141.997 73.8596 141.849 73.6265C144.307 72.0745 146.798 70.5673 149.321 69.1061C149.459 69.3449 149.764 69.4269 150.003 69.2891C152.803 67.6754 155.643 66.1184 158.519 64.6196C158.764 64.4921 158.859 64.1904 158.732 63.9456C161.311 62.6087 163.921 61.3186 166.559 60.0763C166.676 60.326 166.974 60.4336 167.224 60.3166C170.148 58.9473 173.108 57.6369 176.101 56.387C176.355 56.2807 176.476 55.9882 176.37 55.7335C179.052 54.6204 181.76 53.5557 184.494 52.5406C184.59 52.7994 184.877 52.9317 185.136 52.8362C188.165 51.7193 191.224 50.6632 194.314 49.6696C194.576 49.5852 194.721 49.3038 194.637 49.0411C197.402 48.1583 200.191 47.3254 203.002 46.5435C203.076 46.8094 203.351 46.9655 203.617 46.8921C206.728 46.0341 209.866 45.2387 213.031 44.5074C213.299 44.4452 213.467 44.177 213.405 43.9082C216.235 43.2606 219.085 42.6641 221.954 42.1198C222.005 42.3909 222.266 42.5694 222.537 42.5186C225.709 41.9239 228.904 41.3931 232.122 40.9276C232.395 40.8881 232.585 40.6348 232.545 40.3617C235.416 39.9526 238.305 39.5954 241.209 39.291C241.238 39.5654 241.483 39.765 241.758 39.7368C244.962 39.4079 248.187 39.1434 251.43 38.9448C251.705 38.9279 251.915 38.6911 251.898 38.4157C254.791 38.2447 257.698 38.1259 260.618 38.0603C260.624 38.3362 260.852 38.5552 261.128 38.5495C262.748 38.5166 264.372 38.5 266 38.5C267.628 38.5 269.252 38.5166 270.872 38.5495C271.148 38.5552 271.376 38.3362 271.382 38.0603C274.302 38.1259 277.209 38.2447 280.102 38.4157C280.085 38.6911 280.295 38.9279 280.57 38.9448C283.813 39.1434 287.038 39.4079 290.242 39.7368C290.517 39.765 290.762 39.5654 290.791 39.291C293.695 39.5953 296.584 39.9526 299.455 40.3617C299.415 40.6348 299.605 40.8881 299.878 40.9276C303.095 41.3931 306.291 41.9239 309.462 42.5185C309.734 42.5694 309.995 42.3909 310.046 42.1198C312.915 42.6641 315.765 43.2606 318.595 43.9081C318.533 44.177 318.701 44.4452 318.969 44.5074C322.133 45.2387 325.272 46.0341 328.383 46.8921C328.649 46.9654 328.924 46.8094 328.997 46.5435C331.809 47.3254 334.598 48.1583 337.363 49.0411C337.279 49.3038 337.424 49.5851 337.686 49.6696C340.776 50.6632 343.835 51.7192 346.864 52.8362C347.123 52.9317 347.41 52.7993 347.506 52.5406C350.24 53.5557 352.948 54.6203 355.63 55.7334C355.524 55.9881 355.645 56.2807 355.899 56.387C358.892 57.6369 361.852 58.9472 364.776 60.3165C365.026 60.4335 365.323 60.326 365.441 60.0762C368.079 61.3185 370.689 62.6087 373.268 63.9456C373.141 64.1904 373.236 64.4921 373.481 64.6196C376.357 66.1183 379.197 67.6754 381.997 69.2891C382.236 69.4269 382.541 69.3449 382.679 69.106C385.202 70.5673 387.693 72.0745 390.151 73.6265C390.003 73.8596 390.072 74.1682 390.305 74.3161C393.043 76.053 395.739 77.8456 398.392 79.6922C398.618 79.8499 398.93 79.7942 399.087 79.568C401.475 81.2381 403.829 82.952 406.145 84.7085C405.978 84.9281 406.021 85.2415 406.24 85.4088C408.818 87.3722 411.351 89.3886 413.837 91.4562C414.049 91.6327 414.364 91.6039 414.541 91.392C416.776 93.2599 418.973 95.1692 421.131 97.1187C420.946 97.3232 420.961 97.6391 421.166 97.8246C423.565 100.002 425.914 102.228 428.213 104.503C428.409 104.698 428.725 104.696 428.919 104.5C430.985 106.553 433.009 108.646 434.99 110.775C434.788 110.963 434.776 111.279 434.963 111.482C437.164 113.857 439.311 116.28 441.403 118.747C441.582 118.958 441.897 118.984 442.108 118.806C443.986 121.031 445.819 123.292 447.607 125.588C447.389 125.757 447.35 126.071 447.519 126.289C449.502 128.847 451.428 131.449 453.296 134.093C453.455 134.318 453.766 134.372 453.992 134.213C455.666 136.594 457.292 139.008 458.87 141.454C458.638 141.604 458.571 141.913 458.72 142.145C460.468 144.868 462.155 147.63 463.78 150.431C463.918 150.669 464.224 150.751 464.463 150.612C465.917 153.132 467.321 155.682 468.673 158.261C468.429 158.389 468.334 158.69 468.462 158.935C469.957 161.802 471.388 164.705 472.755 167.642C472.871 167.892 473.168 168.001 473.418 167.885C474.638 170.524 475.806 173.19 476.919 175.883C476.664 175.988 476.542 176.28 476.647 176.535C477.875 179.524 479.037 182.545 480.13 185.597C480.223 185.857 480.509 185.992 480.769 185.899C481.742 188.637 482.661 191.399 483.524 194.184C483.261 194.266 483.113 194.545 483.194 194.809C484.142 197.896 485.022 201.011 485.831 204.153C485.899 204.421 486.172 204.582 486.439 204.513C487.156 207.328 487.818 210.163 488.421 213.019C488.151 213.076 487.978 213.341 488.034 213.611C488.694 216.769 489.283 219.952 489.8 223.158C489.844 223.43 490.1 223.616 490.372 223.572C490.827 226.436 491.224 229.318 491.563 232.218C491.289 232.249 491.092 232.497 491.123 232.771C491.489 235.972 491.784 239.194 492.005 242.435C492.024 242.71 492.262 242.918 492.537 242.9Z" stroke="#F03861" stroke-opacity="0.2" stroke-linecap="round" stroke-linejoin="round" stroke-dasharray="10 10"/>
<path d="M531.602 242.828C531.766 245.736 531.88 248.658 531.942 251.592C531.666 251.598 531.447 251.826 531.453 252.102C531.484 253.731 531.5 255.364 531.5 257C531.5 258.636 531.484 260.269 531.453 261.898C531.447 262.174 531.666 262.402 531.942 262.408C531.88 265.342 531.766 268.264 531.602 271.172C531.327 271.157 531.091 271.367 531.075 271.643C530.885 274.904 530.632 278.149 530.317 281.377C530.29 281.651 530.491 281.896 530.765 281.923C530.474 284.846 530.132 287.756 529.74 290.65C529.467 290.613 529.215 290.804 529.177 291.077C528.733 294.31 528.227 297.524 527.659 300.718C527.611 300.99 527.792 301.25 528.063 301.298C527.544 304.184 526.975 307.054 526.358 309.906C526.088 309.847 525.822 310.018 525.763 310.288C525.066 313.474 524.308 316.639 523.49 319.781C523.42 320.048 523.58 320.32 523.847 320.39C523.102 323.228 522.308 326.047 521.466 328.847C521.202 328.767 520.923 328.916 520.843 329.18C519.898 332.3 518.893 335.396 517.83 338.465C517.739 338.726 517.877 339.01 518.138 339.101C517.173 341.868 516.161 344.614 515.102 347.338C514.845 347.238 514.555 347.365 514.455 347.622C513.269 350.655 512.025 353.662 510.724 356.639C510.614 356.892 510.729 357.187 510.982 357.298C509.803 359.981 508.579 362.641 507.31 365.277C507.061 365.157 506.763 365.261 506.642 365.51C505.224 368.442 503.749 371.343 502.22 374.213C502.09 374.457 502.183 374.759 502.426 374.889C501.044 377.471 499.618 380.028 498.149 382.558C497.91 382.419 497.605 382.499 497.466 382.738C495.825 385.55 494.132 388.329 492.387 391.074C492.239 391.306 492.307 391.615 492.54 391.764C490.964 394.231 489.346 396.671 487.687 399.083C487.46 398.926 487.149 398.983 486.992 399.21C485.142 401.888 483.241 404.53 481.292 407.135C481.126 407.356 481.171 407.669 481.392 407.835C479.633 410.175 477.835 412.485 475.998 414.764C475.784 414.591 475.469 414.624 475.295 414.839C473.249 417.368 471.154 419.859 469.013 422.311C468.831 422.519 468.853 422.834 469.06 423.016C467.131 425.217 465.164 427.386 463.16 429.522C462.959 429.333 462.643 429.343 462.454 429.544C460.224 431.911 457.949 434.239 455.631 436.525C455.434 436.718 455.432 437.035 455.625 437.231C453.538 439.281 451.416 441.297 449.259 443.278C449.073 443.075 448.757 443.061 448.553 443.247C446.154 445.443 443.713 447.595 441.23 449.704C441.02 449.882 440.994 450.198 441.172 450.408C438.939 452.298 436.673 454.152 434.375 455.97C434.204 455.753 433.889 455.716 433.673 455.887C431.119 457.899 428.525 459.866 425.894 461.787C425.671 461.949 425.622 462.262 425.784 462.485C423.42 464.204 421.024 465.886 418.599 467.53C418.445 467.301 418.134 467.241 417.906 467.396C415.212 469.214 412.482 470.986 409.716 472.709C409.482 472.855 409.41 473.163 409.556 473.397C407.071 474.939 404.558 476.442 402.018 477.905C401.881 477.666 401.575 477.583 401.336 477.721C398.516 479.338 395.662 480.907 392.776 482.425C392.532 482.553 392.438 482.855 392.566 483.1C389.978 484.455 387.364 485.77 384.726 487.043C384.606 486.795 384.307 486.69 384.059 486.81C381.131 488.216 378.173 489.572 375.185 490.876C374.932 490.986 374.816 491.281 374.926 491.534C372.246 492.698 369.541 493.82 366.814 494.9C366.713 494.643 366.423 494.517 366.166 494.618C363.142 495.809 360.091 496.948 357.013 498.033C356.752 498.125 356.616 498.41 356.707 498.67C353.952 499.636 351.176 500.558 348.38 501.438C348.297 501.174 348.017 501.028 347.753 501.11C344.656 502.077 341.533 502.992 338.387 503.851C338.121 503.924 337.964 504.198 338.036 504.465C335.217 505.229 332.379 505.95 329.523 506.626C329.46 506.357 329.191 506.191 328.922 506.254C325.76 506.996 322.575 507.684 319.369 508.316C319.098 508.37 318.922 508.632 318.975 508.903C316.113 509.462 313.235 509.976 310.34 510.445C310.296 510.173 310.04 509.988 309.768 510.031C306.566 510.544 303.345 511.002 300.106 511.403C299.832 511.437 299.637 511.687 299.671 511.961C296.773 512.314 293.86 512.623 290.934 512.886C290.909 512.611 290.667 512.408 290.392 512.432C287.159 512.716 283.91 512.945 280.645 513.116C280.369 513.131 280.158 513.366 280.172 513.642C277.263 513.789 274.342 513.892 271.409 513.948C271.404 513.672 271.176 513.452 270.9 513.457C269.27 513.486 267.637 513.5 266 513.5C264.363 513.5 262.73 513.486 261.1 513.457C260.824 513.452 260.596 513.672 260.591 513.948C257.658 513.892 254.737 513.789 251.828 513.642C251.842 513.366 251.631 513.131 251.355 513.116C248.09 512.945 244.841 512.716 241.608 512.432C241.333 512.408 241.091 512.611 241.066 512.886C238.14 512.623 235.227 512.314 232.329 511.961C232.363 511.687 232.168 511.437 231.894 511.403C228.655 511.002 225.434 510.544 222.232 510.031C221.96 509.988 221.704 510.173 221.66 510.445C218.765 509.976 215.887 509.462 213.025 508.903C213.078 508.632 212.902 508.37 212.631 508.316C209.425 507.684 206.24 506.996 203.078 506.254C202.809 506.191 202.54 506.357 202.477 506.626C199.621 505.95 196.783 505.229 193.964 504.465C194.036 504.198 193.879 503.924 193.613 503.851C190.467 502.992 187.344 502.077 184.247 501.11C183.983 501.028 183.703 501.174 183.62 501.438C180.824 500.558 178.048 499.636 175.293 498.67C175.384 498.41 175.248 498.125 174.987 498.033C171.909 496.948 168.858 495.809 165.834 494.618C165.577 494.517 165.287 494.643 165.186 494.9C162.459 493.82 159.754 492.698 157.073 491.534C157.184 491.281 157.068 490.986 156.815 490.876C153.827 489.572 150.869 488.216 147.941 486.81C147.693 486.69 147.394 486.795 147.274 487.043C144.636 485.77 142.022 484.455 139.434 483.1C139.562 482.855 139.468 482.553 139.224 482.425C136.338 480.907 133.484 479.338 130.664 477.721C130.425 477.583 130.119 477.666 129.982 477.905C127.442 476.442 124.929 474.939 122.444 473.397C122.59 473.163 122.518 472.855 122.284 472.709C119.518 470.986 116.788 469.214 114.094 467.396C113.866 467.241 113.555 467.301 113.4 467.53C110.976 465.886 108.58 464.204 106.216 462.485C106.378 462.262 106.329 461.949 106.106 461.787C103.475 459.866 100.881 457.899 98.3273 455.887C98.1105 455.716 97.7964 455.753 97.6254 455.97C95.3271 454.152 93.0608 452.298 90.8275 450.408C91.0059 450.198 90.9801 449.882 90.7698 449.704C88.2874 447.595 85.846 445.443 83.447 443.247C83.2434 443.061 82.9274 443.075 82.7409 443.278C80.5841 441.297 78.4617 439.281 76.3746 437.231C76.5681 437.035 76.5657 436.718 76.3692 436.524C74.0505 434.239 71.7757 431.911 69.5462 429.544C69.3571 429.343 69.0409 429.333 68.8398 429.522C66.8361 427.386 64.8691 425.217 62.9398 423.016C63.1474 422.834 63.1686 422.519 62.9871 422.311C60.8458 419.859 58.7512 417.368 56.7046 414.839C56.531 414.624 56.2165 414.591 56.0018 414.764C54.1647 412.485 52.3665 410.175 50.6082 407.835C50.8289 407.669 50.8739 407.356 50.7085 407.135C48.7585 404.53 46.8579 401.888 45.0081 399.21C44.8513 398.983 44.5401 398.926 44.313 399.083C42.654 396.671 41.0361 394.231 39.4602 391.764C39.6929 391.615 39.7615 391.306 39.6134 391.074C37.868 388.329 36.1746 385.55 34.5345 382.738C34.3954 382.499 34.0896 382.419 33.8511 382.558C32.3821 380.028 30.9561 377.471 29.5741 374.889C29.8175 374.759 29.9096 374.457 29.7798 374.213C28.251 371.343 26.7765 368.442 25.3577 365.51C25.2375 365.261 24.9388 365.157 24.6903 365.277C23.4211 362.641 22.1967 359.981 21.0183 357.298C21.271 357.187 21.3863 356.892 21.2759 356.639C19.9754 353.662 18.7314 350.655 17.5452 347.622C17.4448 347.365 17.155 347.238 16.898 347.338C15.8392 344.614 14.8269 341.868 13.8621 339.101C14.1227 339.01 14.2607 338.726 14.1704 338.465C13.107 335.396 12.1021 332.3 11.1569 329.18C11.0769 328.916 10.798 328.767 10.5339 328.847C9.69192 326.047 8.89791 323.228 8.15277 320.39C8.41971 320.32 8.57969 320.048 8.51015 319.78C7.69204 316.639 6.93393 313.474 6.23704 310.288C6.17808 310.018 5.91185 309.847 5.64225 309.906C5.02449 307.054 4.45567 304.184 3.93668 301.298C4.20829 301.249 4.38927 300.99 4.34097 300.718C3.77328 297.524 3.26671 294.31 2.82248 291.077C2.78492 290.804 2.53295 290.613 2.25957 290.65C1.86783 287.756 1.52593 284.846 1.23473 281.923C1.50931 281.896 1.71011 281.651 1.68331 281.377C1.36836 278.149 1.11532 274.904 0.925342 271.643C0.909293 271.367 0.673071 271.157 0.397609 271.172C0.233975 268.264 0.120407 265.342 0.0577239 262.408C0.333582 262.402 0.552794 262.174 0.547444 261.898C0.515862 260.269 0.5 258.636 0.5 257C0.5 255.364 0.515862 253.731 0.547444 252.102C0.552793 251.826 0.333582 251.598 0.0577239 251.592C0.120407 248.658 0.233975 245.736 0.397609 242.828C0.673071 242.843 0.909293 242.633 0.925342 242.357C1.11532 239.096 1.36836 235.851 1.68331 232.623C1.71011 232.349 1.50931 232.104 1.23473 232.077C1.52593 229.154 1.86783 226.244 2.25957 223.35C2.53295 223.387 2.78492 223.196 2.82248 222.923C3.26671 219.69 3.77328 216.476 4.34097 213.282C4.38927 213.01 4.20829 212.751 3.93669 212.702C4.45568 209.816 5.02449 206.946 5.64226 204.094C5.91186 204.153 6.17808 203.982 6.23705 203.712C6.93393 200.526 7.69205 197.361 8.51015 194.219C8.5797 193.952 8.41971 193.68 8.15278 193.61C8.89791 190.772 9.69192 187.953 10.5339 185.153C10.798 185.233 11.0769 185.084 11.1569 184.82C12.1021 181.7 13.107 178.604 14.1704 175.535C14.2607 175.274 14.1227 174.99 13.8621 174.899C14.8269 172.132 15.8392 169.386 16.898 166.662C17.155 166.762 17.4448 166.635 17.5453 166.378C18.7314 163.345 19.9754 160.338 21.2759 157.361C21.3863 157.108 21.271 156.813 21.0183 156.702C22.1967 154.019 23.4211 151.359 24.6903 148.723C24.9388 148.843 25.2375 148.739 25.3577 148.49C26.7765 145.558 28.251 142.657 29.7799 139.787C29.9096 139.543 29.8175 139.241 29.5741 139.111C30.9561 136.529 32.3821 133.972 33.8511 131.442C34.0896 131.581 34.3954 131.501 34.5345 131.262C36.1746 128.45 37.868 125.671 39.6134 122.926C39.7615 122.693 39.6929 122.385 39.4602 122.236C41.0361 119.769 42.654 117.329 44.313 114.917C44.5401 115.074 44.8513 115.017 45.0081 114.79C46.8579 112.112 48.7585 109.47 50.7085 106.865C50.8739 106.644 50.8289 106.331 50.6082 106.165C52.3666 103.825 54.1647 101.515 56.0018 99.236C56.2165 99.4093 56.531 99.376 56.7046 99.1615C58.7512 96.6322 60.8458 94.141 62.9871 91.689C63.1687 91.4812 63.1474 91.1656 62.9398 90.9839C64.8691 88.7832 66.8361 86.6143 68.8398 84.4781C69.0409 84.6671 69.3571 84.6574 69.5462 84.4565C71.7757 82.0886 74.0505 79.7612 76.3692 77.4755C76.5657 77.2818 76.5681 76.9654 76.3746 76.7688C78.4617 74.7192 80.5841 72.7032 82.7409 70.7219C82.9274 70.9253 83.2434 70.9392 83.447 70.7528C85.846 68.5574 88.2874 66.4048 90.7698 64.2962C90.9802 64.1176 91.006 63.8023 90.8275 63.5918C93.0608 61.7021 95.3271 59.848 97.6254 58.0303C97.7964 58.2468 98.1105 58.284 98.3273 58.1132C100.881 56.1011 103.475 54.1341 106.106 52.2132C106.329 52.0505 106.378 51.738 106.216 51.515C108.58 49.7959 110.976 48.114 113.4 46.4702C113.555 46.6988 113.866 46.7589 114.094 46.6045C116.788 44.7858 119.518 43.0143 122.284 41.291C122.518 41.1451 122.59 40.8369 122.444 40.6026C124.929 39.0608 127.442 37.5578 129.982 36.0946C130.119 36.3338 130.425 36.4165 130.664 36.2792C133.484 34.6618 136.338 33.0935 139.224 31.5753C139.468 31.4469 139.562 31.1448 139.434 30.9005C142.022 29.5453 144.636 28.2304 147.274 26.9566C147.394 27.2052 147.693 27.3099 147.941 27.1903C150.869 25.7839 153.827 24.4281 156.815 23.1242C157.068 23.0138 157.184 22.7194 157.074 22.4664C159.754 21.3024 162.459 20.18 165.186 19.1001C165.287 19.3568 165.577 19.4828 165.834 19.3817C168.858 18.1908 171.909 17.0522 174.987 15.9671C175.248 15.8753 175.384 15.5901 175.293 15.3297C178.048 14.3643 180.824 13.4415 183.62 12.5624C183.703 12.8257 183.983 12.9724 184.247 12.8901C187.344 11.9225 190.467 11.0085 193.613 10.149C193.879 10.0763 194.036 9.80166 193.964 9.53541C196.783 8.77095 199.621 8.05025 202.477 7.37411C202.54 7.64268 202.809 7.80923 203.078 7.74614C206.24 7.00361 209.425 6.31578 212.631 5.68377C212.902 5.63039 213.078 5.36772 213.025 5.09695C215.887 4.53816 218.765 4.02376 221.66 3.55452C221.704 3.82694 221.96 4.01233 222.232 3.96866C225.434 3.45561 228.655 2.99791 231.894 2.5966C232.168 2.56266 232.363 2.31324 232.329 2.03937C235.227 1.68567 238.14 1.37702 241.067 1.11417C241.091 1.38903 241.333 1.59216 241.608 1.56797C244.841 1.28354 248.09 1.05508 251.355 0.883602C251.631 0.869126 251.842 0.634083 251.828 0.358514C254.737 0.210974 257.658 0.108589 260.591 0.0520695C260.596 0.327961 260.824 0.547631 261.1 0.542806C262.73 0.51431 264.363 0.5 266 0.5C267.637 0.5 269.27 0.51431 270.9 0.542807C271.176 0.547632 271.404 0.327962 271.409 0.0520707C274.342 0.10859 277.263 0.210976 280.172 0.358517C280.158 0.634086 280.37 0.86913 280.645 0.883605C283.91 1.05508 287.159 1.28354 290.392 1.56798C290.667 1.59217 290.909 1.38903 290.934 1.11418C293.86 1.37702 296.773 1.68567 299.671 2.03937C299.637 2.31324 299.832 2.56267 300.106 2.5966C303.345 2.99791 306.566 3.45562 309.768 3.96867C310.04 4.01234 310.297 3.82695 310.34 3.55453C313.235 4.02377 316.113 4.53817 318.975 5.09696C318.922 5.36773 319.098 5.6304 319.369 5.68378C322.575 6.31579 325.76 7.00362 328.922 7.74615C329.191 7.80923 329.46 7.64269 329.523 7.37413C332.379 8.05026 335.217 8.77096 338.036 9.53542C337.964 9.80166 338.121 10.0763 338.387 10.1491C341.533 11.0085 344.656 11.9226 347.753 12.8901C348.017 12.9724 348.297 12.8257 348.38 12.5624C351.176 13.4416 353.952 14.3643 356.707 15.3298C356.616 15.5901 356.752 15.8754 357.013 15.9671C360.091 17.0522 363.142 18.1908 366.166 19.3817C366.423 19.4828 366.713 19.3568 366.814 19.1001C369.541 20.18 372.246 21.3024 374.927 22.4664C374.816 22.7194 374.932 23.0138 375.185 23.1242C378.173 24.4281 381.131 25.7839 384.059 27.1904C384.307 27.3099 384.606 27.2052 384.726 26.9566C387.364 28.2304 389.978 29.5453 392.566 30.9005C392.438 31.1448 392.532 31.4469 392.776 31.5753C395.662 33.0935 398.516 34.6618 401.336 36.2792C401.575 36.4165 401.881 36.3338 402.018 36.0946C404.558 37.5578 407.071 39.0608 409.556 40.6026C409.41 40.8369 409.482 41.1451 409.716 41.291C412.482 43.0143 415.212 44.7858 417.906 46.6045C418.134 46.7589 418.445 46.6988 418.599 46.4702C421.024 48.114 423.42 49.7959 425.784 51.515C425.622 51.738 425.671 52.0505 425.894 52.2132C428.525 54.1341 431.119 56.1011 433.673 58.1132C433.889 58.284 434.204 58.2468 434.375 58.0303C436.673 59.848 438.939 61.7021 441.172 63.5918C440.994 63.8023 441.02 64.1176 441.23 64.2962C443.713 66.4048 446.154 68.5574 448.553 70.7528C448.757 70.9392 449.073 70.9253 449.259 70.7219C451.416 72.7032 453.538 74.7192 455.625 76.7688C455.432 76.9654 455.434 77.2818 455.631 77.4755C457.949 79.7612 460.224 82.0886 462.454 84.4565C462.643 84.6574 462.959 84.6671 463.16 84.4781C465.164 86.6143 467.131 88.7832 469.06 90.9839C468.853 91.1656 468.831 91.4812 469.013 91.689C471.154 94.141 473.249 96.6322 475.295 99.1615C475.469 99.376 475.784 99.4093 475.998 99.236C477.835 101.515 479.633 103.825 481.392 106.165C481.171 106.331 481.126 106.644 481.292 106.865C483.241 109.47 485.142 112.112 486.992 114.79C487.149 115.017 487.46 115.074 487.687 114.917C489.346 117.329 490.964 119.769 492.54 122.236C492.307 122.385 492.239 122.693 492.387 122.926C494.132 125.671 495.825 128.45 497.466 131.262C497.605 131.501 497.91 131.581 498.149 131.442C499.618 133.972 501.044 136.529 502.426 139.111C502.183 139.241 502.09 139.543 502.22 139.787C503.749 142.657 505.224 145.558 506.642 148.49C506.763 148.739 507.061 148.843 507.31 148.723C508.579 151.359 509.803 154.019 510.982 156.702C510.729 156.813 510.614 157.108 510.724 157.361C512.025 160.338 513.269 163.345 514.455 166.378C514.555 166.635 514.845 166.762 515.102 166.662C516.161 169.386 517.173 172.132 518.138 174.899C517.877 174.99 517.739 175.274 517.83 175.535C518.893 178.604 519.898 181.7 520.843 184.82C520.923 185.084 521.202 185.233 521.466 185.153C522.308 187.953 523.102 190.772 523.847 193.61C523.58 193.68 523.42 193.952 523.49 194.22C524.308 197.361 525.066 200.526 525.763 203.712C525.822 203.982 526.088 204.153 526.358 204.094C526.975 206.946 527.544 209.816 528.063 212.702C527.792 212.751 527.611 213.01 527.659 213.282C528.227 216.476 528.733 219.69 529.177 222.923C529.215 223.196 529.467 223.387 529.74 223.35C530.132 226.244 530.474 229.154 530.765 232.077C530.491 232.104 530.29 232.349 530.317 232.623C530.632 235.851 530.885 239.096 531.075 242.357C531.091 242.633 531.327 242.843 531.602 242.828Z" stroke="#F03861" stroke-opacity="0.2" stroke-linecap="round" stroke-linejoin="round" stroke-dasharray="10 10"/>
</svg>
