<svg width="16" height="20" viewBox="0 0 16 20" fill="none" xmlns="http://www.w3.org/2000/svg">
<path d="M8.00008 0C4.00613 0 0.756836 3.2493 0.756836 7.2432C0.756836 12.1998 7.23883 19.4763 7.5148 19.7836C7.77402 20.0723 8.2266 20.0718 8.48535 19.7836C8.76133 19.4763 15.2433 12.1998 15.2433 7.2432C15.2432 3.2493 11.994 0 8.00008 0ZM8.00008 10.8875C5.99062 10.8875 4.35586 9.25266 4.35586 7.2432C4.35586 5.23375 5.99066 3.59898 8.00008 3.59898C10.0095 3.59898 11.6443 5.23379 11.6443 7.24324C11.6443 9.2527 10.0095 10.8875 8.00008 10.8875Z" fill="#686868"/>
</svg>
