<svg width="76" height="76" viewBox="0 0 76 76" fill="none" xmlns="http://www.w3.org/2000/svg">
<path d="M57.7234 17.5808L53.2731 15.6798L57.5256 26.2745C57.9153 27.2449 57.9807 28.336 57.7098 29.3464L50.4331 56.5037C49.7985 58.8726 48.2771 60.854 46.1492 62.0825C45.5133 62.4497 44.8457 62.7344 44.1597 62.939C45.9022 63.8421 48.0549 63.8687 49.8772 62.8166L70.4799 50.9217C73.3199 49.282 74.2965 45.6374 72.6568 42.7973L58.491 18.2614C58.3155 17.9576 58.0462 17.7187 57.7234 17.5808Z" fill="#F9043B"/>
<path d="M42.461 34.2844C43.2368 33.8365 43.5026 32.8445 43.0547 32.0687C42.6068 31.2929 41.6147 31.0271 40.8389 31.475C40.0631 31.9229 39.7973 32.9149 40.2452 33.6907C40.6931 34.4665 41.6852 34.7323 42.461 34.2844Z" fill="#F9043B"/>
<path d="M26.5683 43.46C27.3441 43.0121 27.6099 42.0201 27.162 41.2443C26.7141 40.4685 25.7221 40.2027 24.9463 40.6506C24.1705 41.0985 23.9047 42.0905 24.3526 42.8663C24.8005 43.6421 25.7925 43.908 26.5683 43.46Z" fill="#F9043B"/>
<path d="M47.2998 55.664L54.5765 28.5067C54.6674 28.1676 54.6459 27.8083 54.5151 27.4826L48.4731 12.4295C48.2828 11.9558 47.8807 11.599 47.3876 11.467L42.6872 10.2075L41.0081 16.4746L42.5749 16.8945C43.4401 17.1262 43.9537 18.0157 43.7218 18.881C43.6059 19.3137 43.3256 19.6584 42.9662 19.866C42.6067 20.0735 42.1679 20.1439 41.7354 20.0279L35.4682 18.3486C34.6029 18.1169 34.0894 17.2274 34.3213 16.3621C34.5531 15.4969 35.4426 14.9834 36.3078 15.2151L37.8746 15.635L39.5538 9.36786L34.8535 8.10841C34.3604 7.9762 33.8341 8.08453 33.4321 8.39924L20.6729 18.4146C20.3968 18.6313 20.1986 18.9318 20.1077 19.2708L12.8309 46.4281C11.9821 49.5958 13.8687 52.8635 17.0365 53.7122L40.0156 59.8695C41.5995 60.294 43.2083 60.0344 44.5273 59.2729C45.8462 58.5114 46.8754 57.2479 47.2998 55.664ZM39.217 28.6654C41.5407 27.3239 44.5226 28.1229 45.8642 30.4466C47.2058 32.7703 46.4068 35.7522 44.0831 37.0938C41.7594 38.4354 38.7775 37.6364 37.4359 35.3127C36.0943 32.989 36.8933 30.007 39.217 28.6654ZM28.1904 46.2694C25.8668 47.611 22.8848 46.812 21.5432 44.4883C20.2016 42.1646 21.0006 39.1827 23.3243 37.8411C25.648 36.4995 28.63 37.2985 29.9716 39.6222C31.3132 41.9459 30.5142 44.9278 28.1904 46.2694ZM36.939 50.7169C36.7918 50.8019 36.6285 50.8651 36.4528 50.9011C35.5752 51.0806 34.7182 50.5148 34.5385 49.6371L29.6908 25.9481C29.5112 25.0704 30.0771 24.2134 30.9547 24.0338C31.8324 23.8542 32.6893 24.42 32.8691 25.2977L37.7168 48.9867C37.8602 49.6885 37.5271 50.3774 36.939 50.7169Z" fill="#F9043B"/>
<path d="M43.9465 5.50749C44.1784 4.64226 43.6649 3.75279 42.7995 3.52093C41.9344 3.28911 41.0449 3.80264 40.813 4.66787L39.5536 9.36814L42.6871 10.2078L43.9465 5.50749Z" fill="#F9043B"/>
</svg>
