<svg width="216" height="108" viewBox="0 0 216 108" fill="none" xmlns="http://www.w3.org/2000/svg">
<circle cx="3" cy="3" r="3" fill="#FF9300" fill-opacity="0.1"/>
<circle cx="17" cy="3" r="3" fill="#FF9300" fill-opacity="0.1"/>
<circle cx="31" cy="3" r="3" fill="#FF9300" fill-opacity="0.1"/>
<circle cx="45" cy="3" r="3" fill="#FF9300" fill-opacity="0.1"/>
<circle cx="59" cy="3" r="3" fill="#FF9300" fill-opacity="0.1"/>
<circle cx="73" cy="3" r="3" fill="#FF9300" fill-opacity="0.1"/>
<circle cx="87" cy="3" r="3" fill="#FF9300" fill-opacity="0.1"/>
<circle cx="101" cy="3" r="3" fill="#FF9300" fill-opacity="0.1"/>
<circle cx="115" cy="3" r="3" fill="#FF9300" fill-opacity="0.1"/>
<circle cx="129" cy="3" r="3" fill="#FF9300" fill-opacity="0.1"/>
<circle cx="143" cy="3" r="3" fill="#FF9300" fill-opacity="0.1"/>
<circle cx="157" cy="3" r="3" fill="#FF9300" fill-opacity="0.1"/>
<circle cx="171" cy="3" r="3" fill="#FF9300" fill-opacity="0.1"/>
<circle cx="185" cy="3" r="3" fill="#FF9300" fill-opacity="0.1"/>
<circle cx="199" cy="3" r="3" fill="#FF9300" fill-opacity="0.1"/>
<circle cx="213" cy="3" r="3" fill="#FF9300" fill-opacity="0.1"/>
<circle cx="3" cy="20" r="3" fill="#FF9300" fill-opacity="0.1"/>
<circle cx="17" cy="20" r="3" fill="#FF9300" fill-opacity="0.1"/>
<circle cx="31" cy="20" r="3" fill="#FF9300" fill-opacity="0.1"/>
<circle cx="45" cy="20" r="3" fill="#FF9300" fill-opacity="0.1"/>
<circle cx="59" cy="20" r="3" fill="#FF9300" fill-opacity="0.1"/>
<circle cx="73" cy="20" r="3" fill="#FF9300" fill-opacity="0.1"/>
<circle cx="87" cy="20" r="3" fill="#FF9300" fill-opacity="0.1"/>
<circle cx="101" cy="20" r="3" fill="#FF9300" fill-opacity="0.1"/>
<circle cx="115" cy="20" r="3" fill="#FF9300" fill-opacity="0.1"/>
<circle cx="129" cy="20" r="3" fill="#FF9300" fill-opacity="0.1"/>
<circle cx="143" cy="20" r="3" fill="#FF9300" fill-opacity="0.1"/>
<circle cx="157" cy="20" r="3" fill="#FF9300" fill-opacity="0.1"/>
<circle cx="171" cy="20" r="3" fill="#FF9300" fill-opacity="0.1"/>
<circle cx="185" cy="20" r="3" fill="#FF9300" fill-opacity="0.1"/>
<circle cx="199" cy="20" r="3" fill="#FF9300" fill-opacity="0.1"/>
<circle cx="213" cy="20" r="3" fill="#FF9300" fill-opacity="0.1"/>
<circle cx="3" cy="37" r="3" fill="#FF9300" fill-opacity="0.1"/>
<circle cx="17" cy="37" r="3" fill="#FF9300" fill-opacity="0.1"/>
<circle cx="31" cy="37" r="3" fill="#FF9300" fill-opacity="0.1"/>
<circle cx="45" cy="37" r="3" fill="#FF9300" fill-opacity="0.1"/>
<circle cx="59" cy="37" r="3" fill="#FF9300" fill-opacity="0.1"/>
<circle cx="73" cy="37" r="3" fill="#FF9300" fill-opacity="0.1"/>
<circle cx="87" cy="37" r="3" fill="#FF9300" fill-opacity="0.1"/>
<circle cx="101" cy="37" r="3" fill="#FF9300" fill-opacity="0.1"/>
<circle cx="115" cy="37" r="3" fill="#FF9300" fill-opacity="0.1"/>
<circle cx="129" cy="37" r="3" fill="#FF9300" fill-opacity="0.1"/>
<circle cx="143" cy="37" r="3" fill="#FF9300" fill-opacity="0.1"/>
<circle cx="157" cy="37" r="3" fill="#FF9300" fill-opacity="0.1"/>
<circle cx="171" cy="37" r="3" fill="#FF9300" fill-opacity="0.1"/>
<circle cx="185" cy="37" r="3" fill="#FF9300" fill-opacity="0.1"/>
<circle cx="199" cy="37" r="3" fill="#FF9300" fill-opacity="0.1"/>
<circle cx="213" cy="37" r="3" fill="#FF9300" fill-opacity="0.1"/>
<circle cx="3" cy="54" r="3" fill="#FF9300" fill-opacity="0.1"/>
<circle cx="17" cy="54" r="3" fill="#FF9300" fill-opacity="0.1"/>
<circle cx="31" cy="54" r="3" fill="#FF9300" fill-opacity="0.1"/>
<circle cx="45" cy="54" r="3" fill="#FF9300" fill-opacity="0.1"/>
<circle cx="59" cy="54" r="3" fill="#FF9300" fill-opacity="0.1"/>
<circle cx="73" cy="54" r="3" fill="#FF9300" fill-opacity="0.1"/>
<circle cx="87" cy="54" r="3" fill="#FF9300" fill-opacity="0.1"/>
<circle cx="101" cy="54" r="3" fill="#FF9300" fill-opacity="0.1"/>
<circle cx="115" cy="54" r="3" fill="#FF9300" fill-opacity="0.1"/>
<circle cx="129" cy="54" r="3" fill="#FF9300" fill-opacity="0.1"/>
<circle cx="143" cy="54" r="3" fill="#FF9300" fill-opacity="0.1"/>
<circle cx="157" cy="54" r="3" fill="#FF9300" fill-opacity="0.1"/>
<circle cx="171" cy="54" r="3" fill="#FF9300" fill-opacity="0.1"/>
<circle cx="185" cy="54" r="3" fill="#FF9300" fill-opacity="0.1"/>
<circle cx="199" cy="54" r="3" fill="#FF9300" fill-opacity="0.1"/>
<circle cx="213" cy="54" r="3" fill="#FF9300" fill-opacity="0.1"/>
<circle cx="3" cy="71" r="3" fill="#FF9300" fill-opacity="0.1"/>
<circle cx="17" cy="71" r="3" fill="#FF9300" fill-opacity="0.1"/>
<circle cx="31" cy="71" r="3" fill="#FF9300" fill-opacity="0.1"/>
<circle cx="45" cy="71" r="3" fill="#FF9300" fill-opacity="0.1"/>
<circle cx="59" cy="71" r="3" fill="#FF9300" fill-opacity="0.1"/>
<circle cx="73" cy="71" r="3" fill="#FF9300" fill-opacity="0.1"/>
<circle cx="87" cy="71" r="3" fill="#FF9300" fill-opacity="0.1"/>
<circle cx="101" cy="71" r="3" fill="#FF9300" fill-opacity="0.1"/>
<circle cx="115" cy="71" r="3" fill="#FF9300" fill-opacity="0.1"/>
<circle cx="129" cy="71" r="3" fill="#FF9300" fill-opacity="0.1"/>
<circle cx="143" cy="71" r="3" fill="#FF9300" fill-opacity="0.1"/>
<circle cx="157" cy="71" r="3" fill="#FF9300" fill-opacity="0.1"/>
<circle cx="171" cy="71" r="3" fill="#FF9300" fill-opacity="0.1"/>
<circle cx="185" cy="71" r="3" fill="#FF9300" fill-opacity="0.1"/>
<circle cx="199" cy="71" r="3" fill="#FF9300" fill-opacity="0.1"/>
<circle cx="213" cy="71" r="3" fill="#FF9300" fill-opacity="0.1"/>
<circle cx="3" cy="88" r="3" fill="#FF9300" fill-opacity="0.1"/>
<circle cx="17" cy="88" r="3" fill="#FF9300" fill-opacity="0.1"/>
<circle cx="31" cy="88" r="3" fill="#FF9300" fill-opacity="0.1"/>
<circle cx="45" cy="88" r="3" fill="#FF9300" fill-opacity="0.1"/>
<circle cx="59" cy="88" r="3" fill="#FF9300" fill-opacity="0.1"/>
<circle cx="73" cy="88" r="3" fill="#FF9300" fill-opacity="0.1"/>
<circle cx="87" cy="88" r="3" fill="#FF9300" fill-opacity="0.1"/>
<circle cx="101" cy="88" r="3" fill="#FF9300" fill-opacity="0.1"/>
<circle cx="115" cy="88" r="3" fill="#FF9300" fill-opacity="0.1"/>
<circle cx="129" cy="88" r="3" fill="#FF9300" fill-opacity="0.1"/>
<circle cx="143" cy="88" r="3" fill="#FF9300" fill-opacity="0.1"/>
<circle cx="157" cy="88" r="3" fill="#FF9300" fill-opacity="0.1"/>
<circle cx="171" cy="88" r="3" fill="#FF9300" fill-opacity="0.1"/>
<circle cx="185" cy="88" r="3" fill="#FF9300" fill-opacity="0.1"/>
<circle cx="199" cy="88" r="3" fill="#FF9300" fill-opacity="0.1"/>
<circle cx="213" cy="88" r="3" fill="#FF9300" fill-opacity="0.1"/>
<circle cx="3" cy="105" r="3" fill="#FF9300" fill-opacity="0.1"/>
<circle cx="17" cy="105" r="3" fill="#FF9300" fill-opacity="0.1"/>
<circle cx="31" cy="105" r="3" fill="#FF9300" fill-opacity="0.1"/>
<circle cx="45" cy="105" r="3" fill="#FF9300" fill-opacity="0.1"/>
<circle cx="59" cy="105" r="3" fill="#FF9300" fill-opacity="0.1"/>
<circle cx="73" cy="105" r="3" fill="#FF9300" fill-opacity="0.1"/>
<circle cx="87" cy="105" r="3" fill="#FF9300" fill-opacity="0.1"/>
<circle cx="101" cy="105" r="3" fill="#FF9300" fill-opacity="0.1"/>
<circle cx="115" cy="105" r="3" fill="#FF9300" fill-opacity="0.1"/>
<circle cx="129" cy="105" r="3" fill="#FF9300" fill-opacity="0.1"/>
<circle cx="143" cy="105" r="3" fill="#FF9300" fill-opacity="0.1"/>
<circle cx="157" cy="105" r="3" fill="#FF9300" fill-opacity="0.1"/>
<circle cx="171" cy="105" r="3" fill="#FF9300" fill-opacity="0.1"/>
<circle cx="185" cy="105" r="3" fill="#FF9300" fill-opacity="0.1"/>
<circle cx="199" cy="105" r="3" fill="#FF9300" fill-opacity="0.1"/>
<circle cx="213" cy="105" r="3" fill="#FF9300" fill-opacity="0.1"/>
</svg>
