<svg width="157" height="41" viewBox="0 0 157 41" fill="none" xmlns="http://www.w3.org/2000/svg">
<path d="M126.224 16.8636C128.898 18.0133 131.221 19.6118 133.139 21.6223C133.937 22.4598 134.637 23.3591 135.23 24.3075C135.817 23.3174 136.51 22.3783 137.301 21.5032C139.105 19.5056 141.395 17.922 144.115 16.7892C141.633 11.8195 136.785 7.48238 135.165 6.11753C133.548 7.45568 128.729 11.7153 126.224 16.8636ZM135.383 36.9367C135.721 35.6542 136.38 32.2876 135.261 28.5604C134.158 32.2893 134.693 35.6369 134.985 36.9367H135.383ZM136.211 26.1351C138.685 31.5853 137.272 36.7937 136.938 37.854L137.809 37.2302C137.89 37.1714 146.018 31.1826 145.592 21.902C145.54 20.7786 145.273 19.5795 144.795 18.3282C142.328 19.36 140.257 20.7923 138.63 22.5928C137.652 23.6763 136.839 24.8667 136.211 26.1351ZM125.557 18.4089C124.82 20.3701 124.548 22.2425 124.747 23.9835C125.273 28.5895 126.634 31.9121 132.609 37.2906L133.476 38.0715L133.459 38.0177C133.441 37.9618 131.627 32.2439 134.286 26.1501C133.654 24.9298 132.832 23.7859 131.84 22.7453C130.098 20.919 127.987 19.4626 125.557 18.4089ZM116.907 16.5296C116.263 18.5324 114.381 25.572 117.44 31.6107C119.299 35.2812 123.403 37.7958 124.56 38.4511C125.432 38.227 127.5 37.6999 127.976 37.6113C128.721 37.4726 129.455 37.362 130.081 37.2779C124.818 32.2308 123.535 28.8189 123.003 24.1641C122.773 22.1515 123.086 20.0071 123.933 17.7809C120.835 16.7206 118.14 16.546 116.907 16.5296ZM140.345 37.3128C141.644 37.5144 143.52 37.8645 145.812 38.4573C147.171 37.7784 152.589 34.7425 154.02 28.877C155.386 23.2729 153.978 18.1525 153.444 16.5338C152.302 16.5549 149.515 16.7185 146.428 17.7232C146.977 19.1484 147.285 20.5267 147.344 21.8291C147.695 29.4497 142.853 34.9783 140.345 37.3128ZM124.021 40.0831C123.964 40.0535 118.265 37.0844 115.86 32.3363C111.943 24.6049 115.411 15.5014 115.447 15.4105L115.645 14.8996L116.216 14.8671C116.221 14.8666 116.39 14.8575 116.689 14.8575C117.908 14.8575 121.019 14.9974 124.6 16.2353C127.805 9.59528 134.554 4.4194 134.624 4.36624L135.179 3.94622L135.727 4.37335C135.796 4.42767 142.583 9.75475 145.75 16.1801C149.44 14.96 152.758 14.8605 153.729 14.8605C153.971 14.8605 154.107 14.8661 154.119 14.8666L154.684 14.8925L154.891 15.3975C154.918 15.4652 157.501 21.9849 155.728 29.2551C153.916 36.6857 146.347 40.0733 146.271 40.1068L145.978 40.2341L145.67 40.1526C141.255 38.9864 138.381 38.7401 138.261 38.73L136.668 38.6058L136.668 38.6074H133.649L133.645 38.5942L132.086 38.7298C132.01 38.7366 130.187 38.9017 128.312 39.2508C127.906 39.3267 125.751 39.8744 124.668 40.1535L124.33 40.2419L124.021 40.0831Z" fill="#F03861"/>
<path d="M125.238 17.2317C127.697 18.1958 130.311 19.7138 132.586 22.0997C133.743 23.3128 134.607 24.5748 135.246 25.833C135.876 24.5333 136.728 23.2257 137.865 21.9664C140.004 19.5987 142.615 18.1046 145.111 17.1633C142.373 11.0932 135.972 5.826 135.17 5.18216C134.368 5.81131 128.021 10.9275 125.238 17.2317ZM134.396 37.6467H135.949C136.184 36.9312 137.714 31.7885 135.25 26.4419C132.873 31.8123 134.187 36.917 134.396 37.6467ZM116.363 15.8227C116.041 16.7126 113.235 24.9449 116.768 31.9192C118.923 36.1738 123.924 38.9303 124.454 39.2136C124.878 39.1043 127.596 38.4054 128.118 38.3083C129.637 38.0252 131.105 37.8616 131.707 37.8006C125.681 32.3265 124.29 28.8719 123.744 24.0873C123.482 21.7985 123.982 19.5173 124.897 17.3695C120.678 15.7706 116.97 15.8036 116.363 15.8227ZM138.667 37.8046C139.551 37.9005 142.204 38.2435 145.892 39.2144C146.489 38.9383 153.113 35.7318 154.745 29.0376C156.349 22.461 154.259 16.5625 153.98 15.8234C153.366 15.8102 149.598 15.7962 145.455 17.3032C146.104 18.7945 146.529 20.3312 146.599 21.8602C147.007 30.7391 140.09 36.6804 138.667 37.8046ZM124.421 39.4817L124.374 39.4581C124.319 39.4296 118.833 36.5733 116.531 32.0279C112.76 24.5849 116.111 15.7459 116.145 15.6575L116.175 15.5807L116.26 15.5758C116.322 15.5717 120.354 15.3787 124.997 17.1388C127.983 10.3786 134.995 4.99285 135.089 4.92162L135.172 4.85867L135.254 4.92279C135.342 4.99157 142.418 10.5643 145.354 17.0732C149.908 15.4151 154.016 15.5726 154.079 15.5758L154.165 15.5797L154.196 15.6555C154.221 15.7185 156.727 22.018 155.002 29.0944C153.27 36.1929 146.032 39.4296 145.96 39.4614L145.916 39.4806L145.869 39.4683C141.325 38.2682 138.354 38.025 138.325 38.0226L137.98 37.9956L138.256 37.7977C138.342 37.7366 146.782 31.5799 146.336 21.8709C146.267 20.3701 145.85 18.8598 145.213 17.3929C142.749 18.3218 140.173 19.7949 138.065 22.1298C136.888 23.4322 136.022 24.7872 135.392 26.1305C138.221 32.0266 136.195 37.7431 136.169 37.8133L136.138 37.8972H134.199L134.171 37.809C134.148 37.7391 132.375 32.0638 135.104 26.133C134.467 24.832 133.588 23.523 132.391 22.2679C130.146 19.9129 127.566 18.4145 125.138 17.4624C124.239 19.5749 123.748 21.8149 124.005 24.0604C124.551 28.8385 125.953 32.2766 132.096 37.8068L132.308 37.9974L132.018 38.0226C131.999 38.0243 130.127 38.1894 128.169 38.5539C127.623 38.6557 124.503 39.4605 124.471 39.4685L124.421 39.4817Z" fill="white"/>
<path d="M135.241 1.67087C135.055 1.67087 134.905 1.81425 134.905 1.9904C134.905 2.16677 135.055 2.31004 135.241 2.31004C135.425 2.31004 135.576 2.16677 135.576 1.9904C135.576 1.81425 135.425 1.67087 135.241 1.67087ZM135.241 3.9809C134.088 3.9809 133.15 3.08806 133.15 1.9904C133.15 0.892968 134.088 1.14441e-05 135.241 1.14441e-05C136.393 1.14441e-05 137.33 0.892968 137.33 1.9904C137.33 3.08806 136.393 3.9809 135.241 3.9809Z" fill="#F03861"/>
<path d="M135.24 0.960753C134.644 0.960753 134.159 1.42262 134.159 1.99045C134.159 2.55817 134.644 3.02027 135.24 3.02027C135.837 3.02027 136.322 2.55817 136.322 1.99045C136.322 1.42262 135.837 0.960753 135.24 0.960753ZM135.24 3.27078C134.499 3.27078 133.896 2.69642 133.896 1.99045C133.896 1.2846 134.499 0.710236 135.24 0.710236C135.981 0.710236 136.584 1.2846 136.584 1.99045C136.584 2.69642 135.981 3.27078 135.24 3.27078Z" fill="white"/>
<path d="M155.083 15.7975C154.126 15.7975 153.348 15.0562 153.348 14.1453C153.348 13.2342 154.126 12.4929 155.083 12.4929C156.039 12.4929 156.818 13.2342 156.818 14.1453C156.818 15.0562 156.039 15.7975 155.083 15.7975Z" fill="#F03861"/>
<path d="M155.083 13.4537C154.682 13.4537 154.357 13.7639 154.357 14.1453C154.357 14.5267 154.682 14.8369 155.083 14.8369C155.483 14.8369 155.809 14.5267 155.809 14.1453C155.809 13.7639 155.483 13.4537 155.083 13.4537ZM155.083 15.0874C154.537 15.0874 154.094 14.6647 154.094 14.1453C154.094 13.6259 154.537 13.2032 155.083 13.2032C155.628 13.2032 156.072 13.6259 156.072 14.1453C156.072 14.6647 155.628 15.0874 155.083 15.0874Z" fill="white"/>
<path d="M115.202 15.7975C114.246 15.7975 113.467 15.0562 113.467 14.1453C113.467 13.2342 114.246 12.4929 115.202 12.4929C116.158 12.4929 116.937 13.2342 116.937 14.1453C116.937 15.0562 116.158 15.7975 115.202 15.7975Z" fill="#F03861"/>
<path d="M115.202 13.4537C114.802 13.4537 114.476 13.7639 114.476 14.1453C114.476 14.5267 114.802 14.8369 115.202 14.8369C115.602 14.8369 115.928 14.5267 115.928 14.1453C115.928 13.7639 115.602 13.4537 115.202 13.4537ZM115.202 15.0874C114.656 15.0874 114.213 14.6647 114.213 14.1453C114.213 13.6259 114.656 13.2032 115.202 13.2032C115.747 13.2032 116.191 13.6259 116.191 14.1453C116.191 14.6647 115.747 15.0874 115.202 15.0874Z" fill="white"/>
<path d="M104.685 27.8042C104.685 26.9795 104.38 26.2763 103.769 25.6952C103.159 25.1138 102.421 24.8231 101.554 24.8231C100.688 24.8231 99.95 25.1138 99.3398 25.6952C98.7294 26.2763 98.4241 26.9795 98.4241 27.8042C98.4241 28.6292 98.7294 29.3322 99.3398 29.9133C99.95 30.4949 100.688 30.7856 101.554 30.7856C102.421 30.7856 103.159 30.4949 103.769 29.9133C104.38 29.3322 104.685 28.6292 104.685 27.8042ZM99.1989 30.7856C99.0579 30.6811 98.9197 30.5645 98.7839 30.4352C98.0228 29.7097 97.6415 28.833 97.6415 27.8042C97.6415 26.776 98.0237 25.8979 98.7879 25.1695C99.5523 24.4421 100.474 24.0778 101.554 24.0778C102.635 24.0778 103.557 24.4421 104.321 25.1695C105.085 25.8979 105.467 26.776 105.467 27.8042C105.467 28.833 105.085 29.7112 104.321 30.4389C103.557 31.1669 102.635 31.5307 101.554 31.5307H88.917L89.6996 30.7856H99.1989Z" fill="#F35B70"/>
<path d="M71.6234 30.8011V26.3135H72.4058V30.8011C72.4058 31.8294 72.0238 32.7075 71.2594 33.4358C70.4953 34.1633 69.5729 34.5276 68.4929 34.5276H66.928L67.7103 33.7822H68.4929C69.3592 33.7822 70.097 33.4916 70.7074 32.9102C71.3182 32.3291 71.6234 31.6259 71.6234 30.8011Z" fill="#F35B70"/>
<path d="M95.6276 27.9043C95.6276 26.3241 94.2779 25.0387 92.619 25.0387C90.9598 25.0387 89.6098 26.3241 89.6098 27.9043V30.7696H92.619C94.2779 30.7696 95.6276 29.4842 95.6276 27.9043ZM88.8105 31.5309V27.9043C88.8105 25.9044 90.5191 24.2774 92.619 24.2774C94.7186 24.2774 96.4269 25.9044 96.4269 27.9043C96.4269 29.9042 94.7186 31.5309 92.619 31.5309H88.8105Z" fill="#F35B70"/>
<path d="M89.5929 31.5309H88.8103V21.0969L89.5929 21.842V31.5309Z" fill="#F35B70"/>
<path d="M96.3917 30.7856V31.531H85.4358L86.2184 30.7856H96.3917Z" fill="#F35B70"/>
<path d="M75.5054 27.735V26.292H76.2877V27.735C76.2877 28.56 76.5929 29.2629 77.2037 29.844C77.7853 30.3986 78.4834 30.6887 79.2978 30.7147C79.3378 30.7158 82.9741 30.7164 83.0144 30.7164C83.8804 30.7164 84.6188 30.4257 85.2292 29.844C85.8394 29.2629 86.1446 28.56 86.1446 27.735V27.0373L86.9275 26.292V27.735C86.9275 28.7638 86.545 29.642 85.7809 30.3697C85.0164 31.0977 84.0944 31.4615 83.0144 31.4615C82.9659 31.4615 79.3208 31.4609 79.2729 31.4594C78.2551 31.428 77.3813 31.0648 76.652 30.3697C75.8873 29.642 75.5054 28.7638 75.5054 27.735Z" fill="#F35B70"/>
<path d="M80.8254 33.7105H81.6078V34.4556H80.8254V33.7105Z" fill="#F35B70"/>
<path d="M71.6252 24.0777H72.4075V24.8228H71.6252V24.0777Z" fill="#F35B70"/>
<path d="M60.5615 33.7105H61.3438V34.4556H60.5615V33.7105Z" fill="#F35B70"/>
<path d="M64.2587 34.4556H65.3126L66.1097 33.7105H64.2587H63.2048V34.4556H64.2587Z" fill="#F35B70"/>
<path d="M52.7194 34.4556H53.7733L54.5708 33.7105H52.7194H51.6655V34.4556H52.7194Z" fill="#F35B70"/>
<path d="M50.7489 34.4529H47.2887C46.1327 34.4529 45.0463 34.0231 44.2301 33.2431C43.4138 32.4631 42.9667 31.4274 42.971 30.3258C42.9795 28.0664 44.9166 26.2287 47.2887 26.2287H51.6V31.1558L52.9686 31.1497C54.5523 31.1497 55.8387 29.9243 55.8387 28.418V26.3523H56.6379V28.418C56.6379 30.344 54.9927 31.9109 52.9707 31.9109L50.8008 31.9204V26.9897H47.2887C45.3558 26.9897 43.7772 28.4876 43.7703 30.3287C43.7666 31.2259 44.1313 32.0703 44.796 32.7062C45.4613 33.3416 46.3463 33.6917 47.2887 33.6917H50.7489V34.4529Z" fill="#F35B70"/>
<path d="M63.2051 31.7234L64.0004 30.9621L65.7708 30.9541C67.3542 30.9541 68.6409 29.7287 68.6409 28.2224V26.3529H69.4402V28.2224C69.4402 30.1484 67.7949 31.7153 65.7727 31.7153L63.2051 31.7234Z" fill="#F35B70"/>
<path d="M60.9711 31.7226C60.0657 31.7226 59.2131 31.39 58.5669 30.7838C57.9128 30.1698 57.55 29.3503 57.5448 28.4756L57.5039 21.0866L58.3032 21.8414L58.3441 28.4719C58.348 29.1422 58.6263 29.7712 59.1276 30.2417C59.6296 30.7125 60.2994 30.966 60.9972 30.9617C61.6995 30.9553 62.3572 30.6886 62.8491 30.2111C63.3408 29.7337 63.6078 29.1021 63.6008 28.4332L63.5742 26.3571L64.3734 26.3481L64.4001 28.4251C64.4089 29.2981 64.0609 30.1211 63.4199 30.744C62.7782 31.367 61.9207 31.7145 61.005 31.7226H60.9711Z" fill="#F35B70"/>
<path d="M14.4698 27.9245C14.4698 27.0998 14.1646 26.3966 13.5542 25.8155C12.9437 25.2341 12.2057 24.9434 11.3394 24.9434C10.4734 24.9434 9.73506 25.2341 9.12492 25.8155C8.51447 26.3966 8.20924 27.0998 8.20924 27.9245C8.20924 28.7495 8.51447 29.4525 9.12492 30.0336C9.73506 30.6152 10.4734 30.9059 11.3394 30.9059C12.2057 30.9059 12.9437 30.6152 13.5542 30.0336C14.1646 29.4525 14.4698 28.7495 14.4698 27.9245ZM8.98397 30.9059C8.84303 30.8014 8.70482 30.6848 8.56903 30.5555C7.80794 29.83 7.42663 28.9531 7.42663 27.9245C7.42663 26.896 7.80884 26.0179 8.57297 25.2898C9.33739 24.5621 10.2597 24.1981 11.3394 24.1981C12.4196 24.1981 13.3417 24.5621 14.1058 25.2898C14.8702 26.0179 15.2524 26.896 15.2524 27.9245C15.2524 28.9531 14.8702 29.8315 14.1058 30.5592C13.3417 31.2872 12.4196 31.651 11.3394 31.651H5.09577L5.0791 30.9059H8.98397Z" fill="#F35B70"/>
<path d="M25.9844 31.7015C27.6921 31.7015 29.0812 30.3786 29.0812 28.7522V27.7216L28.3007 27.95L28.2822 28.7522C28.2822 29.9588 27.2513 30.9406 25.9844 30.9406V31.7015Z" fill="#F35B70"/>
<path d="M4.69541 30.7553V26.2677H5.47803V30.7553C5.47803 31.7836 5.09581 32.6617 4.33138 33.39C3.56725 34.1174 2.6452 34.4818 1.56493 34.4818H0L0.782619 33.7361H1.56493C2.43121 33.7361 3.16927 33.4457 3.77973 32.8643C4.39018 32.2832 4.69541 31.58 4.69541 30.7553Z" fill="#F35B70"/>
<path d="M39.415 24.0524H40.1973V24.7974H39.415V24.0524Z" fill="#F35B70"/>
<path d="M10.9487 21.1121H11.7313V21.8574H10.9487V21.1121Z" fill="#F35B70"/>
<path d="M30.7978 34.4823H31.8517L32.6488 33.737H30.7978H29.7439V34.4823H30.7978Z" fill="#F35B70"/>
<path d="M23.2408 30.7119V28.1271H24.0231V30.7119C24.0231 31.7404 23.6412 32.6185 22.8764 33.3465C22.1126 34.0743 21.1903 34.4383 20.1103 34.4383H18.5454L19.3277 33.6929H20.1103C20.9766 33.6929 21.7143 33.4023 22.3248 32.8209C22.9355 32.2398 23.2408 31.5366 23.2408 30.7119Z" fill="#F35B70"/>
<path d="M33.9604 31.6018L34.7558 30.8406L36.5262 30.8325C38.1096 30.8325 39.3963 29.6071 39.3963 28.1008V26.2314H40.1956V28.1008C40.1956 30.0268 38.5503 31.5937 36.528 31.5937L33.9604 31.6018Z" fill="#F35B70"/>
<path d="M31.7299 31.6017C30.8245 31.6017 29.9719 31.2691 29.3257 30.6629C28.6716 30.0489 28.3088 29.2294 28.3036 28.3547L28.2627 20.9656L29.062 21.7205L29.1029 28.351C29.1068 29.0213 29.3851 29.6503 29.8864 30.1208C30.3884 30.5916 31.0582 30.8451 31.756 30.8405C32.4586 30.8344 33.116 30.5677 33.6079 30.0902C34.0999 29.6127 34.3666 28.9811 34.3596 28.3123L34.3329 26.2362L35.1322 26.2272L35.1589 28.3039C35.1677 29.1771 34.8197 30.0001 34.1787 30.6231C33.537 31.246 32.6798 31.5936 31.7638 31.6017H31.7299Z" fill="#F35B70"/>
<path d="M20.0851 24.9423C18.3441 24.9423 16.9271 26.2919 16.9271 27.95C16.9271 29.6081 18.3441 30.9576 20.0851 30.9576H23.2425V27.95C23.2425 26.2919 21.8261 24.9423 20.0851 24.9423ZM24.0236 31.7015H20.0851C17.9131 31.7015 16.146 30.0186 16.146 27.95C16.146 25.8814 17.9131 24.1984 20.0851 24.1984C22.2574 24.1984 24.0236 25.8814 24.0236 27.95V31.7015Z" fill="#F35B70"/>
<path d="M25.9824 31.7017H23.6309V30.9578H25.9824V31.7017Z" fill="#F35B70"/>
</svg>
