<svg width="32" height="32" viewBox="0 0 32 32" fill="none" xmlns="http://www.w3.org/2000/svg">
<path d="M11.0397 3.33407C11.8797 3.35961 12.6931 3.50628 13.4811 3.77428H13.5597C13.6131 3.79961 13.6531 3.82761 13.6797 3.85295C13.9744 3.94761 14.2531 4.05428 14.5197 4.20095L15.0264 4.42761C15.2264 4.53428 15.4664 4.73295 15.5997 4.81428C15.7331 4.89295 15.8797 4.97428 15.9997 5.06628C17.4811 3.93428 19.2797 3.32095 21.1331 3.33407C21.9744 3.33407 22.8144 3.45295 23.6131 3.72095C28.5344 5.32095 30.3077 10.7209 28.8264 15.4409C27.9864 17.8529 26.6131 20.0543 24.8144 21.8529C22.2397 24.3463 19.4144 26.5596 16.3731 28.4663L16.0397 28.6676L15.6931 28.4529C12.6411 26.5596 9.79973 24.3463 7.20106 21.8396C5.4144 20.0409 4.03973 17.8529 3.1864 15.4409C1.67973 10.7209 3.45306 5.32095 8.42773 3.69295C8.8144 3.55961 9.21306 3.46628 9.61306 3.41428H9.77306C10.1477 3.35961 10.5197 3.33407 10.8931 3.33407H11.0397ZM22.9197 7.54761C22.3731 7.35961 21.7731 7.65428 21.5731 8.21428C21.3864 8.77428 21.6797 9.38761 22.2397 9.58628C23.0944 9.90628 23.6664 10.7476 23.6664 11.6796V11.7209C23.6411 12.0263 23.7331 12.3209 23.9197 12.5476C24.1064 12.7743 24.3864 12.9063 24.6797 12.9343C25.2264 12.9196 25.6931 12.4809 25.7331 11.9196V11.7609C25.7731 9.89295 24.6411 8.20095 22.9197 7.54761Z" fill="#F72222"/>
</svg>
