<svg width="30" height="31" viewBox="0 0 30 31" fill="none" xmlns="http://www.w3.org/2000/svg">
<g clip-path="url(#clip0)">
<path d="M17.8711 15.0137C17.8711 16.5994 16.5857 17.8848 15 17.8848C13.4143 17.8848 12.1289 16.5994 12.1289 15.0137C12.1289 13.428 13.4143 12.1426 15 12.1426C16.5857 12.1426 17.8711 13.428 17.8711 15.0137Z" fill="#848484"/>
<path d="M21.7144 9.93407C21.5764 9.56007 21.3562 9.22156 21.0701 8.9437C20.7923 8.65759 20.454 8.43741 20.0797 8.29939C19.7762 8.18152 19.3203 8.04121 18.4805 8.00299C17.5721 7.96156 17.2997 7.95264 14.9999 7.95264C12.6999 7.95264 12.4275 7.96133 11.5193 8.00276C10.6796 8.04121 10.2234 8.18152 9.92014 8.29939C9.54591 8.43741 9.2074 8.65759 8.92976 8.9437C8.64366 9.22156 8.42348 9.55984 8.28523 9.93407C8.16736 10.2376 8.02705 10.6937 7.98883 11.5335C7.9474 12.4417 7.93848 12.7141 7.93848 15.0141C7.93848 17.3139 7.9474 17.5863 7.98883 18.4947C8.02705 19.3345 8.16736 19.7904 8.28523 20.0939C8.42348 20.4681 8.64343 20.8064 8.92953 21.0843C9.2074 21.3704 9.54568 21.5906 9.91991 21.7286C10.2234 21.8467 10.6796 21.987 11.5193 22.0252C12.4275 22.0666 12.6997 22.0753 14.9997 22.0753C17.3 22.0753 17.5723 22.0666 18.4803 22.0252C19.3201 21.987 19.7762 21.8467 20.0797 21.7286C20.8309 21.4388 21.4247 20.8451 21.7144 20.0939C21.8323 19.7904 21.9726 19.3345 22.011 18.4947C22.0525 17.5863 22.0612 17.3139 22.0612 15.0141C22.0612 12.7141 22.0525 12.4417 22.011 11.5335C21.9728 10.6937 21.8325 10.2376 21.7144 9.93407ZM14.9999 19.4368C12.5571 19.4368 10.5768 17.4567 10.5768 15.0139C10.5768 12.571 12.5571 10.591 14.9999 10.591C17.4426 10.591 19.4229 12.571 19.4229 15.0139C19.4229 17.4567 17.4426 19.4368 14.9999 19.4368ZM19.5977 11.4497C19.0269 11.4497 18.5641 10.9869 18.5641 10.4161C18.5641 9.84526 19.0269 9.38246 19.5977 9.38246C20.1685 9.38246 20.6313 9.84526 20.6313 10.4161C20.6311 10.9869 20.1685 11.4497 19.5977 11.4497Z" fill="#848484"/>
<path d="M15 0.0136719C6.717 0.0136719 0 6.73067 0 15.0137C0 23.2967 6.717 30.0137 15 30.0137C23.283 30.0137 30 23.2967 30 15.0137C30 6.73067 23.283 0.0136719 15 0.0136719ZM23.5613 18.5648C23.5197 19.4817 23.3739 20.1077 23.161 20.6556C22.7135 21.8126 21.7989 22.7272 20.6419 23.1747C20.0942 23.3875 19.468 23.5331 18.5513 23.575C17.6328 23.6169 17.3394 23.627 15.0002 23.627C12.6608 23.627 12.3676 23.6169 11.4489 23.575C10.5322 23.5331 9.90601 23.3875 9.35829 23.1747C8.78334 22.9584 8.26286 22.6194 7.83257 22.1811C7.39449 21.751 7.05551 21.2303 6.83922 20.6556C6.62636 20.1079 6.48056 19.4817 6.4389 18.565C6.39656 17.6463 6.38672 17.3528 6.38672 15.0137C6.38672 12.6745 6.39656 12.3811 6.43867 11.4626C6.48033 10.5457 6.6259 9.91968 6.83876 9.37173C7.05505 8.79701 7.39426 8.27631 7.83257 7.84624C8.26263 7.40793 8.78334 7.06895 9.35806 6.85266C9.90601 6.6398 10.532 6.49423 11.4489 6.45235C12.3674 6.41046 12.6608 6.40039 15 6.40039C17.3392 6.40039 17.6326 6.41046 18.5511 6.45258C19.468 6.49423 20.094 6.6398 20.6419 6.85243C21.2167 7.06873 21.7374 7.40793 22.1677 7.84624C22.6057 8.27654 22.9449 8.79701 23.161 9.37173C23.3741 9.91968 23.5197 10.5457 23.5616 11.4626C23.6034 12.3811 23.6133 12.6745 23.6133 15.0137C23.6133 17.3528 23.6034 17.6463 23.5613 18.5648Z" fill="#848484"/>
</g>
<defs>
<clipPath id="clip0">
<rect width="30" height="30" fill="white" transform="translate(0 0.0136719)"/>
</clipPath>
</defs>
</svg>
