<svg width="28" height="28" viewBox="0 0 28 28" fill="none" xmlns="http://www.w3.org/2000/svg">
<path d="M9.95357 3.42615C12.5026 1.94507 15.6357 1.97096 18.1608 3.49396C20.661 5.04799 22.1806 7.82146 22.1666 10.8049C22.1083 13.7688 20.4789 16.5549 18.4421 18.7087C17.2665 19.9574 15.9514 21.0616 14.5237 21.9986C14.3766 22.0837 14.2156 22.1406 14.0484 22.1666C13.8875 22.1597 13.7309 22.1122 13.5926 22.0283C11.4128 20.6202 9.50057 18.823 7.94773 16.7229C6.64836 14.9698 5.91015 12.8519 5.83334 10.6567L5.83916 10.3374C5.94525 7.472 7.4956 4.85434 9.95357 3.42615ZM15.0585 8.20716C14.0223 7.76669 12.8276 8.00599 12.0322 8.81332C11.2369 9.62066 10.9978 10.8368 11.4265 11.8938C11.8553 12.9509 12.8674 13.6404 13.9902 13.6404C14.7258 13.6457 15.4329 13.3511 15.954 12.8221C16.475 12.2932 16.7667 11.574 16.7641 10.8247C16.7681 9.68096 16.0947 8.64762 15.0585 8.20716Z" fill="#F03861"/>
<path opacity="0.4" d="M14 25.6666C17.2217 25.6666 19.8334 25.1443 19.8334 24.4999C19.8334 23.8556 17.2217 23.3333 14 23.3333C10.7784 23.3333 8.16669 23.8556 8.16669 24.4999C8.16669 25.1443 10.7784 25.6666 14 25.6666Z" fill="#F03861"/>
</svg>
