<svg width="245" height="227" viewBox="0 0 245 227" fill="none" xmlns="http://www.w3.org/2000/svg">
<g opacity="0.02">
<path d="M76.7105 107.231C90.4952 109.748 103.047 114.652 114.071 121.833C118.663 124.824 122.847 128.194 126.571 131.895C128.4 126.818 130.781 121.864 133.687 117.102C140.317 106.232 149.648 96.7498 161.456 88.8758C144.905 68.8541 117.746 54.0819 108.752 49.5281C102.375 57.2206 83.6307 81.3773 76.7105 107.231ZM139.455 188.973C139.821 182.822 139.706 166.901 130.814 151.137C129.172 169.147 134.934 183.778 137.566 189.375L139.455 188.973ZM132.981 139.19C149.956 161.397 148.271 186.424 147.708 191.565L151.238 187.861C151.564 187.513 184.332 152.187 173.376 110.559C172.051 105.52 169.628 100.355 166.161 95.1654C155.457 102.326 147.016 110.903 141.041 120.7C137.444 126.596 134.736 132.809 132.981 139.19ZM75.0357 114.906C73.4317 124.535 73.9421 133.295 76.5622 140.985C83.491 161.328 93.1399 175.015 126.644 193.371L131.507 196.037L131.374 195.81C131.233 195.575 117.13 171.49 123.87 141.196C119.698 136.303 114.701 131.947 108.996 128.23C98.9815 121.708 87.572 117.233 75.0357 114.906ZM32.2194 115.1C31.0948 124.825 28.9484 158.623 49.2634 182.908C61.6118 197.669 83.4868 204.932 89.6035 206.736C93.5228 204.842 102.82 200.371 104.99 199.49C108.387 198.111 111.759 196.872 114.65 195.859C84.8367 178.288 75.472 164.118 68.4678 143.559C65.4405 134.67 64.8587 124.637 66.7316 113.695C51.0242 112.011 38.0792 113.934 32.2194 115.1ZM163.34 185.681C169.69 185.287 178.923 184.983 190.36 185.361C196.147 180.917 218.909 161.702 220.045 133.68C221.128 106.908 209.524 85.1217 205.432 78.324C200.038 79.5699 186.983 83.1184 173.319 90.7792C177.291 96.6857 180.078 102.621 181.615 108.464C190.612 142.646 172.979 172.576 163.34 185.681ZM88.6209 214.675C88.3196 214.598 58.4456 206.882 42.473 187.787C16.4624 156.695 24.1387 111.947 24.2195 111.5L24.666 108.985L27.3445 108.262C27.3684 108.255 28.1581 108.044 29.5769 107.743C35.3576 106.515 50.2375 104.016 68.4085 106.019C77.2058 72.7012 104.222 42.4477 104.502 42.1364L106.727 39.6744L109.735 41.0583C110.118 41.2344 147.419 58.5408 168.619 84.4692C184.938 75.224 200.571 71.4314 205.173 70.4539C206.322 70.2097 206.973 70.098 207.029 70.0889L209.733 69.637L211.199 71.7174C211.394 71.9967 229.915 98.941 228.509 133.673C227.072 169.172 194.452 192.146 194.124 192.374L192.857 193.246L191.319 193.187C169.264 192.349 155.404 194.127 154.825 194.202L147.155 195.243L147.154 195.251L132.844 198.291L132.811 198.235L125.552 200.42C125.196 200.527 116.715 203.111 108.163 206.581C106.307 207.335 96.6192 211.987 91.7566 214.342L90.2389 215.083L88.6209 214.675Z" fill="#F03861"/>
<path d="M72.3909 109.893C84.9783 111.785 98.8314 116.032 111.913 124.553C118.565 128.885 123.877 133.734 128.115 138.793C129.854 132.268 132.631 125.485 136.811 118.632C144.669 105.749 155.609 96.3485 166.538 89.5685C147.713 64.8177 112.296 47.3949 107.874 45.2848C104.679 48.9435 79.5183 78.5201 72.3909 109.893ZM135.46 193.185L142.825 191.621C143.248 188.142 145.552 163.296 128.725 141.547C122.623 168.279 133.767 190.089 135.46 193.185ZM28.9613 112.445C28.2914 116.802 22.914 156.935 46.3764 184.983C60.6903 202.093 87.0515 209.549 89.8379 210.298C91.7427 209.376 103.954 203.472 106.338 202.505C113.267 199.693 120.066 197.473 122.863 196.59C89.0232 177.852 79.1061 163.597 71.9074 142.465C68.4645 132.356 68.6376 121.515 70.9075 110.86C49.3663 107.863 31.824 111.746 28.9613 112.445ZM155.861 189.599C160.144 189.144 173.051 188.026 191.47 188.712C194.032 186.86 222.346 165.658 223.641 133.678C224.913 102.259 209.327 77.6329 207.294 74.5643C204.368 75.1234 186.494 78.8544 168.305 89.8556C172.813 95.9612 176.308 102.497 178.114 109.355C188.595 149.182 161.522 183.072 155.861 189.599ZM89.9376 211.547L89.6955 211.486C89.4064 211.413 60.6501 203.994 45.3588 185.714C20.3182 155.781 27.692 112.351 27.77 111.916L27.8371 111.538L28.238 111.429C28.5276 111.348 47.4547 106.413 71.1606 109.714C78.8071 76.0712 106.864 44.6028 107.241 44.1854L107.573 43.8167L108.025 44.0244C108.509 44.2473 147.416 62.3759 167.602 88.9157C187.597 76.8152 207.221 73.3921 207.526 73.3424L207.934 73.2744L208.154 73.5865C208.335 73.8463 226.279 99.8705 224.912 133.677C223.538 167.589 192.34 189.546 192.026 189.764L191.837 189.895L191.605 189.886C168.905 189.024 154.59 190.913 154.448 190.932L152.787 191.157L153.907 189.982C154.253 189.619 188.339 153.218 176.877 109.669C175.106 102.937 171.673 96.5126 167.241 90.5068C156.455 97.1974 145.664 106.467 137.914 119.172C133.59 126.259 130.79 133.271 129.097 139.993C148.184 163.864 144.082 191.81 144.027 192.155L143.962 192.566L134.77 194.519L134.55 194.147C134.374 193.853 120.508 169.919 127.732 140.295C123.461 135.04 118.034 129.994 111.153 125.511C98.2386 117.101 84.5668 112.908 72.1395 111.039C69.911 121.517 69.743 132.162 73.1209 142.08C80.31 163.183 90.2634 177.353 124.713 196.227L125.9 196.877L124.549 197.283C124.461 197.31 115.746 199.944 106.813 203.568C104.323 204.579 90.3054 211.368 90.1646 211.436L89.9376 211.547Z" fill="white"/>
<path d="M104.829 29.3008C103.951 29.4873 103.376 30.2888 103.545 31.087C103.715 31.8863 104.567 32.3839 105.445 32.1974C106.321 32.0112 106.897 31.2103 106.727 30.411C106.558 29.6127 105.706 29.1146 104.829 29.3008ZM107.053 39.7693C101.589 40.93 96.285 37.8281 95.2283 32.8538C94.1718 27.8805 97.757 22.8896 103.221 21.7289C108.683 20.5685 113.987 23.671 115.044 28.6443C116.101 33.6186 112.516 38.6089 107.053 39.7693Z" fill="#F03861"/>
<path d="M104.146 26.0826C101.319 26.683 99.4639 29.2647 100.011 31.838C100.557 34.4107 103.302 36.0162 106.129 35.4158C108.955 34.8153 110.809 32.2328 110.263 29.6601C109.716 27.0868 106.972 25.4821 104.146 26.0826ZM106.37 36.551C102.855 37.2977 99.4432 35.3022 98.7635 32.1029C98.084 28.9041 100.39 25.6939 103.905 24.9473C107.418 24.201 110.83 26.1965 111.509 29.3953C112.189 32.5946 109.883 35.8048 106.37 36.551Z" fill="white"/>
<path d="M212.491 73.3379C207.957 74.301 203.554 71.7254 202.677 67.5973C201.8 63.4688 204.776 59.3257 209.31 58.3626C213.844 57.3992 218.247 59.9749 219.124 64.1034C220.001 68.2314 217.026 72.3745 212.491 73.3379Z" fill="#F03861"/>
<path d="M210.235 62.7157C208.337 63.1188 207.092 64.8526 207.459 66.5811C207.826 68.3092 209.669 69.3869 211.566 68.9838C213.464 68.5806 214.71 66.8467 214.343 65.1187C213.976 63.3901 212.133 62.3125 210.235 62.7157ZM211.807 70.1191C209.222 70.6683 206.712 69.1994 206.212 66.8459C205.712 64.4919 207.408 62.1296 209.993 61.5804C212.579 61.0313 215.09 62.4997 215.59 64.8538C216.09 67.2073 214.392 69.5699 211.807 70.1191Z" fill="white"/>
<path d="M23.4313 113.5C18.8976 114.464 14.4946 111.888 13.6177 107.76C12.7406 103.631 15.7163 99.4883 20.25 98.5252C24.7848 97.5618 29.1878 100.137 30.0648 104.266C30.9418 108.394 27.9661 112.537 23.4313 113.5Z" fill="#F03861"/>
<path d="M21.1746 102.879C19.2771 103.282 18.0316 105.015 18.3988 106.744C18.7659 108.472 20.6087 109.55 22.5062 109.147C24.4042 108.743 25.6503 107.01 25.2832 105.282C24.916 103.553 23.0727 102.475 21.1746 102.879ZM22.7473 110.282C20.1622 110.831 17.6524 109.362 17.1524 107.009C16.6524 104.655 18.3483 102.292 20.9334 101.743C23.5185 101.194 26.0301 102.663 26.5302 105.017C27.0301 107.37 25.3324 109.733 22.7473 110.282Z" fill="white"/>
</g>
</svg>
