<svg width="44" height="41" viewBox="0 0 44 41" fill="none" xmlns="http://www.w3.org/2000/svg">
<path d="M13.2238 16.8636C15.8981 18.0134 18.2212 19.6118 20.1384 21.6224C20.9369 22.4599 21.637 23.3591 22.2298 24.3076C22.8167 23.3175 23.5097 22.3784 24.3003 21.5033C26.1045 19.5056 28.3943 17.9221 31.1152 16.7892C28.6331 11.8196 23.7849 7.48244 22.165 6.11759C20.5481 7.45574 15.7291 11.7154 13.2238 16.8636ZM22.3829 36.9367C22.7206 35.6543 23.38 32.2876 22.2611 28.5604C21.1576 32.2894 21.6931 35.6369 21.9845 36.9367H22.3829ZM23.2107 26.1352C25.6848 31.5854 24.2716 36.7938 23.9376 37.854L24.8088 37.2303C24.8896 37.1715 33.0179 31.1826 32.5914 21.9021C32.5401 20.7786 32.2724 19.5796 31.7952 18.3282C29.3278 19.36 27.2564 20.7924 25.6302 22.5929C24.6515 23.6763 23.8385 24.8668 23.2107 26.1352ZM12.5568 18.4089C11.8201 20.3702 11.5475 22.2426 11.7467 23.9836C12.2729 28.5896 13.6335 31.9121 19.6087 37.2906L20.476 38.0716L20.4587 38.0177C20.4405 37.9619 18.6267 32.2439 21.2858 26.1501C20.6537 24.9298 19.8319 23.786 18.8397 22.7454C17.0981 20.9191 14.9872 19.4626 12.5568 18.4089ZM3.90666 16.5296C3.2627 18.5325 1.38039 25.572 4.43936 31.6108C6.29878 35.2813 10.4025 37.7959 11.5597 38.4511C12.4319 38.2271 14.5 37.6999 14.9759 37.6113C15.7206 37.4726 16.4544 37.3621 17.0813 37.2779C11.8173 32.2309 10.5348 28.819 10.0026 24.1642C9.7727 22.1515 10.0854 20.0071 10.9326 17.7809C7.83457 16.7207 5.13938 16.5461 3.90666 16.5296ZM27.345 37.3129C28.6434 37.5145 30.5199 37.8645 32.8121 38.4573C34.1707 37.7785 39.5887 34.7426 41.0195 28.877C42.386 23.273 40.9778 18.1526 40.4436 16.5338C39.3013 16.5549 36.5143 16.7186 33.428 17.7232C33.9765 19.1485 34.2845 20.5267 34.3442 21.8292C34.6944 29.4498 29.8523 34.9784 27.345 37.3129ZM11.021 40.0832C10.9634 40.0536 5.26473 37.0844 2.85963 32.3364C-1.05702 24.6049 2.4109 15.5014 2.4464 15.4105L2.64432 14.8997L3.21595 14.8672C3.22109 14.8667 3.38951 14.8576 3.68879 14.8576C4.90817 14.8576 8.01854 14.9975 11.6002 16.2354C14.8043 9.59534 21.5542 4.41946 21.6241 4.3663L22.1787 3.94628L22.7266 4.37341C22.7962 4.42773 29.5827 9.75481 32.7499 16.1801C36.44 14.9601 39.758 14.8605 40.7286 14.8605C40.9711 14.8605 41.1072 14.8661 41.1189 14.8667L41.684 14.8926L41.8907 15.3976C41.9181 15.4653 44.501 21.9849 42.7281 29.2552C40.9159 36.6857 33.3471 40.0734 33.2711 40.1068L32.9781 40.2341L32.6701 40.1526C28.2546 38.9864 25.381 38.7401 25.2608 38.7301L23.6682 38.6058L23.6677 38.6075H20.649L20.6448 38.5943L19.0861 38.7299C19.0097 38.7366 17.187 38.9018 15.3122 39.2508C14.9053 39.3267 12.7505 39.8745 11.6681 40.1536L11.33 40.2419L11.021 40.0832Z" fill="#F03861"/>
<path d="M12.2377 17.2317C14.6971 18.1957 17.311 19.7138 19.586 22.0997C20.7427 23.3128 21.607 24.5748 22.2456 25.833C22.8762 24.5333 23.7275 23.2257 24.8651 21.9663C27.0035 19.5987 29.6146 18.1046 32.111 17.1633C29.3729 11.0931 22.9716 5.82597 22.1696 5.18213C21.3677 5.81128 15.0214 10.9275 12.2377 17.2317ZM21.3959 37.6467H22.9494C23.1839 36.9312 24.7143 31.7885 22.2505 26.4418C19.8728 31.8123 21.1868 36.9169 21.3959 37.6467ZM3.36274 15.8227C3.0407 16.7126 0.234614 24.9449 3.76753 31.9192C5.92292 36.1738 10.9238 38.9303 11.4541 39.2136C11.8781 39.1042 14.5958 38.4054 15.1184 38.3083C16.6375 38.0252 18.1051 37.8615 18.7074 37.8006C12.6808 32.3265 11.2904 28.8718 10.7435 24.0873C10.4821 21.7985 10.9818 19.5172 11.8968 17.3695C7.67757 15.7705 3.97047 15.8035 3.36274 15.8227ZM25.6671 37.8045C26.5512 37.9005 29.2041 38.2434 32.8922 39.2144C33.4889 38.9382 40.1126 35.7317 41.7452 29.0376C43.3491 22.461 41.2591 16.5624 40.9804 15.8234C40.3659 15.8102 36.5982 15.7962 32.4555 17.3031C33.1036 18.7945 33.5287 20.3312 33.5991 21.8601C34.0069 30.7391 27.0896 36.6804 25.6671 37.8045ZM11.4207 39.4817L11.3744 39.458C11.3192 39.4296 5.83332 36.5733 3.5308 32.0278C-0.23982 24.5848 3.11059 15.7458 3.14499 15.6575L3.17473 15.5806L3.26029 15.5758C3.32223 15.5717 7.35394 15.3786 11.997 17.1388C14.9828 10.3785 21.9949 4.99282 22.0888 4.92159L22.1717 4.85864L22.2539 4.92276C22.3422 4.99154 29.4176 10.5642 32.3538 17.0731C36.9082 15.4151 41.016 15.5726 41.0795 15.5758L41.1648 15.5797L41.1959 15.6555C41.2212 15.7184 43.7272 22.018 42.0017 29.0944C40.2704 36.1929 33.0321 39.4296 32.9595 39.4614L32.9156 39.4805L32.8693 39.4683C28.3246 38.2682 25.3543 38.025 25.3248 38.0225L24.98 37.9956L25.2563 37.7977C25.3419 37.7366 33.7822 31.5798 33.336 21.8709C33.2673 20.3701 32.8499 18.8598 32.2127 17.3929C29.7489 18.3218 27.1734 19.7949 25.0645 22.1298C23.888 23.4321 23.0222 24.7872 22.3924 26.1305C25.2212 32.0266 23.1951 37.7431 23.1691 37.8133L23.1383 37.8972H21.1994L21.1709 37.809C21.148 37.739 19.3755 32.0637 22.1039 26.1329C21.4671 24.832 20.5881 23.5229 19.3914 22.2679C17.1456 19.9129 14.5659 18.4144 12.1378 17.4624C11.2388 19.5748 10.7484 21.8149 11.005 24.0604C11.5511 28.8385 12.9525 32.2766 19.0963 37.8068L19.3079 37.9974L19.018 38.0225C18.9991 38.0243 17.1271 38.1894 15.1688 38.5539C14.623 38.6556 11.5025 39.4605 11.4712 39.4685L11.4207 39.4817Z" fill="white"/>
<path d="M22.2405 1.67093C22.0553 1.67093 21.9048 1.81431 21.9048 1.99046C21.9048 2.16683 22.0553 2.3101 22.2405 2.3101C22.4255 2.3101 22.576 2.16683 22.576 1.99046C22.576 1.81431 22.4255 1.67093 22.2405 1.67093ZM22.2405 3.98096C21.088 3.98096 20.1504 3.08812 20.1504 1.99046C20.1504 0.893029 21.088 7.24792e-05 22.2405 7.24792e-05C23.3928 7.24792e-05 24.3303 0.893029 24.3303 1.99046C24.3303 3.08812 23.3928 3.98096 22.2405 3.98096Z" fill="#F03861"/>
<path d="M22.2404 0.960722C21.6442 0.960722 21.159 1.42259 21.159 1.99042C21.159 2.55814 21.6442 3.02023 22.2404 3.02023C22.8366 3.02023 23.3216 2.55814 23.3216 1.99042C23.3216 1.42259 22.8366 0.960722 22.2404 0.960722ZM22.2404 3.27075C21.4991 3.27075 20.896 2.69639 20.896 1.99042C20.896 1.28456 21.4991 0.710205 22.2404 0.710205C22.9814 0.710205 23.5845 1.28456 23.5845 1.99042C23.5845 2.69639 22.9814 3.27075 22.2404 3.27075Z" fill="white"/>
<path d="M42.0827 15.7976C41.1264 15.7976 40.3481 15.0563 40.3481 14.1454C40.3481 13.2344 41.1264 12.4931 42.0827 12.4931C43.0393 12.4931 43.8175 13.2344 43.8175 14.1454C43.8175 15.0563 43.0393 15.7976 42.0827 15.7976Z" fill="#F03861"/>
<path d="M42.0826 13.4537C41.6824 13.4537 41.3567 13.7639 41.3567 14.1454C41.3567 14.5267 41.6824 14.8369 42.0826 14.8369C42.483 14.8369 42.8089 14.5267 42.8089 14.1454C42.8089 13.7639 42.483 13.4537 42.0826 13.4537ZM42.0826 15.0874C41.5373 15.0874 41.0938 14.6647 41.0938 14.1454C41.0938 13.6259 41.5373 13.2032 42.0826 13.2032C42.6279 13.2032 43.0719 13.6259 43.0719 14.1454C43.0719 14.6647 42.6279 15.0874 42.0826 15.0874Z" fill="white"/>
<path d="M2.20184 15.7976C1.24552 15.7976 0.467285 15.0563 0.467285 14.1454C0.467285 13.2344 1.24552 12.4931 2.20184 12.4931C3.15841 12.4931 3.93665 13.2344 3.93665 14.1454C3.93665 15.0563 3.15841 15.7976 2.20184 15.7976Z" fill="#F03861"/>
<path d="M2.20178 13.4537C1.80153 13.4537 1.47581 13.7639 1.47581 14.1454C1.47581 14.5267 1.80153 14.8369 2.20178 14.8369C2.60216 14.8369 2.928 14.5267 2.928 14.1454C2.928 13.7639 2.60216 13.4537 2.20178 13.4537ZM2.20178 15.0874C1.65648 15.0874 1.21289 14.6647 1.21289 14.1454C1.21289 13.6259 1.65648 13.2032 2.20178 13.2032C2.74709 13.2032 3.19104 13.6259 3.19104 14.1454C3.19104 14.6647 2.74709 15.0874 2.20178 15.0874Z" fill="white"/>
</svg>
