<svg width="39" height="39" viewBox="0 0 39 39" fill="none" xmlns="http://www.w3.org/2000/svg">
<g opacity="0.1">
<path d="M11.4768 15.9299C13.8827 17.016 15.9727 18.526 17.6975 20.4252C18.4159 21.2163 19.0457 22.0658 19.579 22.9617C20.107 22.0265 20.7305 21.1394 21.4418 20.3127C23.065 18.4257 25.125 16.9298 27.5728 15.8597C25.3398 11.1651 20.9781 7.06812 19.5208 5.77883C18.0661 7.0429 13.7306 11.0667 11.4768 15.9299ZM19.7168 34.8917C20.0206 33.6803 20.6138 30.5 19.6072 26.9791C18.6145 30.5017 19.0962 33.6639 19.3583 34.8917H19.7168ZM20.4615 24.6882C22.6874 29.8366 21.4159 34.7567 21.1155 35.7582L21.8992 35.169C21.9719 35.1135 29.2845 29.4562 28.9009 20.6894C28.8547 19.6282 28.6139 18.4955 28.1846 17.3135C25.9648 18.2881 24.1012 19.6412 22.6383 21.342C21.7577 22.3654 21.0263 23.49 20.4615 24.6882ZM10.8767 17.3897C10.214 19.2423 9.96871 21.0111 10.1479 22.6557C10.6213 27.0067 11.8454 30.1453 17.221 35.226L18.0012 35.9637L17.9857 35.9129C17.9693 35.8601 16.3375 30.4587 18.7298 24.7023C18.1611 23.5496 17.4218 22.4691 16.5291 21.486C14.9623 19.7609 13.0632 18.385 10.8767 17.3897ZM3.09458 15.6144C2.51524 17.5064 0.82181 24.1562 3.57382 29.8607C5.24665 33.3279 8.93854 35.7033 9.97962 36.3223C10.7643 36.1106 12.6249 35.6127 13.0531 35.529C13.723 35.3979 14.3832 35.2935 14.9471 35.214C10.2114 30.4464 9.05758 27.2234 8.57878 22.8263C8.37197 20.9251 8.65333 18.8994 9.41547 16.7965C6.62833 15.7949 4.2036 15.63 3.09458 15.6144ZM24.1809 35.2471C25.3491 35.4375 27.0372 35.7682 29.0994 36.3281C30.3217 35.6869 35.196 32.819 36.4832 27.2782C37.7126 21.9844 36.4458 17.1475 35.9651 15.6184C34.9375 15.6383 32.4301 15.7929 29.6536 16.7419C30.147 18.0883 30.4241 19.3902 30.4778 20.6206C30.7929 27.8193 26.4366 33.0418 24.1809 35.2471ZM9.49498 37.864C9.44322 37.836 4.31636 35.0312 2.15261 30.546C-1.37101 23.2427 1.74891 14.6432 1.78085 14.5573L1.95891 14.0747L2.47317 14.044C2.4778 14.0436 2.62932 14.035 2.89856 14.035C3.99558 14.035 6.79384 14.1671 10.0161 15.3365C12.8987 9.06404 18.9713 4.17471 19.0341 4.1245L19.5331 3.72773L20.026 4.13121C20.0886 4.18253 26.1941 9.21469 29.0435 15.2843C32.3633 14.1318 35.3483 14.0377 36.2216 14.0377C36.4397 14.0377 36.5622 14.043 36.5726 14.0436L37.081 14.068L37.267 14.545C37.2917 14.609 39.6154 20.7677 38.0204 27.6355C36.39 34.6546 29.5808 37.8547 29.5124 37.8863L29.2488 38.0066L28.9717 37.9296C24.9992 36.828 22.414 36.5953 22.3059 36.5858L20.8731 36.4684L20.8727 36.47H18.1569L18.1531 36.4575L16.7508 36.5856C16.6821 36.592 15.0423 36.748 13.3556 37.0777C12.9895 37.1494 11.051 37.6668 10.0772 37.9305L9.77303 38.0139L9.49498 37.864Z" fill="#F03861"/>
<path d="M10.5896 16.2777C12.8022 17.1884 15.1538 18.6224 17.2005 20.8762C18.2411 22.0221 19.0187 23.2143 19.5932 24.4028C20.1605 23.1751 20.9264 21.9398 21.9499 20.7502C23.8737 18.5137 26.2228 17.1023 28.4687 16.2131C26.0053 10.479 20.2463 5.50344 19.5248 4.89524C18.8034 5.48956 13.0939 10.3225 10.5896 16.2777ZM18.8288 35.5625H20.2264C20.4374 34.8866 21.8142 30.0286 19.5976 24.9779C17.4585 30.0511 18.6407 34.8731 18.8288 35.5625ZM2.6052 14.9467C2.31548 15.7873 -0.209027 23.5639 2.96937 30.152C4.90847 34.1711 9.40754 36.775 9.88458 37.0426C10.266 36.9393 12.711 36.2791 13.1812 36.1874C14.5478 35.92 15.8682 35.7654 16.4101 35.7078C10.9882 30.5368 9.73735 27.2734 9.24533 22.7537C9.01012 20.5916 9.45974 18.4367 10.2829 16.4079C6.48704 14.8974 3.15195 14.9286 2.6052 14.9467ZM22.6714 35.7116C23.4668 35.8022 25.8534 36.1262 29.1714 37.0434C29.7083 36.7825 35.6673 33.7535 37.1361 27.43C38.579 21.2175 36.6987 15.6455 36.448 14.9473C35.8952 14.9349 32.5056 14.9217 28.7785 16.3452C29.3616 17.754 29.7441 19.2056 29.8074 20.6499C30.1743 29.0373 23.9511 34.6497 22.6714 35.7116ZM9.85452 37.2959L9.81289 37.2735C9.76323 37.2466 4.82787 34.5485 2.7564 30.2547C-0.635852 23.2237 2.37835 14.8741 2.4093 14.7906L2.43606 14.7181L2.51303 14.7134C2.56875 14.7096 6.19589 14.5272 10.3731 16.1899C13.0592 9.80396 19.3677 4.71641 19.4521 4.64912L19.5267 4.58966L19.6007 4.65023C19.6801 4.7152 26.0455 9.97938 28.687 16.1279C32.7845 14.5617 36.48 14.7105 36.5372 14.7134L36.6139 14.7172L36.6419 14.7888C36.6647 14.8482 38.9192 20.799 37.3668 27.4836C35.8093 34.1892 29.2973 37.2466 29.232 37.2767L29.1925 37.2948L29.1509 37.2832C25.0622 36.1495 22.3899 35.9198 22.3634 35.9175L22.0532 35.8921L22.3018 35.7051C22.3788 35.6474 29.9721 29.8315 29.5707 20.66C29.5089 19.2423 29.1333 17.8156 28.5602 16.43C26.3436 17.3074 24.0265 18.699 22.1293 20.9046C21.0708 22.1349 20.2919 23.4149 19.7252 24.6838C22.2702 30.2535 20.4474 35.6535 20.4241 35.7198L20.3963 35.7991H18.652L18.6264 35.7158C18.6058 35.6497 17.0111 30.2886 19.4657 24.6861C18.8928 23.4572 18.1021 22.2207 17.0254 21.0351C15.0049 18.8105 12.6842 17.395 10.4997 16.4956C9.69088 18.4911 9.24974 20.6072 9.48055 22.7283C9.9719 27.2419 11.2327 30.4897 16.7599 35.7137L16.9503 35.8937L16.6894 35.9175C16.6725 35.9191 14.9883 36.0751 13.2265 36.4194C12.7355 36.5156 9.92819 37.2758 9.9 37.2834L9.85452 37.2959Z" fill="white"/>
<path d="M19.5884 1.57836C19.4218 1.57836 19.2864 1.71381 19.2864 1.8802C19.2864 2.04681 19.4218 2.18215 19.5884 2.18215C19.7548 2.18215 19.8903 2.04681 19.8903 1.8802C19.8903 1.71381 19.7548 1.57836 19.5884 1.57836ZM19.5884 3.7605C18.5515 3.7605 17.708 2.91709 17.708 1.8802C17.708 0.843528 18.5515 7.86781e-06 19.5884 7.86781e-06C20.6251 7.86781e-06 21.4685 0.843528 21.4685 1.8802C21.4685 2.91709 20.6251 3.7605 19.5884 3.7605Z" fill="#F03861"/>
<path d="M19.5882 0.907552C19.0518 0.907552 18.6153 1.34385 18.6153 1.88024C18.6153 2.41653 19.0518 2.85304 19.5882 2.85304C20.1246 2.85304 20.5609 2.41653 20.5609 1.88024C20.5609 1.34385 20.1246 0.907552 19.5882 0.907552ZM19.5882 3.08969C18.9212 3.08969 18.3787 2.54713 18.3787 1.88024C18.3787 1.21347 18.9212 0.670904 19.5882 0.670904C20.2549 0.670904 20.7974 1.21347 20.7974 1.88024C20.7974 2.54713 20.2549 3.08969 19.5882 3.08969Z" fill="white"/>
<path d="M37.4392 14.9229C36.5788 14.9229 35.8787 14.2226 35.8787 13.3621C35.8787 12.5015 36.5788 11.8013 37.4392 11.8013C38.2998 11.8013 38.9999 12.5015 38.9999 13.3621C38.9999 14.2226 38.2998 14.9229 37.4392 14.9229Z" fill="#F03861"/>
<path d="M37.4392 12.7089C37.0791 12.7089 36.7861 13.0019 36.7861 13.3622C36.7861 13.7224 37.0791 14.0154 37.4392 14.0154C37.7994 14.0154 38.0926 13.7224 38.0926 13.3622C38.0926 13.0019 37.7994 12.7089 37.4392 12.7089ZM37.4392 14.2521C36.9486 14.2521 36.5496 13.8528 36.5496 13.3622C36.5496 12.8715 36.9486 12.4722 37.4392 12.4722C37.9298 12.4722 38.3292 12.8715 38.3292 13.3622C38.3292 13.8528 37.9298 14.2521 37.4392 14.2521Z" fill="white"/>
<path d="M1.56051 14.9229C0.700143 14.9229 0 14.2226 0 13.3621C0 12.5015 0.700143 11.8013 1.56051 11.8013C2.4211 11.8013 3.12124 12.5015 3.12124 13.3621C3.12124 14.2226 2.4211 14.9229 1.56051 14.9229Z" fill="#F03861"/>
<path d="M1.56056 12.7089C1.20047 12.7089 0.907436 13.0019 0.907436 13.3622C0.907436 13.7224 1.20047 14.0154 1.56056 14.0154C1.92076 14.0154 2.2139 13.7224 2.2139 13.3622C2.2139 13.0019 1.92076 12.7089 1.56056 12.7089ZM1.56056 14.2521C1.06997 14.2521 0.670898 13.8528 0.670898 13.3622C0.670898 12.8715 1.06997 12.4722 1.56056 12.4722C2.05114 12.4722 2.45055 12.8715 2.45055 13.3622C2.45055 13.8528 2.05114 14.2521 1.56056 14.2521Z" fill="white"/>
</g>
</svg>
