<svg width="24" height="25" viewBox="0 0 24 25" fill="none" xmlns="http://www.w3.org/2000/svg">
<g clip-path="url(#clip0)">
<path d="M13.4766 4.76559H16.3491V4.36291C16.3491 1.9468 14.3894 0.013916 12.0001 0.013916C9.61085 0.013916 7.65112 1.97365 7.65112 4.36291V4.79244C7.70481 4.79244 7.73166 4.76559 7.78535 4.79244H10.5236C10.8994 4.79244 11.1947 5.08774 11.1947 5.46358C11.1947 5.83942 10.8994 6.13472 10.5236 6.13472H7.78535C7.73166 6.13472 7.70481 6.13472 7.65112 6.13472V7.50385C7.70481 7.50385 7.73166 7.477 7.78535 7.50385H10.5236C10.8994 7.50385 11.1947 7.79915 11.1947 8.17499C11.1947 8.55083 10.8994 8.84613 10.5236 8.84613H7.78535C7.73166 8.84613 7.70481 8.84613 7.65112 8.84613V10.2153C7.70481 10.2153 7.73166 10.1884 7.78535 10.2153H10.5236C10.8994 10.2153 11.1947 10.5106 11.1947 10.8864C11.1947 11.2622 10.8994 11.5575 10.5236 11.5575H7.78535C7.73166 11.5575 7.70481 11.5575 7.65112 11.5575V11.9871C7.65112 14.3226 9.58401 16.2555 12.0001 16.2555C14.4162 16.2555 16.3491 14.2958 16.3491 11.9065V11.477H13.4766C13.1008 11.477 12.8055 11.1817 12.8055 10.8059C12.8055 10.43 13.1008 10.1347 13.4766 10.1347H16.3491V8.79244H13.4766C13.1008 8.79244 12.8055 8.49714 12.8055 8.1213C12.8055 7.74546 13.1008 7.45016 13.4766 7.45016H16.3491V6.10788H13.4766C13.1008 6.10788 12.8055 5.81257 12.8055 5.43674C12.8055 5.0609 13.1008 4.76559 13.4766 4.76559Z" fill="white"/>
<path d="M18.4967 8.06763C18.0403 8.06763 17.6913 8.41662 17.6913 8.873V11.9066C17.6913 15.0475 15.1409 17.5978 12 17.5978C8.85907 17.5978 6.30874 15.0475 6.30874 11.9066V8.873C6.30874 8.41662 5.95974 8.06763 5.50337 8.06763C5.04699 8.06763 4.698 8.41662 4.698 8.873V11.9066C4.698 15.6381 7.48994 18.7522 11.1946 19.1817V22.4032H8.80538C8.349 22.4032 8.00001 22.7522 8.00001 23.2086C8.00001 23.6649 8.349 24.0139 8.80538 24.0139H15.1946C15.651 24.0139 16 23.6649 16 23.2086C16 22.7522 15.651 22.4032 15.1946 22.4032H12.8054V19.1817C16.5101 18.779 19.302 15.6381 19.302 11.9066V8.873C19.302 8.44347 18.953 8.06763 18.4967 8.06763Z" fill="white"/>
</g>
<defs>
<clipPath id="clip0">
<rect width="24" height="24" fill="white" transform="translate(0 0.013916)"/>
</clipPath>
</defs>
</svg>
