<svg width="364" height="51" viewBox="0 0 364 51" fill="none" xmlns="http://www.w3.org/2000/svg">
<path d="M360.816 25.3335C360.816 22.2783 359.764 19.6733 357.659 17.5207C355.556 15.3669 353.012 14.2901 350.027 14.2901C347.042 14.2901 344.497 15.3669 342.394 17.5207C340.29 19.6733 339.238 22.2783 339.238 25.3335C339.238 28.3898 340.29 30.9937 342.394 33.1463C344.497 35.3011 347.042 36.378 350.027 36.378C353.012 36.378 355.556 35.3011 357.659 33.1463C359.764 30.9937 360.816 28.3898 360.816 25.3335ZM341.908 36.378C341.422 35.9909 340.946 35.5588 340.478 35.0798C337.855 32.3924 336.541 29.1447 336.541 25.3335C336.541 21.5244 337.858 18.2714 340.492 15.5733C343.126 12.8785 346.304 11.529 350.027 11.529C353.75 11.529 356.928 12.8785 359.562 15.5733C362.196 18.2714 363.513 21.5244 363.513 25.3335C363.513 29.1447 362.196 32.3978 359.562 35.0937C356.928 37.7906 353.75 39.138 350.027 39.138H306.47L309.167 36.378H341.908Z" fill="#F35B70"/>
<path d="M246.863 36.4355V19.811H249.559V36.4355C249.559 40.2446 248.243 43.4976 245.608 46.1956C242.975 48.8904 239.796 50.24 236.073 50.24H230.679L233.376 47.4789H236.073C239.059 47.4789 241.602 46.402 243.706 44.2483C245.811 42.0957 246.863 39.4907 246.863 36.4355Z" fill="#F35B70"/>
<path d="M329.599 25.7043C329.599 19.8505 324.947 15.0886 319.229 15.0886C313.511 15.0886 308.858 19.8505 308.858 25.7043V36.3188H319.229C324.947 36.3188 329.599 31.5569 329.599 25.7043ZM306.103 39.1388V25.7043C306.103 18.2957 311.992 12.2687 319.229 12.2687C326.466 12.2687 332.354 18.2957 332.354 25.7043C332.354 33.1129 326.466 39.1388 319.229 39.1388H306.103Z" fill="#F35B70"/>
<path d="M308.8 39.1388H306.103V0.486359L308.8 3.24641V39.1388Z" fill="#F35B70"/>
<path d="M332.236 36.3778V39.1389H294.474L297.171 36.3778H332.236Z" fill="#F35B70"/>
<path d="M260.246 25.0768V19.731H262.942V25.0768C262.942 28.1331 263.994 30.737 266.099 32.8897C268.104 34.9439 270.51 36.0186 273.317 36.1149C273.455 36.1192 285.988 36.1213 286.127 36.1213C289.112 36.1213 291.657 35.0444 293.761 32.8897C295.864 30.737 296.916 28.1331 296.916 25.0768V22.4921L299.614 19.731V25.0768C299.614 28.8881 298.296 32.1411 295.662 34.837C293.027 37.5339 289.849 38.8813 286.127 38.8813C285.96 38.8813 273.396 38.8792 273.231 38.8739C269.723 38.7573 266.711 37.412 264.198 34.837C261.562 32.1411 260.246 28.8881 260.246 25.0768Z" fill="#F35B70"/>
<path d="M278.58 47.2132H281.277V49.9732H278.58V47.2132Z" fill="#F35B70"/>
<path d="M246.873 11.5286H249.569V14.2887H246.873V11.5286Z" fill="#F35B70"/>
<path d="M208.738 47.2132H211.434V49.9732H208.738V47.2132Z" fill="#F35B70"/>
<path d="M221.483 49.9732H225.115L227.863 47.2132H221.483H217.85V49.9732H221.483Z" fill="#F35B70"/>
<path d="M181.708 49.9732H185.34L188.089 47.2132H181.708H178.075V49.9732H181.708Z" fill="#F35B70"/>
<path d="M174.915 49.9633H162.989C159.004 49.9633 155.26 48.371 152.446 45.4816C149.633 42.5921 148.092 38.7552 148.107 34.6745C148.136 26.3045 154.813 19.4969 162.989 19.4969H177.849V37.7489L182.565 37.7265C188.024 37.7265 192.458 33.187 192.458 27.607V19.9546H195.213V27.607C195.213 34.7419 189.542 40.5464 182.573 40.5464L175.094 40.5817V22.3158H162.989C156.327 22.3158 150.886 27.8647 150.862 34.6852C150.849 38.0088 152.106 41.1367 154.397 43.4925C156.69 45.8462 159.741 47.1434 162.989 47.1434H174.915V49.9633Z" fill="#F35B70"/>
<path d="M217.851 39.8518L220.592 37.0318L226.694 37.0019C232.152 37.0019 236.586 32.4624 236.586 26.8824V19.9572H239.341V26.8824C239.341 34.0173 233.671 39.8218 226.7 39.8218L217.851 39.8518Z" fill="#F35B70"/>
<path d="M210.15 39.8488C207.029 39.8488 204.09 38.6169 201.863 36.3712C199.609 34.0966 198.358 31.0607 198.34 27.8205L198.199 0.447739L200.954 3.24415L201.095 27.8066C201.109 30.2897 202.068 32.6198 203.796 34.3629C205.526 36.107 207.835 37.046 210.239 37.0299C212.66 37.0064 214.927 36.0183 216.623 34.2495C218.317 32.4808 219.238 30.141 219.213 27.6633L219.122 19.9724L221.876 19.9392L221.968 27.6333C221.999 30.8671 220.799 33.9159 218.59 36.2236C216.378 38.5313 213.423 39.8188 210.267 39.8488H210.15Z" fill="#F35B70"/>
<path d="M49.8734 25.779C49.8734 22.7238 48.8214 20.1188 46.7174 17.9661C44.6133 15.8124 42.0695 14.7355 39.0837 14.7355C36.099 14.7355 33.5541 15.8124 31.4511 17.9661C29.347 20.1188 28.295 22.7238 28.295 25.779C28.295 28.8352 29.347 31.4392 31.4511 33.5918C33.5541 35.7466 36.099 36.8234 39.0837 36.8234C42.0695 36.8234 44.6133 35.7466 46.7174 33.5918C48.8214 31.4392 49.8734 28.8352 49.8734 25.779ZM30.9653 36.8234C30.4795 36.4363 30.0031 36.0043 29.5351 35.5252C26.9118 32.8379 25.5976 29.5891 25.5976 25.779C25.5976 21.9688 26.915 18.7158 29.5487 16.0188C32.1834 13.3229 35.3625 11.9744 39.0837 11.9744C42.807 11.9744 45.985 13.3229 48.6187 16.0188C51.2535 18.7158 52.5708 21.9688 52.5708 25.779C52.5708 29.5891 51.2535 32.8432 48.6187 35.5391C45.985 38.2361 42.807 39.5835 39.0837 39.5835H17.5638L17.5063 36.8234H30.9653Z" fill="#F35B70"/>
<path d="M89.5593 39.7712C95.4452 39.7712 100.233 34.8702 100.233 28.8454V25.0277L97.5429 25.8736L97.4792 28.8454C97.4792 33.3154 93.9262 36.9523 89.5593 36.9523V39.7712Z" fill="#F35B70"/>
<path d="M16.1835 36.266V19.6415H18.881V36.266C18.881 40.0751 17.5636 43.3281 14.9288 46.0261C12.2951 48.7209 9.11714 50.0705 5.39381 50.0705H0L2.69743 47.3083H5.39381C8.37958 47.3083 10.9234 46.2325 13.0275 44.0788C15.1315 41.9261 16.1835 39.3212 16.1835 36.266Z" fill="#F35B70"/>
<path d="M135.853 11.4345H138.55V14.1945H135.853V11.4345Z" fill="#F35B70"/>
<path d="M37.7388 0.542312H40.4362V3.30341H37.7388V0.542312Z" fill="#F35B70"/>
<path d="M106.151 50.0722H109.783L112.531 47.311H106.151H102.518V50.0722H106.151Z" fill="#F35B70"/>
<path d="M80.1049 36.105V26.5298H82.8013V36.105C82.8013 39.9152 81.485 43.1682 78.8492 45.8651C76.2165 48.561 73.0375 49.9095 69.3152 49.9095H63.9214L66.6178 47.1484H69.3152C72.301 47.1484 74.8438 46.0715 76.9478 43.9178C79.0529 41.7652 80.1049 39.1602 80.1049 36.105Z" fill="#F35B70"/>
<path d="M117.053 39.4011L119.794 36.5812L125.896 36.5512C131.354 36.5512 135.789 32.0118 135.789 26.4318V19.5065H138.543V26.4318C138.543 33.5666 132.873 39.3712 125.902 39.3712L117.053 39.4011Z" fill="#F35B70"/>
<path d="M109.364 39.401C106.243 39.401 103.304 38.1691 101.077 35.9234C98.8226 33.6489 97.5721 30.6129 97.5544 27.3727L97.4133 -1.52588e-05L100.168 2.7964L100.309 27.3588C100.323 29.8419 101.282 32.1721 103.01 33.9151C104.74 35.6593 107.049 36.5982 109.454 36.5811C111.875 36.5586 114.141 35.5705 115.837 33.8018C117.532 32.0331 118.452 29.6933 118.428 27.2155L118.336 19.5246L121.091 19.4914L121.182 27.1845C121.213 30.4194 120.013 33.4682 117.804 35.7759C115.592 38.0836 112.638 39.3711 109.481 39.401H109.364Z" fill="#F35B70"/>
<path d="M69.2298 14.7318C63.229 14.7318 58.345 19.7311 58.345 25.8736C58.345 32.0161 63.229 37.0154 69.2298 37.0154H80.1125V25.8736C80.1125 19.7311 75.2306 14.7318 69.2298 14.7318ZM82.8047 39.7712H69.2298C61.7435 39.7712 55.6528 33.5367 55.6528 25.8736C55.6528 18.2105 61.7435 11.976 69.2298 11.976C76.7172 11.976 82.8047 18.2105 82.8047 25.8736V39.7712Z" fill="#F35B70"/>
<path d="M89.5521 39.7714H81.4473V37.0156H89.5521V39.7714Z" fill="#F35B70"/>
</svg>
