<svg width="24" height="24" viewBox="0 0 24 24" fill="none" xmlns="http://www.w3.org/2000/svg">
<path d="M23.3091 17.9915L19.8403 14.5212C19.3745 14.0578 18.7507 13.8024 18.0841 13.8024C17.3904 13.8024 16.7354 14.0755 16.2402 14.5711L14.8899 15.921C13.8407 15.3378 12.4461 14.5357 10.9983 13.0879C9.55208 11.6412 8.74986 10.2507 8.16369 9.19581L9.51525 7.84525C10.5201 6.83831 10.5407 5.22285 9.56121 4.2443L6.09311 0.776104C5.62856 0.310262 5.00476 0.0537109 4.33647 0.0537109C3.65826 0.0537109 3.01669 0.314829 2.52434 0.790103C2.22648 1.02997 0.731756 2.34946 0.174671 5.07065C-0.605307 8.87949 1.18678 12.5442 6.36029 17.7198C12.1395 23.4972 17.0733 23.9463 18.4478 23.9463C18.7339 23.9463 18.9066 23.9286 18.9526 23.9233C21.6479 23.6073 22.6129 22.4104 23.3176 21.5364C24.2306 20.4036 24.2274 18.9132 23.3091 17.9915ZM22.1581 20.6016C21.4958 21.4231 20.8703 22.1989 18.7794 22.444C18.7783 22.4441 18.6639 22.4569 18.4478 22.4569C17.218 22.4569 12.7878 22.0393 7.4134 16.6667C2.64248 11.8938 0.967954 8.62066 1.63366 5.36929C2.11955 2.9958 3.40955 1.98698 3.45969 1.94865L3.50417 1.91579L3.54319 1.87667C3.75854 1.66152 4.04021 1.54298 4.33637 1.54298C4.60603 1.54298 4.85543 1.64405 5.03931 1.82852L8.5082 5.29751C8.90733 5.69624 8.88608 6.3672 8.46144 6.79273L6.93296 8.31993L6.90784 8.34624C6.50951 8.78497 6.55637 9.3779 6.77579 9.76402C7.40893 10.9066 8.27618 12.4714 9.94495 14.1407C11.6082 15.8039 13.1707 16.6704 14.3101 17.3024C14.4242 17.3664 14.6597 17.4738 14.9544 17.4738C15.3025 17.4738 15.6221 17.3265 15.8587 17.0579L17.2932 15.6239C17.5073 15.4096 17.7881 15.2916 18.0839 15.2916C18.3541 15.2916 18.6048 15.3929 18.7883 15.5754L22.2548 19.0434C22.6951 19.4853 22.5134 20.161 22.1581 20.6016Z" fill="#4E4E4E"/>
<path d="M14.5399 3.70247C15.8194 3.84971 17.3259 4.62472 18.3779 5.67684C19.4398 6.73868 20.2167 8.26051 20.357 9.55389C20.3984 9.93544 20.7211 10.2182 21.0963 10.2182C21.1232 10.2182 21.1504 10.2167 21.1776 10.2138C21.5864 10.1695 21.8819 9.8021 21.8375 9.39325C21.6601 7.75833 20.7379 5.93081 19.4311 4.62383C18.1364 3.32906 16.3275 2.40919 14.7102 2.22303C14.3018 2.17567 13.9324 2.46916 13.8853 2.87761C13.8383 3.28607 14.1313 3.65541 14.5399 3.70247Z" fill="#4E4E4E"/>
<path d="M13.8442 6.82175C14.5362 6.90147 15.4939 7.41477 16.1213 8.04215C16.754 8.67499 17.2683 9.64182 17.3441 10.3413C17.3855 10.7229 17.7081 11.0057 18.0834 11.0057C18.1102 11.0057 18.1373 11.0042 18.1645 11.0013C18.5734 10.9569 18.869 10.5896 18.8246 10.1807C18.6951 8.98654 17.9023 7.71719 17.1742 6.98904C16.4526 6.26734 15.1956 5.47833 14.0145 5.34221C13.6055 5.29465 13.2366 5.58824 13.1895 5.99669C13.1425 6.40525 13.4356 6.77468 13.8442 6.82175Z" fill="#4E4E4E"/>
</svg>
