<svg width="25" height="24" viewBox="0 0 25 24" fill="none" xmlns="http://www.w3.org/2000/svg">
<path d="M23.8091 18.0055L20.3403 14.5353C19.8745 14.0718 19.2507 13.8164 18.5841 13.8164C17.8904 13.8164 17.2354 14.0896 16.7402 14.5851L15.3899 15.9351C14.3407 15.3519 12.9461 14.5498 11.4983 13.1019C10.0521 11.6552 9.24986 10.2647 8.66369 9.20985L10.0152 7.85928C11.0201 6.85234 11.0407 5.23689 10.0612 4.25834L6.59311 0.790142C6.12856 0.3243 5.50476 0.067749 4.83647 0.067749C4.15826 0.067749 3.51669 0.328867 3.02434 0.804141C2.72648 1.04401 1.23176 2.3635 0.674671 5.08469C-0.105307 8.89353 1.68678 12.5582 6.86029 17.7338C12.6395 23.5113 17.5733 23.9603 18.9478 23.9603C19.2339 23.9603 19.4066 23.9426 19.4526 23.9373C22.1479 23.6214 23.1129 22.4244 23.8176 21.5504C24.7306 20.4177 24.7274 18.9272 23.8091 18.0055ZM22.6581 20.6156C21.9958 21.4371 21.3703 22.2129 19.2794 22.4581C19.2783 22.4582 19.1639 22.471 18.9478 22.471C17.718 22.471 13.2878 22.0534 7.9134 16.6807C3.14248 11.9078 1.46795 8.6347 2.13366 5.38333C2.61955 3.00984 3.90955 2.00101 3.95969 1.96269L4.00417 1.92983L4.04319 1.89071C4.25854 1.67556 4.54021 1.55701 4.83637 1.55701C5.10603 1.55701 5.35543 1.65809 5.53931 1.84256L9.0082 5.31155C9.40733 5.71028 9.38608 6.38124 8.96144 6.80677L7.43296 8.33396L7.40784 8.36027C7.00951 8.79901 7.05637 9.39194 7.27579 9.77805C7.90893 10.9206 8.77618 12.4854 10.4449 14.1547C12.1082 15.8179 13.6707 16.6845 14.8101 17.3164C14.9242 17.3805 15.1597 17.4879 15.4544 17.4879C15.8025 17.4879 16.1221 17.3405 16.3587 17.072L17.7932 15.6379C18.0073 15.4237 18.2881 15.3056 18.5839 15.3056C18.8541 15.3056 19.1048 15.407 19.2883 15.5895L22.7548 19.0575C23.1951 19.4994 23.0134 20.175 22.6581 20.6156Z" fill="#66CBBA"/>
<path d="M15.0399 3.71651C16.3194 3.86374 17.8259 4.63876 18.8779 5.69087C19.9398 6.75272 20.7167 8.27455 20.857 9.56793C20.8984 9.94948 21.2211 10.2322 21.5963 10.2322C21.6232 10.2322 21.6504 10.2308 21.6776 10.2279C22.0864 10.1835 22.3819 9.81614 22.3375 9.40729C22.1601 7.77237 21.2379 5.94484 19.9311 4.63786C18.6364 3.3431 16.8275 2.42323 15.2102 2.23707C14.8018 2.18971 14.4324 2.4832 14.3853 2.89165C14.3383 3.30011 14.6313 3.66944 15.0399 3.71651Z" fill="#66CBBA"/>
<path d="M14.3442 6.83591C15.0362 6.91563 15.9939 7.42893 16.6213 8.05631C17.254 8.68915 17.7683 9.65598 17.8441 10.3554C17.8855 10.7371 18.2081 11.0198 18.5834 11.0198C18.6102 11.0198 18.6373 11.0184 18.6645 11.0155C19.0734 10.9711 19.369 10.6037 19.3246 10.1949C19.1951 9.0007 18.4023 7.73135 17.6742 7.0032C16.9526 6.2815 15.6956 5.49249 14.5145 5.35637C14.1055 5.30881 13.7366 5.6024 13.6895 6.01085C13.6425 6.41941 13.9356 6.78884 14.3442 6.83591Z" fill="#66CBBA"/>
</svg>
