<svg width="20" height="20" viewBox="0 0 20 20" fill="none" xmlns="http://www.w3.org/2000/svg">
<path fill-rule="evenodd" clip-rule="evenodd" d="M16.533 15.1609C16.533 17.9075 12.7663 18.225 9.93384 18.225L9.73115 18.2248C7.92651 18.2205 3.33301 18.1065 3.33301 15.1442C3.33301 12.4536 6.9483 12.094 9.75925 12.0804L10.1365 12.0802C11.941 12.0846 16.533 12.1985 16.533 15.1609ZM9.93384 13.33C6.38301 13.33 4.58301 13.94 4.58301 15.1442C4.58301 16.3592 6.38301 16.975 9.93384 16.975C13.4838 16.975 15.283 16.365 15.283 15.1609C15.283 13.9459 13.4838 13.33 9.93384 13.33ZM9.93384 1.66635C12.3738 1.66635 14.358 3.65135 14.358 6.09135C14.358 8.53135 12.3738 10.5155 9.93384 10.5155H9.90718C7.47218 10.508 5.49967 8.52218 5.50798 6.08885C5.50798 3.65135 7.49301 1.66635 9.93384 1.66635ZM9.93384 2.85635C8.14968 2.85635 6.69799 4.30718 6.69799 6.09135C6.69218 7.86968 8.13301 9.31968 9.90968 9.32635L9.93384 9.92135V9.32635C11.7172 9.32635 13.168 7.87468 13.168 6.09135C13.168 4.30718 11.7172 2.85635 9.93384 2.85635Z" fill="#949494"/>
</svg>
