<svg width="24" height="24" viewBox="0 0 24 24" fill="none" xmlns="http://www.w3.org/2000/svg">
<path d="M23.7723 22.6943L17.5759 16.5969C19.1985 14.834 20.1955 12.5024 20.1955 9.93682C20.1947 4.44852 15.6742 0 10.0974 0C4.52055 0 0 4.44852 0 9.93682C0 15.4251 4.52055 19.8736 10.0974 19.8736C12.5069 19.8736 14.7169 19.0402 16.4529 17.6546L22.6733 23.776C22.9764 24.0746 23.4685 24.0746 23.7716 23.776C24.0754 23.4775 24.0754 22.9929 23.7723 22.6943ZM10.0974 18.3448C5.37878 18.3448 1.55362 14.5804 1.55362 9.93682C1.55362 5.29321 5.37878 1.52884 10.0974 1.52884C14.816 1.52884 18.6411 5.29321 18.6411 9.93682C18.6411 14.5804 14.816 18.3448 10.0974 18.3448Z" fill="white"/>
</svg>
