<svg width="30" height="31" viewBox="0 0 30 31" fill="none" xmlns="http://www.w3.org/2000/svg">
<g clip-path="url(#clip0)">
<path d="M15 30.0137C23.2863 30.0137 30 23.2999 30 15.0137C30 6.72742 23.2863 0.0136719 15 0.0136719C6.71375 0.0136719 0 6.72742 0 15.0137C0 23.2999 6.71375 30.0137 15 30.0137ZM6.86375 14.6887L21.3263 9.11242C21.9975 8.86992 22.5837 9.27617 22.3662 10.2912L22.3675 10.2899L19.905 21.8912C19.7225 22.7137 19.2337 22.9137 18.55 22.5262L14.8 19.7624L12.9912 21.5049C12.7912 21.7049 12.6225 21.8737 12.235 21.8737L12.5013 18.0574L19.4513 11.7787C19.7537 11.5124 19.3837 11.3624 18.985 11.6274L10.3963 17.0349L6.69375 15.8799C5.89 15.6249 5.8725 15.0762 6.86375 14.6887Z" fill="#848484"/>
</g>
<defs>
<clipPath id="clip0">
<rect width="30" height="30" fill="white" transform="translate(0 0.0136719)"/>
</clipPath>
</defs>
</svg>
