<svg width="30" height="31" viewBox="0 0 30 31" fill="none" xmlns="http://www.w3.org/2000/svg">
<g clip-path="url(#clip0)">
<path d="M15 0.0136719C6.717 0.0136719 0 6.73067 0 15.0137C0 23.2967 6.717 30.0137 15 30.0137C23.283 30.0137 30 23.2967 30 15.0137C30 6.73067 23.283 0.0136719 15 0.0136719ZM21.8488 11.7091C21.8555 11.8567 21.8587 12.005 21.8587 12.154C21.8587 16.7035 18.3957 21.9497 12.0628 21.9499H12.063H12.0628C10.1184 21.9499 8.3091 21.38 6.78543 20.4034C7.05482 20.4352 7.32903 20.451 7.60666 20.451C9.21982 20.451 10.7043 19.9008 11.8829 18.9772C10.3757 18.9493 9.10492 17.9539 8.66638 16.5859C8.87627 16.6261 9.0921 16.6481 9.31343 16.6481C9.62769 16.6481 9.9321 16.6058 10.2214 16.5268C8.64601 16.2114 7.45926 14.8191 7.45926 13.1519C7.45926 13.1364 7.45926 13.1224 7.45972 13.108C7.92366 13.366 8.45421 13.5211 9.01909 13.5385C8.09464 12.9217 7.48695 11.8672 7.48695 10.6727C7.48695 10.0419 7.65747 9.45093 7.95319 8.94212C9.65103 11.0254 12.1884 12.3955 15.0499 12.5395C14.9908 12.2872 14.9604 12.0245 14.9604 11.7544C14.9604 9.85376 16.5024 8.31178 18.4037 8.31178C19.3941 8.31178 20.2885 8.73041 20.9168 9.39966C21.7012 9.24493 22.4377 8.95837 23.1031 8.56401C22.8456 9.36761 22.3 10.0419 21.5891 10.4683C22.2855 10.385 22.9493 10.2003 23.5661 9.92609C23.1054 10.6166 22.5211 11.2232 21.8488 11.7091Z" fill="#848484"/>
</g>
<defs>
<clipPath id="clip0">
<rect width="30" height="30" fill="white" transform="translate(0 0.0136719)"/>
</clipPath>
</defs>
</svg>
