<svg width="25" height="25" viewBox="0 0 25 25" fill="none" xmlns="http://www.w3.org/2000/svg">
<g clip-path="url(#clip0)">
<path d="M13.6248 4.96362H2.67514C1.23094 4.96362 0.0493164 6.14524 0.0493164 7.58944V16.4385C0.0493164 17.8827 1.23094 19.0643 2.67514 19.0643H13.6248C15.069 19.0643 16.2506 17.8827 16.2506 16.4385V7.58944C16.2506 6.11898 15.069 4.96362 13.6248 4.96362Z" fill="white"/>
<path d="M22.1064 6.40777C21.9488 6.43403 21.7913 6.51281 21.66 6.59158L17.5637 8.95482V15.0467L21.6863 17.4099C22.4477 17.8563 23.393 17.5938 23.8394 16.8323C23.9707 16.5959 24.0495 16.3334 24.0495 16.0445V7.93075C24.0495 6.95919 23.1305 6.17145 22.1064 6.40777Z" fill="white"/>
</g>
<defs>
<clipPath id="clip0">
<rect width="24" height="24" fill="white" transform="translate(0.0493164 0.013916)"/>
</clipPath>
</defs>
</svg>
