<svg width="26" height="24" viewBox="0 0 26 24" fill="none" xmlns="http://www.w3.org/2000/svg">
<g clip-path="url(#clip0)">
<path d="M19.1612 14.3072L19.1517 14.3822C16.8356 13.2862 16.5934 13.1402 16.2943 13.5662C16.0868 13.8612 15.4822 14.5302 15.3 14.7282C15.1157 14.9232 14.9324 14.9382 14.6196 14.8032C14.3036 14.6532 13.2893 14.3382 12.0886 13.3182C11.1533 12.5232 10.5256 11.5482 10.3402 11.2482C10.0316 10.7422 10.6772 10.6702 11.265 9.61417C11.3703 9.40417 11.3166 9.23917 11.2386 9.09017C11.1596 8.94017 10.5308 7.47017 10.2675 6.88417C10.0147 6.30017 9.75459 6.37417 9.55974 6.37417C8.95307 6.32417 8.50965 6.33217 8.11889 6.71817C6.41894 8.49217 6.84761 10.3222 8.30216 12.2682C11.1607 15.8202 12.6837 16.4742 15.4685 17.3822C16.2205 17.6092 16.9062 17.5772 17.4486 17.5032C18.0532 17.4122 19.3097 16.7822 19.572 16.0772C19.8406 15.3722 19.8406 14.7872 19.7616 14.6522C19.6836 14.5172 19.4772 14.4422 19.1612 14.3072Z" fill="#F03861"/>
<path d="M22.3347 3.44894C14.2362 -3.98406 0.833531 1.40694 0.828264 11.8929C0.828264 13.9889 1.4065 16.0329 2.50821 17.8379L0.721886 23.9999L7.39425 22.3479C15.7202 26.6179 25.9958 20.9479 26 11.8989C26 8.72295 24.694 5.73394 22.3189 3.48794L22.3347 3.44894ZM23.8956 11.8659C23.8893 19.4989 15.0641 24.2659 8.08413 20.3699L7.70496 20.1559L3.75526 21.1309L4.81378 17.4859L4.56205 17.1109C0.21843 10.5459 5.20875 1.96594 13.4368 1.96594C16.2321 1.96594 18.8558 3.00094 20.8317 4.87594C22.8065 6.73494 23.8956 9.22594 23.8956 11.8659Z" fill="#F03861"/>
</g>
<defs>
<clipPath id="clip0">
<rect width="25.2781" height="24" fill="white" transform="translate(0.721893)"/>
</clipPath>
</defs>
</svg>
