<svg width="24" height="24" viewBox="0 0 24 24" fill="none" xmlns="http://www.w3.org/2000/svg">
<path fill-rule="evenodd" clip-rule="evenodd" d="M19.9589 4.00809C17.8539 1.90063 15.0545 0.739517 12.0721 0.738281C5.92662 0.738281 0.925095 5.73967 0.922623 11.8868C0.921799 13.8518 1.43514 15.77 2.41086 17.4608L0.829102 23.2383L6.73961 21.6878C8.3682 22.5762 10.2017 23.0444 12.0676 23.0449H12.0722C18.217 23.0449 23.2191 18.0431 23.2214 11.8957C23.2227 8.9165 22.064 6.1154 19.9589 4.00809ZM12.0721 21.162H12.0683C10.4055 21.1613 8.77469 20.7144 7.35169 19.8703L7.01345 19.6694L3.50606 20.5895L4.44223 17.1698L4.22182 16.8192C3.29416 15.3438 2.80431 13.6384 2.80513 11.8875C2.80705 6.77815 6.96428 2.62134 12.0758 2.62134C14.551 2.62216 16.8778 3.58731 18.6274 5.33894C20.377 7.09057 21.3399 9.41885 21.3391 11.895C21.3369 17.0048 17.1799 21.162 12.0721 21.162ZM17.1552 14.2215C16.8767 14.082 15.507 13.4083 15.2516 13.3152C14.9964 13.2222 14.8104 13.1759 14.6249 13.4547C14.4391 13.7335 13.9053 14.3611 13.7427 14.5469C13.5801 14.7328 13.4178 14.7561 13.1392 14.6166C12.8605 14.4772 11.9629 14.1829 10.8988 13.2339C10.0707 12.4952 9.5116 11.5829 9.349 11.3041C9.18668 11.0251 9.34763 10.8888 9.47123 10.7356C9.7728 10.3611 10.0748 9.96844 10.1676 9.78264C10.2606 9.59669 10.214 9.43396 10.1443 9.29457C10.0748 9.15518 9.51764 7.78395 9.28556 7.22598C9.05924 6.68298 8.82976 6.75632 8.65865 6.7478C8.49633 6.7397 8.31052 6.73805 8.12471 6.73805C7.93905 6.73805 7.6372 6.80768 7.38176 7.08673C7.12647 7.36564 6.40686 8.03952 6.40686 9.41075C6.40686 10.782 7.40511 12.1067 7.54436 12.2926C7.68361 12.4785 9.50886 15.2924 12.3034 16.499C12.968 16.7863 13.4869 16.9575 13.8916 17.0859C14.559 17.298 15.1661 17.268 15.6462 17.1963C16.1815 17.1163 17.2943 16.5223 17.5267 15.8717C17.7588 15.2209 17.7588 14.6632 17.689 14.5469C17.6195 14.4307 17.4337 14.3611 17.1552 14.2215Z" fill="#66CBBA"/>
</svg>
