<svg width="30" height="31" viewBox="0 0 30 31" fill="none" xmlns="http://www.w3.org/2000/svg">
<g clip-path="url(#clip0)">
<path d="M13.1316 17.824L18.0109 15.0138L13.1316 12.2036V17.824Z" fill="#848484"/>
<path d="M15 0.0136719C6.717 0.0136719 0 6.73067 0 15.0137C0 23.2967 6.717 30.0137 15 30.0137C23.283 30.0137 30 23.2967 30 15.0137C30 6.73067 23.283 0.0136719 15 0.0136719ZM24.3727 15.029C24.3727 15.029 24.3727 18.0711 23.9868 19.538C23.7705 20.3409 23.1374 20.974 22.3345 21.19C20.8676 21.5762 15 21.5762 15 21.5762C15 21.5762 9.14772 21.5762 7.66548 21.1747C6.86256 20.9586 6.22948 20.3253 6.01318 19.5224C5.62706 18.0711 5.62706 15.0137 5.62706 15.0137C5.62706 15.0137 5.62706 11.9718 6.01318 10.5049C6.22925 9.70201 6.8779 9.05336 7.66548 8.8373C9.13239 8.45117 15 8.45117 15 8.45117C15 8.45117 20.8676 8.45117 22.3345 8.85263C23.1374 9.0687 23.7705 9.70201 23.9868 10.5049C24.3883 11.9718 24.3727 15.029 24.3727 15.029Z" fill="#848484"/>
</g>
<defs>
<clipPath id="clip0">
<rect width="30" height="30" fill="white" transform="translate(0 0.0136719)"/>
</clipPath>
</defs>
</svg>
